{"glyphs":{"0":{"ha":943,"x_min":54,"x_max":888,"o":"m 471 -17 q 257 42 351 -17 q 108 214 163 101 q 54 486 54 326 q 108 758 54 646 q 257 930 163 871 q 471 989 351 989 q 685 930 592 989 q 833 758 779 871 q 888 486 888 646 q 833 214 888 326 q 685 42 779 101 q 471 -17 592 -17 m 471 174 q 570 206 528 174 q 637 307 613 238 q 661 486 661 376 q 637 665 661 596 q 570 767 613 735 q 471 799 528 799 q 373 767 415 799 q 306 665 331 735 q 282 486 282 596 q 306 307 282 376 q 373 206 331 238 q 471 174 415 174 z "},"1":{"ha":544,"x_min":10,"x_max":429,"o":"m 204 0 l 204 889 l 301 792 l 10 792 l 10 972 l 429 972 l 429 0 l 204 0 z "},"2":{"ha":819,"x_min":1,"x_max":781,"o":"m 46 0 l 46 146 l 421 500 q 486 572 465 540 q 515 631 507 604 q 522 679 522 657 q 483 769 522 738 q 367 800 443 800 q 253 776 306 800 q 165 703 201 753 l 1 808 q 157 940 57 892 q 388 989 257 989 q 577 953 496 989 q 703 854 658 918 q 749 701 749 790 q 737 608 749 654 q 690 510 725 561 q 586 394 654 458 l 275 101 l 232 183 l 781 183 l 781 0 l 46 0 z "},"3":{"ha":822,"x_min":-1,"x_max":772,"o":"m 369 -17 q 168 10 268 -17 q -1 88 68 38 l 86 260 q 215 196 142 219 q 364 172 289 172 q 497 206 449 172 q 546 297 546 239 q 503 385 546 353 q 364 417 460 417 l 261 417 l 261 565 l 532 872 l 557 792 l 47 792 l 47 972 l 728 972 l 728 826 l 458 519 l 344 585 l 410 585 q 681 504 589 585 q 772 297 772 424 q 729 144 772 215 q 597 28 686 72 q 369 -17 508 -17 z "},"4":{"ha":957,"x_min":43,"x_max":944,"o":"m 43 204 l 43 356 l 501 972 l 738 972 l 289 356 l 179 388 l 944 388 l 944 204 l 43 204 m 567 0 l 567 204 l 574 388 l 574 569 l 786 569 l 786 0 l 567 0 z "},"5":{"ha":826,"x_min":14,"x_max":789,"o":"m 385 -17 q 184 10 283 -17 q 14 88 85 38 l 103 260 q 231 196 158 219 q 379 172 304 172 q 513 206 464 172 q 561 299 561 239 q 542 365 561 336 q 473 410 522 394 q 335 425 424 425 l 86 425 l 136 972 l 729 972 l 729 792 l 217 792 l 333 894 l 299 504 l 182 607 l 388 607 q 620 567 532 607 q 749 460 708 528 q 789 306 789 392 q 746 147 789 219 q 613 28 703 74 q 385 -17 524 -17 z "},"6":{"ha":885,"x_min":54,"x_max":857,"o":"m 489 -17 q 258 39 356 -17 q 107 201 160 94 q 54 465 54 308 q 117 750 54 633 q 292 928 181 867 q 550 989 404 989 q 699 972 628 989 q 821 922 769 956 l 738 757 q 651 795 697 785 q 556 806 606 806 q 356 729 429 806 q 282 503 282 653 q 283 447 282 478 q 290 386 283 417 l 228 444 q 296 535 254 499 q 395 591 338 572 q 522 610 453 610 q 692 572 617 610 q 812 467 767 535 q 857 307 857 399 q 808 135 857 208 q 676 23 758 63 q 489 -17 593 -17 m 476 151 q 560 169 524 151 q 618 219 597 186 q 639 296 639 253 q 594 402 639 363 q 474 442 549 442 q 386 423 424 442 q 327 372 349 404 q 306 296 306 339 q 326 222 306 254 q 385 170 347 189 q 476 151 422 151 z "},"7":{"ha":861,"x_min":36,"x_max":815,"o":"m 210 0 l 601 886 l 660 789 l 136 789 l 236 894 l 236 631 l 36 631 l 36 972 l 815 972 l 815 826 l 454 0 l 210 0 z "},"8":{"ha":917,"x_min":49,"x_max":868,"o":"m 457 -17 q 243 20 335 -17 q 100 124 151 57 q 49 282 49 192 q 99 435 49 372 q 242 531 150 499 q 457 564 333 564 q 674 531 582 564 q 817 435 767 499 q 868 282 868 372 q 817 124 868 192 q 673 20 765 57 q 457 -17 581 -17 m 457 149 q 591 186 542 149 q 640 289 640 224 q 591 391 640 354 q 457 428 542 428 q 325 391 374 428 q 276 289 276 354 q 325 186 276 224 q 457 149 374 149 m 457 450 q 260 481 344 450 q 130 570 176 511 q 83 711 83 629 q 131 859 83 797 q 263 955 178 921 q 457 989 347 989 q 653 955 569 989 q 785 859 738 921 q 833 711 833 797 q 787 570 833 629 q 656 481 740 511 q 457 450 571 450 m 457 582 q 569 614 528 582 q 610 701 610 646 q 567 792 610 760 q 457 824 525 824 q 349 792 390 824 q 307 701 307 760 q 347 614 307 646 q 457 582 388 582 z "},"9":{"ha":885,"x_min":28,"x_max":831,"o":"m 396 989 q 628 933 531 989 q 778 772 725 878 q 831 507 831 665 q 767 222 831 339 q 593 44 704 106 q 335 -17 482 -17 q 188 0 258 -17 q 65 50 117 17 l 149 215 q 235 177 189 188 q 331 167 281 167 q 530 243 456 167 q 604 469 604 319 q 603 525 604 494 q 596 586 601 556 l 657 528 q 590 437 633 474 q 490 381 547 400 q 363 363 433 363 q 194 400 269 363 q 73 506 118 438 q 28 665 28 574 q 77 838 28 765 q 210 949 126 910 q 396 989 294 989 m 410 821 q 325 803 361 821 q 268 753 289 786 q 247 676 247 721 q 292 570 247 610 q 413 531 338 531 q 499 549 461 531 q 558 601 538 568 q 579 676 579 635 q 559 751 579 718 q 501 802 539 783 q 410 821 464 821 z "},"A":{"ha":1064,"x_min":-12,"x_max":1078,"o":"m -12 0 l 421 972 l 643 972 l 1078 0 l 842 0 l 486 858 l 575 858 l 218 0 l -12 0 m 204 208 l 264 379 l 764 379 l 825 208 l 204 208 z "},"Á":{"ha":1064,"x_min":-12,"x_max":1078,"o":"m -12 0 l 421 972 l 643 972 l 1078 0 l 842 0 l 486 858 l 575 858 l 218 0 l -12 0 m 204 208 l 264 379 l 764 379 l 825 208 l 204 208 z "},"Ă":{"ha":1064,"x_min":-12,"x_max":1078,"o":"m -12 0 l 421 972 l 643 972 l 1078 0 l 842 0 l 486 858 l 575 858 l 218 0 l -12 0 m 204 208 l 264 379 l 764 379 l 825 208 l 204 208 z "},"Ắ":{"ha":1064,"x_min":-12,"x_max":1078,"o":"m -12 0 l 421 972 l 643 972 l 1078 0 l 842 0 l 486 858 l 575 858 l 218 0 l -12 0 m 204 208 l 264 379 l 764 379 l 825 208 l 204 208 z "},"Ặ":{"ha":1064,"x_min":-12,"x_max":1078,"o":"m -12 0 l 421 972 l 643 972 l 1078 0 l 842 0 l 486 858 l 575 858 l 218 0 l -12 0 m 204 208 l 264 379 l 764 379 l 825 208 l 204 208 m 532 -292 q 464 -267 492 -292 q 436 -199 436 -242 q 464 -128 436 -156 q 532 -101 492 -101 q 600 -128 572 -101 q 628 -199 628 -156 q 600 -267 628 -242 q 532 -292 572 -292 z "},"Ằ":{"ha":1064,"x_min":-12,"x_max":1078,"o":"m -12 0 l 421 972 l 643 972 l 1078 0 l 842 0 l 486 858 l 575 858 l 218 0 l -12 0 m 204 208 l 264 379 l 764 379 l 825 208 l 204 208 z "},"Ẳ":{"ha":1064,"x_min":-12,"x_max":1078,"o":"m -12 0 l 421 972 l 643 972 l 1078 0 l 842 0 l 486 858 l 575 858 l 218 0 l -12 0 m 204 208 l 264 379 l 764 379 l 825 208 l 204 208 z "},"Ẵ":{"ha":1064,"x_min":-12,"x_max":1078,"o":"m -12 0 l 421 972 l 643 972 l 1078 0 l 842 0 l 486 858 l 575 858 l 218 0 l -12 0 m 204 208 l 264 379 l 764 379 l 825 208 l 204 208 z "},"Ǎ":{"ha":1064,"x_min":-12,"x_max":1078,"o":"m -12 0 l 421 972 l 643 972 l 1078 0 l 842 0 l 486 858 l 575 858 l 218 0 l -12 0 m 204 208 l 264 379 l 764 379 l 825 208 l 204 208 z "},"Â":{"ha":1064,"x_min":-12,"x_max":1078,"o":"m -12 0 l 421 972 l 643 972 l 1078 0 l 842 0 l 486 858 l 575 858 l 218 0 l -12 0 m 204 208 l 264 379 l 764 379 l 825 208 l 204 208 z "},"Ấ":{"ha":1064,"x_min":-12,"x_max":1078,"o":"m -12 0 l 421 972 l 643 972 l 1078 0 l 842 0 l 486 858 l 575 858 l 218 0 l -12 0 m 204 208 l 264 379 l 764 379 l 825 208 l 204 208 z "},"Ậ":{"ha":1064,"x_min":-12,"x_max":1078,"o":"m -12 0 l 421 972 l 643 972 l 1078 0 l 842 0 l 486 858 l 575 858 l 218 0 l -12 0 m 204 208 l 264 379 l 764 379 l 825 208 l 204 208 m 532 -292 q 464 -267 492 -292 q 436 -199 436 -242 q 464 -128 436 -156 q 532 -101 492 -101 q 600 -128 572 -101 q 628 -199 628 -156 q 600 -267 628 -242 q 532 -292 572 -292 z "},"Ầ":{"ha":1064,"x_min":-12,"x_max":1078,"o":"m -12 0 l 421 972 l 643 972 l 1078 0 l 842 0 l 486 858 l 575 858 l 218 0 l -12 0 m 204 208 l 264 379 l 764 379 l 825 208 l 204 208 z "},"Ẩ":{"ha":1064,"x_min":-12,"x_max":1078,"o":"m -12 0 l 421 972 l 643 972 l 1078 0 l 842 0 l 486 858 l 575 858 l 218 0 l -12 0 m 204 208 l 264 379 l 764 379 l 825 208 l 204 208 z "},"Ẫ":{"ha":1064,"x_min":-12,"x_max":1078,"o":"m -12 0 l 421 972 l 643 972 l 1078 0 l 842 0 l 486 858 l 575 858 l 218 0 l -12 0 m 204 208 l 264 379 l 764 379 l 825 208 l 204 208 z "},"Ȁ":{"ha":1064,"x_min":-12,"x_max":1078,"o":"m -12 0 l 421 972 l 643 972 l 1078 0 l 842 0 l 486 858 l 575 858 l 218 0 l -12 0 m 204 208 l 264 379 l 764 379 l 825 208 l 204 208 z "},"Ä":{"ha":1064,"x_min":-12,"x_max":1078,"o":"m -12 0 l 421 972 l 643 972 l 1078 0 l 842 0 l 486 858 l 575 858 l 218 0 l -12 0 m 204 208 l 264 379 l 764 379 l 825 208 l 204 208 z "},"Ạ":{"ha":1064,"x_min":-12,"x_max":1078,"o":"m -12 0 l 421 972 l 643 972 l 1078 0 l 842 0 l 486 858 l 575 858 l 218 0 l -12 0 m 204 208 l 264 379 l 764 379 l 825 208 l 204 208 m 532 -292 q 464 -267 492 -292 q 436 -199 436 -242 q 464 -128 436 -156 q 532 -101 492 -101 q 600 -128 572 -101 q 628 -199 628 -156 q 600 -267 628 -242 q 532 -292 572 -292 z "},"À":{"ha":1064,"x_min":-12,"x_max":1078,"o":"m -12 0 l 421 972 l 643 972 l 1078 0 l 842 0 l 486 858 l 575 858 l 218 0 l -12 0 m 204 208 l 264 379 l 764 379 l 825 208 l 204 208 z "},"Ả":{"ha":1064,"x_min":-12,"x_max":1078,"o":"m -12 0 l 421 972 l 643 972 l 1078 0 l 842 0 l 486 858 l 575 858 l 218 0 l -12 0 m 204 208 l 264 379 l 764 379 l 825 208 l 204 208 z "},"Ȃ":{"ha":1064,"x_min":-12,"x_max":1078,"o":"m -12 0 l 421 972 l 643 972 l 1078 0 l 842 0 l 486 858 l 575 858 l 218 0 l -12 0 m 204 208 l 264 379 l 764 379 l 825 208 l 204 208 z "},"Ā":{"ha":1064,"x_min":-12,"x_max":1078,"o":"m -12 0 l 421 972 l 643 972 l 1078 0 l 842 0 l 486 858 l 575 858 l 218 0 l -12 0 m 204 208 l 264 379 l 764 379 l 825 208 l 204 208 z "},"Ą":{"ha":1064,"x_min":-12,"x_max":1110,"o":"m -12 0 l 421 972 l 643 972 l 1078 0 l 842 0 l 486 858 l 575 858 l 218 0 l -12 0 m 204 208 l 264 379 l 764 379 l 825 208 l 204 208 m 969 -322 q 828 -279 879 -322 q 778 -167 778 -236 q 801 -82 778 -122 q 871 -6 824 -42 q 990 57 918 31 l 1078 0 q 983 -51 1018 -26 q 931 -99 947 -75 q 915 -149 915 -122 q 937 -195 915 -178 q 994 -212 958 -212 q 1040 -206 1018 -212 q 1079 -192 1063 -200 l 1110 -290 q 1047 -313 1085 -304 q 969 -322 1010 -322 z "},"Å":{"ha":1064,"x_min":-12,"x_max":1078,"o":"m -12 0 l 421 972 l 643 972 l 1078 0 l 842 0 l 486 858 l 575 858 l 218 0 l -12 0 m 204 208 l 264 379 l 764 379 l 825 208 l 204 208 m 531 1047 q 444 1070 483 1047 q 382 1131 404 1093 q 360 1215 360 1168 q 382 1299 360 1261 q 444 1360 404 1338 q 531 1383 483 1383 q 619 1360 581 1383 q 681 1299 658 1338 q 704 1215 704 1261 q 681 1131 704 1168 q 619 1070 658 1093 q 531 1047 581 1047 m 532 1131 q 592 1154 568 1131 q 615 1214 615 1178 q 592 1276 615 1251 q 531 1300 568 1300 q 472 1276 496 1300 q 447 1215 447 1253 q 472 1154 447 1178 q 532 1131 496 1131 z "},"Ǻ":{"ha":1064,"x_min":-12,"x_max":1078,"o":"m -12 0 l 421 972 l 643 972 l 1078 0 l 842 0 l 486 858 l 575 858 l 218 0 l -12 0 m 204 208 l 264 379 l 764 379 l 825 208 l 204 208 m 531 1047 q 444 1070 483 1047 q 382 1131 404 1093 q 360 1215 360 1168 q 382 1299 360 1261 q 444 1360 404 1338 q 531 1383 483 1383 q 619 1360 581 1383 q 681 1299 658 1338 q 704 1215 704 1261 q 681 1131 704 1168 q 619 1070 658 1093 q 531 1047 581 1047 m 532 1131 q 592 1154 568 1131 q 615 1214 615 1178 q 592 1276 615 1251 q 531 1300 568 1300 q 472 1276 496 1300 q 447 1215 447 1253 q 472 1154 447 1178 q 532 1131 496 1131 m 660 1288 l 556 1321 l 724 1494 l 831 1411 l 660 1288 z "},"Ã":{"ha":1064,"x_min":-12,"x_max":1078,"o":"m -12 0 l 421 972 l 643 972 l 1078 0 l 842 0 l 486 858 l 575 858 l 218 0 l -12 0 m 204 208 l 264 379 l 764 379 l 825 208 l 204 208 z "},"Æ":{"ha":1500,"x_min":-12,"x_max":1436,"o":"m -12 0 l 536 972 l 760 972 l 760 792 l 567 792 l 703 886 l 218 0 l -12 0 m 274 208 l 278 379 l 760 379 l 760 208 l 274 208 m 890 581 l 1360 581 l 1360 406 l 890 406 l 890 581 m 907 181 l 1436 181 l 1436 0 l 683 0 l 683 972 l 1418 972 l 1418 792 l 907 792 l 907 181 z "},"Ǽ":{"ha":1500,"x_min":-12,"x_max":1436,"o":"m -12 0 l 536 972 l 760 972 l 760 792 l 567 792 l 703 886 l 218 0 l -12 0 m 274 208 l 278 379 l 760 379 l 760 208 l 274 208 m 890 581 l 1360 581 l 1360 406 l 890 406 l 890 581 m 907 181 l 1436 181 l 1436 0 l 683 0 l 683 972 l 1418 972 l 1418 792 l 907 792 l 907 181 z "},"B":{"ha":1063,"x_min":115,"x_max":1007,"o":"m 115 0 l 115 972 l 590 972 q 866 903 774 972 q 958 719 958 833 q 921 587 958 643 q 818 500 883 531 q 668 469 753 469 l 694 526 q 857 497 786 526 q 967 408 928 467 q 1007 265 1007 350 q 908 70 1007 140 q 618 0 810 0 l 115 0 m 339 169 l 601 169 q 734 198 689 169 q 779 289 779 226 q 734 380 779 350 q 601 410 689 410 l 322 410 l 322 574 l 563 574 q 688 602 644 574 q 732 689 732 631 q 688 774 732 746 q 563 803 644 803 l 339 803 l 339 169 z "},"C":{"ha":1018,"x_min":54,"x_max":982,"o":"m 581 -17 q 372 20 468 -17 q 204 125 275 57 q 94 285 133 193 q 54 486 54 376 q 94 688 54 596 q 205 847 133 779 q 372 952 276 915 q 582 989 468 989 q 810 945 708 989 q 982 817 913 901 l 838 683 q 726 769 788 740 q 593 797 665 797 q 468 775 525 797 q 369 711 411 753 q 305 613 328 669 q 282 486 282 556 q 305 360 282 417 q 369 261 328 303 q 468 197 411 219 q 593 175 525 175 q 726 203 665 175 q 838 290 788 232 l 982 157 q 810 28 913 72 q 581 -17 708 -17 z "},"Ć":{"ha":1018,"x_min":54,"x_max":982,"o":"m 581 -17 q 372 20 468 -17 q 204 125 275 57 q 94 285 133 193 q 54 486 54 376 q 94 688 54 596 q 205 847 133 779 q 372 952 276 915 q 582 989 468 989 q 810 945 708 989 q 982 817 913 901 l 838 683 q 726 769 788 740 q 593 797 665 797 q 468 775 525 797 q 369 711 411 753 q 305 613 328 669 q 282 486 282 556 q 305 360 282 417 q 369 261 328 303 q 468 197 411 219 q 593 175 525 175 q 726 203 665 175 q 838 290 788 232 l 982 157 q 810 28 913 72 q 581 -17 708 -17 z "},"Č":{"ha":1018,"x_min":54,"x_max":982,"o":"m 581 -17 q 372 20 468 -17 q 204 125 275 57 q 94 285 133 193 q 54 486 54 376 q 94 688 54 596 q 205 847 133 779 q 372 952 276 915 q 582 989 468 989 q 810 945 708 989 q 982 817 913 901 l 838 683 q 726 769 788 740 q 593 797 665 797 q 468 775 525 797 q 369 711 411 753 q 305 613 328 669 q 282 486 282 556 q 305 360 282 417 q 369 261 328 303 q 468 197 411 219 q 593 175 525 175 q 726 203 665 175 q 838 290 788 232 l 982 157 q 810 28 913 72 q 581 -17 708 -17 z "},"Ç":{"ha":1018,"x_min":54,"x_max":982,"o":"m 581 -17 q 372 20 468 -17 q 204 125 275 57 q 94 285 133 193 q 54 486 54 376 q 94 688 54 596 q 205 847 133 779 q 372 952 276 915 q 582 989 468 989 q 810 945 708 989 q 982 817 913 901 l 838 683 q 726 769 788 740 q 593 797 665 797 q 468 775 525 797 q 369 711 411 753 q 305 613 328 669 q 282 486 282 556 q 305 360 282 417 q 369 261 328 303 q 468 197 411 219 q 593 175 525 175 q 726 203 665 175 q 838 290 788 232 l 982 157 q 810 28 913 72 q 581 -17 708 -17 m 506 -322 q 435 -314 469 -322 q 376 -293 401 -306 l 410 -200 q 453 -215 431 -210 q 500 -221 475 -221 q 556 -208 539 -221 q 572 -176 572 -196 q 556 -147 572 -158 q 504 -136 540 -136 l 457 -136 l 493 11 l 608 11 l 589 -69 q 681 -109 651 -76 q 710 -185 710 -142 q 654 -285 710 -247 q 506 -322 599 -322 z "},"Ḉ":{"ha":1018,"x_min":54,"x_max":982,"o":"m 581 -17 q 372 20 468 -17 q 204 125 275 57 q 94 285 133 193 q 54 486 54 376 q 94 688 54 596 q 205 847 133 779 q 372 952 276 915 q 582 989 468 989 q 810 945 708 989 q 982 817 913 901 l 838 683 q 726 769 788 740 q 593 797 665 797 q 468 775 525 797 q 369 711 411 753 q 305 613 328 669 q 282 486 282 556 q 305 360 282 417 q 369 261 328 303 q 468 197 411 219 q 593 175 525 175 q 726 203 665 175 q 838 290 788 232 l 982 157 q 810 28 913 72 q 581 -17 708 -17 m 506 -322 q 435 -314 469 -322 q 376 -293 401 -306 l 410 -200 q 453 -215 431 -210 q 500 -221 475 -221 q 556 -208 539 -221 q 572 -176 572 -196 q 556 -147 572 -158 q 504 -136 540 -136 l 457 -136 l 493 11 l 608 11 l 589 -69 q 681 -109 651 -76 q 710 -185 710 -142 q 654 -285 710 -247 q 506 -322 599 -322 z "},"Ĉ":{"ha":1018,"x_min":54,"x_max":982,"o":"m 581 -17 q 372 20 468 -17 q 204 125 275 57 q 94 285 133 193 q 54 486 54 376 q 94 688 54 596 q 205 847 133 779 q 372 952 276 915 q 582 989 468 989 q 810 945 708 989 q 982 817 913 901 l 838 683 q 726 769 788 740 q 593 797 665 797 q 468 775 525 797 q 369 711 411 753 q 305 613 328 669 q 282 486 282 556 q 305 360 282 417 q 369 261 328 303 q 468 197 411 219 q 593 175 525 175 q 726 203 665 175 q 838 290 788 232 l 982 157 q 810 28 913 72 q 581 -17 708 -17 z "},"Ċ":{"ha":1018,"x_min":54,"x_max":982,"o":"m 581 -17 q 372 20 468 -17 q 204 125 275 57 q 94 285 133 193 q 54 486 54 376 q 94 688 54 596 q 205 847 133 779 q 372 952 276 915 q 582 989 468 989 q 810 945 708 989 q 982 817 913 901 l 838 683 q 726 769 788 740 q 593 797 665 797 q 468 775 525 797 q 369 711 411 753 q 305 613 328 669 q 282 486 282 556 q 305 360 282 417 q 369 261 328 303 q 468 197 411 219 q 593 175 525 175 q 726 203 665 175 q 838 290 788 232 l 982 157 q 810 28 913 72 q 581 -17 708 -17 z "},"D":{"ha":1147,"x_min":115,"x_max":1093,"o":"m 115 0 l 115 972 l 557 972 q 836 912 715 972 q 1025 743 957 851 q 1093 486 1093 635 q 1025 230 1093 339 q 836 60 957 121 q 557 0 715 0 l 115 0 m 340 185 l 546 185 q 715 222 643 185 q 826 326 786 258 q 865 486 865 394 q 826 647 865 579 q 715 751 786 714 q 546 788 643 788 l 340 788 l 340 185 z "},"Ǆ":{"ha":2013,"x_min":115,"x_max":1981,"o":"m 115 0 l 115 972 l 557 972 q 836 912 715 972 q 1025 743 957 851 q 1093 486 1093 635 q 1025 230 1093 339 q 836 60 957 121 q 557 0 715 0 l 115 0 m 340 185 l 546 185 q 715 222 643 185 q 826 326 786 258 q 865 486 865 394 q 826 647 865 579 q 715 751 786 714 q 546 788 643 788 l 340 788 l 340 185 z "},"Ð":{"ha":1165,"x_min":1,"x_max":1111,"o":"m 133 0 l 133 972 l 575 972 q 854 912 733 972 q 1043 743 975 851 q 1111 486 1111 635 q 1043 230 1111 339 q 854 60 975 121 q 575 0 733 0 l 133 0 m 358 185 l 564 185 q 733 222 661 185 q 844 326 804 258 q 883 486 883 394 q 844 647 883 579 q 733 751 804 714 q 564 788 661 788 l 358 788 l 358 185 m 3 419 l 3 569 l 603 569 l 603 419 l 3 419 z "},"Ď":{"ha":1147,"x_min":115,"x_max":1093,"o":"m 115 0 l 115 972 l 557 972 q 836 912 715 972 q 1025 743 957 851 q 1093 486 1093 635 q 1025 230 1093 339 q 836 60 957 121 q 557 0 715 0 l 115 0 m 340 185 l 546 185 q 715 222 643 185 q 826 326 786 258 q 865 486 865 394 q 826 647 865 579 q 715 751 786 714 q 546 788 643 788 l 340 788 l 340 185 z "},"Đ":{"ha":1165,"x_min":1,"x_max":1111,"o":"m 133 0 l 133 972 l 575 972 q 854 912 733 972 q 1043 743 975 851 q 1111 486 1111 635 q 1043 230 1111 339 q 854 60 975 121 q 575 0 733 0 l 133 0 m 358 185 l 564 185 q 733 222 661 185 q 844 326 804 258 q 883 486 883 394 q 844 647 883 579 q 733 751 804 714 q 564 788 661 788 l 358 788 l 358 185 m 3 419 l 3 569 l 603 569 l 603 419 l 3 419 z "},"Ḍ":{"ha":1147,"x_min":115,"x_max":1093,"o":"m 115 0 l 115 972 l 557 972 q 836 912 715 972 q 1025 743 957 851 q 1093 486 1093 635 q 1025 230 1093 339 q 836 60 957 121 q 557 0 715 0 l 115 0 m 340 185 l 546 185 q 715 222 643 185 q 826 326 786 258 q 865 486 865 394 q 826 647 865 579 q 715 751 786 714 q 546 788 643 788 l 340 788 l 340 185 m 518 -292 q 450 -267 478 -292 q 422 -199 422 -242 q 450 -128 422 -156 q 518 -101 478 -101 q 586 -128 558 -101 q 614 -199 614 -156 q 586 -267 614 -242 q 518 -292 558 -292 z "},"Ḏ":{"ha":1147,"x_min":115,"x_max":1093,"o":"m 115 0 l 115 972 l 557 972 q 836 912 715 972 q 1025 743 957 851 q 1093 486 1093 635 q 1025 230 1093 339 q 836 60 957 121 q 557 0 715 0 l 115 0 m 340 185 l 546 185 q 715 222 643 185 q 826 326 786 258 q 865 486 865 394 q 826 647 865 579 q 715 751 786 714 q 546 788 643 788 l 340 788 l 340 185 m 261 -253 l 261 -132 l 775 -132 l 775 -253 l 261 -253 z "},"ǅ":{"ha":1901,"x_min":115,"x_max":1863,"o":"m 115 0 l 115 972 l 557 972 q 836 912 715 972 q 1025 743 957 851 q 1093 486 1093 635 q 1025 230 1093 339 q 836 60 957 121 q 557 0 715 0 l 115 0 m 340 185 l 546 185 q 715 222 643 185 q 826 326 786 258 q 865 486 865 394 q 826 647 865 579 q 715 751 786 714 q 546 788 643 788 l 340 788 l 340 185 z "},"E":{"ha":932,"x_min":115,"x_max":868,"o":"m 322 581 l 790 581 l 790 406 l 322 406 l 322 581 m 339 181 l 868 181 l 868 0 l 115 0 l 115 972 l 850 972 l 850 792 l 339 792 l 339 181 z "},"É":{"ha":932,"x_min":115,"x_max":868,"o":"m 322 581 l 790 581 l 790 406 l 322 406 l 322 581 m 339 181 l 868 181 l 868 0 l 115 0 l 115 972 l 850 972 l 850 792 l 339 792 l 339 181 z "},"Ĕ":{"ha":932,"x_min":115,"x_max":868,"o":"m 322 581 l 790 581 l 790 406 l 322 406 l 322 581 m 339 181 l 868 181 l 868 0 l 115 0 l 115 972 l 850 972 l 850 792 l 339 792 l 339 181 z "},"Ě":{"ha":932,"x_min":115,"x_max":868,"o":"m 322 581 l 790 581 l 790 406 l 322 406 l 322 581 m 339 181 l 868 181 l 868 0 l 115 0 l 115 972 l 850 972 l 850 792 l 339 792 l 339 181 z "},"Ḝ":{"ha":932,"x_min":115,"x_max":868,"o":"m 322 581 l 790 581 l 790 406 l 322 406 l 322 581 m 339 181 l 868 181 l 868 0 l 115 0 l 115 972 l 850 972 l 850 792 l 339 792 l 339 181 m 444 -322 q 374 -314 408 -322 q 315 -293 340 -306 l 349 -200 q 392 -215 369 -210 q 439 -221 414 -221 q 494 -208 478 -221 q 511 -176 511 -196 q 495 -147 511 -158 q 443 -136 479 -136 l 396 -136 l 432 11 l 547 11 l 528 -69 q 619 -109 590 -76 q 649 -185 649 -142 q 593 -285 649 -247 q 444 -322 538 -322 z "},"Ê":{"ha":932,"x_min":115,"x_max":868,"o":"m 322 581 l 790 581 l 790 406 l 322 406 l 322 581 m 339 181 l 868 181 l 868 0 l 115 0 l 115 972 l 850 972 l 850 792 l 339 792 l 339 181 z "},"Ế":{"ha":932,"x_min":115,"x_max":1025,"o":"m 322 581 l 790 581 l 790 406 l 322 406 l 322 581 m 339 181 l 868 181 l 868 0 l 115 0 l 115 972 l 850 972 l 850 792 l 339 792 l 339 181 z "},"Ệ":{"ha":932,"x_min":115,"x_max":868,"o":"m 322 581 l 790 581 l 790 406 l 322 406 l 322 581 m 339 181 l 868 181 l 868 0 l 115 0 l 115 972 l 850 972 l 850 792 l 339 792 l 339 181 m 490 -292 q 422 -267 450 -292 q 394 -199 394 -242 q 422 -128 394 -156 q 490 -101 450 -101 q 558 -128 531 -101 q 586 -199 586 -156 q 558 -267 586 -242 q 490 -292 531 -292 z "},"Ề":{"ha":932,"x_min":115,"x_max":889,"o":"m 322 581 l 790 581 l 790 406 l 322 406 l 322 581 m 339 181 l 868 181 l 868 0 l 115 0 l 115 972 l 850 972 l 850 792 l 339 792 l 339 181 z "},"Ể":{"ha":932,"x_min":115,"x_max":868,"o":"m 322 581 l 790 581 l 790 406 l 322 406 l 322 581 m 339 181 l 868 181 l 868 0 l 115 0 l 115 972 l 850 972 l 850 792 l 339 792 l 339 181 z "},"Ễ":{"ha":932,"x_min":115,"x_max":868,"o":"m 322 581 l 790 581 l 790 406 l 322 406 l 322 581 m 339 181 l 868 181 l 868 0 l 115 0 l 115 972 l 850 972 l 850 792 l 339 792 l 339 181 z "},"Ȅ":{"ha":932,"x_min":115,"x_max":868,"o":"m 322 581 l 790 581 l 790 406 l 322 406 l 322 581 m 339 181 l 868 181 l 868 0 l 115 0 l 115 972 l 850 972 l 850 792 l 339 792 l 339 181 z "},"Ë":{"ha":932,"x_min":115,"x_max":868,"o":"m 322 581 l 790 581 l 790 406 l 322 406 l 322 581 m 339 181 l 868 181 l 868 0 l 115 0 l 115 972 l 850 972 l 850 792 l 339 792 l 339 181 z "},"Ė":{"ha":932,"x_min":115,"x_max":868,"o":"m 322 581 l 790 581 l 790 406 l 322 406 l 322 581 m 339 181 l 868 181 l 868 0 l 115 0 l 115 972 l 850 972 l 850 792 l 339 792 l 339 181 z "},"Ẹ":{"ha":932,"x_min":115,"x_max":868,"o":"m 322 581 l 790 581 l 790 406 l 322 406 l 322 581 m 339 181 l 868 181 l 868 0 l 115 0 l 115 972 l 850 972 l 850 792 l 339 792 l 339 181 m 490 -292 q 422 -267 450 -292 q 394 -199 394 -242 q 422 -128 394 -156 q 490 -101 450 -101 q 558 -128 531 -101 q 586 -199 586 -156 q 558 -267 586 -242 q 490 -292 531 -292 z "},"È":{"ha":932,"x_min":115,"x_max":868,"o":"m 322 581 l 790 581 l 790 406 l 322 406 l 322 581 m 339 181 l 868 181 l 868 0 l 115 0 l 115 972 l 850 972 l 850 792 l 339 792 l 339 181 z "},"Ẻ":{"ha":932,"x_min":115,"x_max":868,"o":"m 322 581 l 790 581 l 790 406 l 322 406 l 322 581 m 339 181 l 868 181 l 868 0 l 115 0 l 115 972 l 850 972 l 850 792 l 339 792 l 339 181 z "},"Ȇ":{"ha":932,"x_min":115,"x_max":868,"o":"m 322 581 l 790 581 l 790 406 l 322 406 l 322 581 m 339 181 l 868 181 l 868 0 l 115 0 l 115 972 l 850 972 l 850 792 l 339 792 l 339 181 z "},"Ē":{"ha":932,"x_min":115,"x_max":868,"o":"m 322 581 l 790 581 l 790 406 l 322 406 l 322 581 m 339 181 l 868 181 l 868 0 l 115 0 l 115 972 l 850 972 l 850 792 l 339 792 l 339 181 z "},"Ḗ":{"ha":932,"x_min":115,"x_max":868,"o":"m 322 581 l 790 581 l 790 406 l 322 406 l 322 581 m 339 181 l 868 181 l 868 0 l 115 0 l 115 972 l 850 972 l 850 792 l 339 792 l 339 181 z "},"Ḕ":{"ha":932,"x_min":115,"x_max":868,"o":"m 322 581 l 790 581 l 790 406 l 322 406 l 322 581 m 339 181 l 868 181 l 868 0 l 115 0 l 115 972 l 850 972 l 850 792 l 339 792 l 339 181 z "},"Ę":{"ha":932,"x_min":115,"x_max":901,"o":"m 322 581 l 790 581 l 790 406 l 322 406 l 322 581 m 339 181 l 868 181 l 868 0 l 115 0 l 115 972 l 850 972 l 850 792 l 339 792 l 339 181 m 761 -322 q 620 -279 671 -322 q 569 -167 569 -236 q 592 -82 569 -122 q 663 -6 615 -42 q 782 57 710 31 l 869 0 q 774 -51 810 -26 q 723 -99 739 -75 q 707 -149 707 -122 q 728 -195 707 -178 q 786 -212 750 -212 q 832 -206 810 -212 q 871 -192 854 -200 l 901 -290 q 839 -313 876 -304 q 761 -322 801 -322 z "},"Ẽ":{"ha":932,"x_min":115,"x_max":868,"o":"m 322 581 l 790 581 l 790 406 l 322 406 l 322 581 m 339 181 l 868 181 l 868 0 l 115 0 l 115 972 l 850 972 l 850 792 l 339 792 l 339 181 z "},"Ʒ":{"ha":886,"x_min":35,"x_max":835,"o":"m 415 -17 q 206 10 308 -17 q 35 86 103 38 l 111 260 q 249 193 169 217 q 408 169 328 169 q 554 203 501 169 q 607 297 607 236 q 560 387 607 354 q 410 419 513 419 l 306 419 l 306 565 l 597 872 l 617 793 l 75 793 l 75 972 l 785 972 l 785 826 l 494 519 l 390 583 l 454 583 q 665 547 581 583 q 792 447 750 511 q 835 299 835 382 q 790 144 835 215 q 653 28 746 72 q 415 -17 561 -17 z "},"Ǯ":{"ha":886,"x_min":35,"x_max":835,"o":"m 415 -17 q 206 10 308 -17 q 35 86 103 38 l 111 260 q 249 193 169 217 q 408 169 328 169 q 554 203 501 169 q 607 297 607 236 q 560 387 607 354 q 410 419 513 419 l 306 419 l 306 565 l 597 872 l 617 793 l 75 793 l 75 972 l 785 972 l 785 826 l 494 519 l 390 583 l 454 583 q 665 547 581 583 q 792 447 750 511 q 835 299 835 382 q 790 144 835 215 q 653 28 746 72 q 415 -17 561 -17 z "},"F":{"ha":888,"x_min":115,"x_max":850,"o":"m 324 535 l 790 535 l 790 354 l 324 354 l 324 535 m 340 0 l 115 0 l 115 972 l 850 972 l 850 792 l 340 792 l 340 0 z "},"G":{"ha":1071,"x_min":54,"x_max":996,"o":"m 585 -17 q 373 20 469 -17 q 205 125 276 57 q 94 285 133 193 q 54 486 54 376 q 94 688 54 596 q 206 847 133 779 q 375 952 278 915 q 589 989 472 989 q 822 946 718 989 q 996 821 925 903 l 851 688 q 736 770 799 743 q 600 797 674 797 q 471 775 529 797 q 370 711 413 753 q 305 613 328 669 q 282 486 282 556 q 305 361 282 418 q 370 262 328 304 q 470 197 413 219 q 597 175 528 175 q 727 197 664 175 q 850 269 790 218 l 978 107 q 794 15 899 47 q 585 -17 689 -17 m 772 136 l 772 501 l 978 501 l 978 107 l 772 136 z "},"Ğ":{"ha":1071,"x_min":54,"x_max":996,"o":"m 585 -17 q 373 20 469 -17 q 205 125 276 57 q 94 285 133 193 q 54 486 54 376 q 94 688 54 596 q 206 847 133 779 q 375 952 278 915 q 589 989 472 989 q 822 946 718 989 q 996 821 925 903 l 851 688 q 736 770 799 743 q 600 797 674 797 q 471 775 529 797 q 370 711 413 753 q 305 613 328 669 q 282 486 282 556 q 305 361 282 418 q 370 262 328 304 q 470 197 413 219 q 597 175 528 175 q 727 197 664 175 q 850 269 790 218 l 978 107 q 794 15 899 47 q 585 -17 689 -17 m 772 136 l 772 501 l 978 501 l 978 107 l 772 136 z "},"Ǧ":{"ha":1071,"x_min":54,"x_max":996,"o":"m 585 -17 q 373 20 469 -17 q 205 125 276 57 q 94 285 133 193 q 54 486 54 376 q 94 688 54 596 q 206 847 133 779 q 375 952 278 915 q 589 989 472 989 q 822 946 718 989 q 996 821 925 903 l 851 688 q 736 770 799 743 q 600 797 674 797 q 471 775 529 797 q 370 711 413 753 q 305 613 328 669 q 282 486 282 556 q 305 361 282 418 q 370 262 328 304 q 470 197 413 219 q 597 175 528 175 q 727 197 664 175 q 850 269 790 218 l 978 107 q 794 15 899 47 q 585 -17 689 -17 m 772 136 l 772 501 l 978 501 l 978 107 l 772 136 z "},"Ĝ":{"ha":1071,"x_min":54,"x_max":996,"o":"m 585 -17 q 373 20 469 -17 q 205 125 276 57 q 94 285 133 193 q 54 486 54 376 q 94 688 54 596 q 206 847 133 779 q 375 952 278 915 q 589 989 472 989 q 822 946 718 989 q 996 821 925 903 l 851 688 q 736 770 799 743 q 600 797 674 797 q 471 775 529 797 q 370 711 413 753 q 305 613 328 669 q 282 486 282 556 q 305 361 282 418 q 370 262 328 304 q 470 197 413 219 q 597 175 528 175 q 727 197 664 175 q 850 269 790 218 l 978 107 q 794 15 899 47 q 585 -17 689 -17 m 772 136 l 772 501 l 978 501 l 978 107 l 772 136 z "},"Ģ":{"ha":1071,"x_min":54,"x_max":996,"o":"m 585 -17 q 373 20 469 -17 q 205 125 276 57 q 94 285 133 193 q 54 486 54 376 q 94 688 54 596 q 206 847 133 779 q 375 952 278 915 q 589 989 472 989 q 822 946 718 989 q 996 821 925 903 l 851 688 q 736 770 799 743 q 600 797 674 797 q 471 775 529 797 q 370 711 413 753 q 305 613 328 669 q 282 486 282 556 q 305 361 282 418 q 370 262 328 304 q 470 197 413 219 q 597 175 528 175 q 727 197 664 175 q 850 269 790 218 l 978 107 q 794 15 899 47 q 585 -17 689 -17 m 772 136 l 772 501 l 978 501 l 978 107 l 772 136 m 486 -369 l 542 -192 l 565 -265 q 494 -244 518 -265 q 469 -185 469 -222 q 495 -124 469 -147 q 565 -101 521 -101 q 635 -125 610 -101 q 661 -185 661 -149 q 656 -224 661 -201 q 636 -275 651 -246 l 588 -369 l 486 -369 z "},"Ġ":{"ha":1071,"x_min":54,"x_max":996,"o":"m 585 -17 q 373 20 469 -17 q 205 125 276 57 q 94 285 133 193 q 54 486 54 376 q 94 688 54 596 q 206 847 133 779 q 375 952 278 915 q 589 989 472 989 q 822 946 718 989 q 996 821 925 903 l 851 688 q 736 770 799 743 q 600 797 674 797 q 471 775 529 797 q 370 711 413 753 q 305 613 328 669 q 282 486 282 556 q 305 361 282 418 q 370 262 328 304 q 470 197 413 219 q 597 175 528 175 q 727 197 664 175 q 850 269 790 218 l 978 107 q 794 15 899 47 q 585 -17 689 -17 m 772 136 l 772 501 l 978 501 l 978 107 l 772 136 z "},"Ḡ":{"ha":1071,"x_min":54,"x_max":996,"o":"m 585 -17 q 373 20 469 -17 q 205 125 276 57 q 94 285 133 193 q 54 486 54 376 q 94 688 54 596 q 206 847 133 779 q 375 952 278 915 q 589 989 472 989 q 822 946 718 989 q 996 821 925 903 l 851 688 q 736 770 799 743 q 600 797 674 797 q 471 775 529 797 q 370 711 413 753 q 305 613 328 669 q 282 486 282 556 q 305 361 282 418 q 370 262 328 304 q 470 197 413 219 q 597 175 528 175 q 727 197 664 175 q 850 269 790 218 l 978 107 q 794 15 899 47 q 585 -17 689 -17 m 772 136 l 772 501 l 978 501 l 978 107 l 772 136 z "},"Ǥ":{"ha":1126,"x_min":54,"x_max":1100,"o":"m 546 275 l 546 424 l 1100 424 l 1100 275 l 546 275 m 585 -17 q 373 20 469 -17 q 205 125 276 57 q 94 285 133 193 q 54 486 54 376 q 94 688 54 596 q 206 847 133 779 q 375 952 278 915 q 589 989 472 989 q 822 946 718 989 q 996 821 925 903 l 851 688 q 736 770 799 743 q 600 797 674 797 q 471 775 529 797 q 370 711 413 753 q 305 613 328 669 q 282 486 282 556 q 305 361 282 418 q 370 262 328 304 q 470 197 413 219 q 597 175 528 175 q 727 197 664 175 q 850 269 790 218 l 978 107 q 794 15 899 47 q 585 -17 689 -17 m 772 136 l 772 501 l 978 501 l 978 107 l 772 136 z "},"H":{"ha":1122,"x_min":115,"x_max":1007,"o":"m 782 972 l 1007 972 l 1007 0 l 782 0 l 782 972 m 340 0 l 115 0 l 115 972 l 340 972 l 340 0 m 799 399 l 324 399 l 324 589 l 799 589 l 799 399 z "},"Ħ":{"ha":1160,"x_min":1,"x_max":1157,"o":"m 800 972 l 1025 972 l 1025 0 l 800 0 l 800 972 m 358 0 l 133 0 l 133 972 l 358 972 l 358 0 m 817 399 l 342 399 l 342 589 l 817 589 l 817 399 m 1 708 l 1 858 l 1157 858 l 1157 708 l 1 708 z "},"Ḫ":{"ha":1122,"x_min":115,"x_max":1007,"o":"m 782 972 l 1007 972 l 1007 0 l 782 0 l 782 972 m 340 0 l 115 0 l 115 972 l 340 972 l 340 0 m 799 399 l 324 399 l 324 589 l 799 589 l 799 399 m 561 -301 q 382 -247 453 -301 q 306 -103 311 -193 l 435 -103 q 472 -171 436 -146 q 561 -196 508 -196 q 651 -171 615 -196 q 688 -103 686 -146 l 817 -103 q 741 -247 813 -193 q 561 -301 669 -301 z "},"Ȟ":{"ha":1122,"x_min":115,"x_max":1007,"o":"m 782 972 l 1007 972 l 1007 0 l 782 0 l 782 972 m 340 0 l 115 0 l 115 972 l 340 972 l 340 0 m 799 399 l 324 399 l 324 589 l 799 589 l 799 399 z "},"Ĥ":{"ha":1122,"x_min":115,"x_max":1007,"o":"m 782 972 l 1007 972 l 1007 0 l 782 0 l 782 972 m 340 0 l 115 0 l 115 972 l 340 972 l 340 0 m 799 399 l 324 399 l 324 589 l 799 589 l 799 399 z "},"Ḥ":{"ha":1122,"x_min":115,"x_max":1007,"o":"m 782 972 l 1007 972 l 1007 0 l 782 0 l 782 972 m 340 0 l 115 0 l 115 972 l 340 972 l 340 0 m 799 399 l 324 399 l 324 589 l 799 589 l 799 399 m 561 -292 q 493 -267 521 -292 q 465 -199 465 -242 q 493 -128 465 -156 q 561 -101 521 -101 q 629 -128 601 -101 q 657 -199 657 -156 q 629 -267 657 -242 q 561 -292 601 -292 z "},"I":{"ha":456,"x_min":115,"x_max":340,"o":"m 115 0 l 115 972 l 340 972 l 340 0 l 115 0 z "},"Ĳ":{"ha":1006,"x_min":85,"x_max":899,"o":"m 454 -17 q 249 13 344 -17 q 85 90 154 43 l 169 260 q 307 195 233 218 q 450 172 381 172 q 617 234 561 172 q 674 426 674 296 l 674 972 l 899 972 l 899 438 q 843 189 899 290 q 688 35 788 88 q 454 -17 589 -17 m 107 447 l 107 972 l 332 972 l 332 447 l 107 447 z "},"Í":{"ha":456,"x_min":103,"x_max":522,"o":"m 115 0 l 115 972 l 340 972 l 340 0 l 115 0 z "},"Ĭ":{"ha":456,"x_min":-28,"x_max":483,"o":"m 115 0 l 115 972 l 340 972 l 340 0 l 115 0 z "},"Î":{"ha":456,"x_min":-51,"x_max":507,"o":"m 115 0 l 115 972 l 340 972 l 340 0 l 115 0 z "},"Ȉ":{"ha":456,"x_min":-136,"x_max":447,"o":"m 115 0 l 115 972 l 340 972 l 340 0 l 115 0 z "},"Ï":{"ha":456,"x_min":-10,"x_max":465,"o":"m 115 0 l 115 972 l 340 972 l 340 0 l 115 0 z "},"Ḯ":{"ha":456,"x_min":0,"x_max":483,"o":"m 115 0 l 115 972 l 340 972 l 340 0 l 115 0 z "},"İ":{"ha":456,"x_min":111,"x_max":346,"o":"m 115 0 l 115 972 l 340 972 l 340 0 l 115 0 z "},"Ị":{"ha":456,"x_min":115,"x_max":340,"o":"m 115 0 l 115 972 l 340 972 l 340 0 l 115 0 m 228 -292 q 160 -267 188 -292 q 132 -199 132 -242 q 160 -128 132 -156 q 228 -101 188 -101 q 296 -128 268 -101 q 324 -199 324 -156 q 296 -267 324 -242 q 228 -292 268 -292 z "},"Ì":{"ha":456,"x_min":-67,"x_max":354,"o":"m 115 0 l 115 972 l 340 972 l 340 0 l 115 0 z "},"Ỉ":{"ha":456,"x_min":81,"x_max":397,"o":"m 115 0 l 115 972 l 340 972 l 340 0 l 115 0 z "},"Ȋ":{"ha":456,"x_min":-28,"x_max":483,"o":"m 115 0 l 115 972 l 340 972 l 340 0 l 115 0 z "},"Ī":{"ha":456,"x_min":19,"x_max":436,"o":"m 115 0 l 115 972 l 340 972 l 340 0 l 115 0 z "},"Į":{"ha":456,"x_min":114,"x_max":383,"o":"m 115 0 l 115 972 l 340 972 l 340 0 l 115 0 m 282 -322 q 161 -280 207 -322 q 115 -168 115 -237 q 155 -45 115 -103 q 275 57 194 13 l 342 0 q 269 -78 288 -42 q 251 -147 251 -114 q 269 -194 251 -176 q 310 -212 286 -212 q 333 -209 321 -212 q 354 -199 344 -206 l 385 -293 q 282 -322 344 -322 z "},"Ĩ":{"ha":456,"x_min":-39,"x_max":494,"o":"m 115 0 l 115 972 l 340 972 l 340 0 l 115 0 z "},"J":{"ha":751,"x_min":-22,"x_max":644,"o":"m 294 -17 q 113 20 196 -17 q -22 125 31 57 l 103 275 q 188 195 143 222 q 283 168 232 168 q 421 329 421 168 l 421 792 l 79 792 l 79 972 l 644 972 l 644 342 q 556 72 644 161 q 294 -17 467 -17 z "},"Ĵ":{"ha":751,"x_min":-22,"x_max":644,"o":"m 294 -17 q 113 20 196 -17 q -22 125 31 57 l 103 275 q 188 195 143 222 q 283 168 232 168 q 421 329 421 168 l 421 792 l 79 792 l 79 972 l 644 972 l 644 342 q 556 72 644 161 q 294 -17 467 -17 z "},"K":{"ha":1028,"x_min":115,"x_max":1043,"o":"m 317 222 l 304 482 l 769 972 l 1019 972 l 600 521 l 475 388 l 317 222 m 115 0 l 115 972 l 339 972 l 339 0 l 115 0 m 781 0 l 435 424 l 582 583 l 1043 0 l 781 0 z "},"Ǩ":{"ha":1028,"x_min":115,"x_max":1043,"o":"m 317 222 l 304 482 l 769 972 l 1019 972 l 600 521 l 475 388 l 317 222 m 115 0 l 115 972 l 339 972 l 339 0 l 115 0 m 781 0 l 435 424 l 582 583 l 1043 0 l 781 0 z "},"Ķ":{"ha":1028,"x_min":115,"x_max":1043,"o":"m 317 222 l 304 482 l 769 972 l 1019 972 l 600 521 l 475 388 l 317 222 m 115 0 l 115 972 l 339 972 l 339 0 l 115 0 m 781 0 l 435 424 l 582 583 l 1043 0 l 781 0 m 447 -369 l 503 -192 l 526 -265 q 455 -244 479 -265 q 431 -185 431 -222 q 456 -124 431 -147 q 526 -101 482 -101 q 597 -125 571 -101 q 622 -185 622 -149 q 617 -224 622 -201 q 597 -275 613 -246 l 549 -369 l 447 -369 z "},"L":{"ha":839,"x_min":115,"x_max":828,"o":"m 115 0 l 115 972 l 340 972 l 340 183 l 828 183 l 828 0 l 115 0 z "},"Ǉ":{"ha":1592,"x_min":115,"x_max":1485,"o":"m 115 0 l 115 972 l 340 972 l 340 183 l 828 183 l 828 0 l 115 0 m 1133 -17 q 952 20 1035 -17 q 817 125 869 57 l 942 275 q 1026 195 982 222 q 1122 168 1071 168 q 1260 329 1260 168 l 1260 792 l 918 792 l 918 972 l 1483 972 l 1483 342 q 1394 72 1483 161 q 1133 -17 1306 -17 z "},"Ĺ":{"ha":839,"x_min":103,"x_max":828,"o":"m 115 0 l 115 972 l 340 972 l 340 183 l 828 183 l 828 0 l 115 0 z "},"Ľ":{"ha":839,"x_min":115,"x_max":828,"o":"m 115 0 l 115 972 l 340 972 l 340 183 l 828 183 l 828 0 l 115 0 m 599 750 l 599 1029 l 761 1029 l 733 750 l 599 750 z "},"Ļ":{"ha":839,"x_min":115,"x_max":828,"o":"m 115 0 l 115 972 l 340 972 l 340 183 l 828 183 l 828 0 l 115 0 m 408 -369 l 464 -192 l 488 -265 q 416 -244 440 -265 q 392 -185 392 -222 q 417 -124 392 -147 q 488 -101 443 -101 q 558 -125 532 -101 q 583 -185 583 -149 q 578 -224 583 -201 q 558 -275 574 -246 l 510 -369 l 408 -369 z "},"Ŀ":{"ha":839,"x_min":115,"x_max":828,"o":"m 115 0 l 115 972 l 340 972 l 340 183 l 828 183 l 828 0 l 115 0 m 647 457 q 563 491 597 457 q 529 578 529 525 q 563 665 529 631 q 647 699 597 699 q 732 665 699 699 q 765 578 765 631 q 732 491 765 525 q 647 457 699 457 z "},"Ḷ":{"ha":839,"x_min":115,"x_max":828,"o":"m 115 0 l 115 972 l 340 972 l 340 183 l 828 183 l 828 0 l 115 0 m 488 -292 q 419 -267 447 -292 q 392 -199 392 -242 q 419 -128 392 -156 q 488 -101 447 -101 q 556 -128 528 -101 q 583 -199 583 -156 q 556 -267 583 -242 q 488 -292 528 -292 z "},"ǈ":{"ha":1265,"x_min":115,"x_max":1192,"o":"m 115 0 l 115 972 l 340 972 l 340 183 l 828 183 l 828 0 l 115 0 z "},"Ḻ":{"ha":839,"x_min":115,"x_max":828,"o":"m 115 0 l 115 972 l 340 972 l 340 183 l 828 183 l 828 0 l 115 0 m 231 -253 l 231 -132 l 744 -132 l 744 -253 l 231 -253 z "},"Ł":{"ha":858,"x_min":-18,"x_max":846,"o":"m 133 0 l 133 972 l 358 972 l 358 183 l 846 183 l 846 0 l 133 0 m 63 314 l -18 422 l 504 814 l 585 706 l 63 314 z "},"M":{"ha":1326,"x_min":115,"x_max":1211,"o":"m 115 0 l 115 972 l 301 972 l 715 286 l 617 286 l 1024 972 l 1208 972 l 1211 0 l 1000 0 l 999 649 l 1038 649 l 713 103 l 611 103 l 279 649 l 326 649 l 326 0 l 115 0 z "},"Ṃ":{"ha":1326,"x_min":115,"x_max":1211,"o":"m 115 0 l 115 972 l 301 972 l 715 286 l 617 286 l 1024 972 l 1208 972 l 1211 0 l 1000 0 l 999 649 l 1038 649 l 713 103 l 611 103 l 279 649 l 326 649 l 326 0 l 115 0 m 663 -292 q 594 -267 622 -292 q 567 -199 567 -242 q 594 -128 567 -156 q 663 -101 622 -101 q 731 -128 703 -101 q 758 -199 758 -156 q 731 -267 758 -242 q 663 -292 703 -292 z "},"N":{"ha":1122,"x_min":115,"x_max":1007,"o":"m 115 0 l 115 972 l 301 972 l 875 272 l 785 272 l 785 972 l 1007 972 l 1007 0 l 822 0 l 247 700 l 338 700 l 338 0 l 115 0 z "},"Ǌ":{"ha":1875,"x_min":115,"x_max":1768,"o":"m 115 0 l 115 972 l 301 972 l 875 272 l 785 272 l 785 972 l 1007 972 l 1007 0 l 822 0 l 247 700 l 338 700 l 338 0 l 115 0 m 1417 -17 q 1235 20 1318 -17 q 1100 125 1153 57 l 1225 275 q 1310 195 1265 222 q 1406 168 1354 168 q 1543 329 1543 168 l 1543 792 l 1201 792 l 1201 972 l 1767 972 l 1767 342 q 1678 72 1767 161 q 1417 -17 1589 -17 z "},"Ń":{"ha":1122,"x_min":115,"x_max":1007,"o":"m 115 0 l 115 972 l 301 972 l 875 272 l 785 272 l 785 972 l 1007 972 l 1007 0 l 822 0 l 247 700 l 338 700 l 338 0 l 115 0 z "},"Ň":{"ha":1122,"x_min":115,"x_max":1007,"o":"m 115 0 l 115 972 l 301 972 l 875 272 l 785 272 l 785 972 l 1007 972 l 1007 0 l 822 0 l 247 700 l 338 700 l 338 0 l 115 0 z "},"Ņ":{"ha":1122,"x_min":115,"x_max":1007,"o":"m 115 0 l 115 972 l 301 972 l 875 272 l 785 272 l 785 972 l 1007 972 l 1007 0 l 822 0 l 247 700 l 338 700 l 338 0 l 115 0 m 482 -369 l 538 -192 l 561 -265 q 490 -244 514 -265 q 465 -185 465 -222 q 491 -124 465 -147 q 561 -101 517 -101 q 631 -125 606 -101 q 657 -185 657 -149 q 652 -224 657 -201 q 632 -275 647 -246 l 583 -369 l 482 -369 z "},"Ṅ":{"ha":1122,"x_min":115,"x_max":1007,"o":"m 115 0 l 115 972 l 301 972 l 875 272 l 785 272 l 785 972 l 1007 972 l 1007 0 l 822 0 l 247 700 l 338 700 l 338 0 l 115 0 z "},"Ṇ":{"ha":1122,"x_min":115,"x_max":1007,"o":"m 115 0 l 115 972 l 301 972 l 875 272 l 785 272 l 785 972 l 1007 972 l 1007 0 l 822 0 l 247 700 l 338 700 l 338 0 l 115 0 m 561 -292 q 493 -267 521 -292 q 465 -199 465 -242 q 493 -128 465 -156 q 561 -101 521 -101 q 629 -128 601 -101 q 657 -199 657 -156 q 629 -267 657 -242 q 561 -292 601 -292 z "},"Ŋ":{"ha":1122,"x_min":115,"x_max":1007,"o":"m 115 0 l 115 972 l 301 972 l 875 272 l 822 0 l 247 700 l 338 700 l 338 0 l 115 0 m 661 -281 q 519 -258 585 -281 q 401 -189 453 -235 l 507 -32 q 572 -79 536 -62 q 650 -96 607 -96 q 785 65 785 -96 l 785 972 l 1007 972 l 1007 99 q 919 -189 1007 -97 q 661 -281 832 -281 z "},"ǋ":{"ha":1549,"x_min":115,"x_max":1475,"o":"m 115 0 l 115 972 l 301 972 l 875 272 l 785 272 l 785 972 l 1007 972 l 1007 0 l 822 0 l 247 700 l 338 700 l 338 0 l 115 0 z "},"Ṉ":{"ha":1122,"x_min":115,"x_max":1007,"o":"m 115 0 l 115 972 l 301 972 l 875 272 l 785 272 l 785 972 l 1007 972 l 1007 0 l 822 0 l 247 700 l 338 700 l 338 0 l 115 0 m 304 -253 l 304 -132 l 818 -132 l 818 -253 l 304 -253 z "},"Ñ":{"ha":1122,"x_min":115,"x_max":1007,"o":"m 115 0 l 115 972 l 301 972 l 875 272 l 785 272 l 785 972 l 1007 972 l 1007 0 l 822 0 l 247 700 l 338 700 l 338 0 l 115 0 z "},"O":{"ha":1172,"x_min":54,"x_max":1118,"o":"m 588 -17 q 374 21 472 -17 q 205 126 276 58 q 94 286 133 194 q 54 486 54 378 q 94 686 54 594 q 206 846 133 778 q 375 951 278 914 q 586 989 472 989 q 798 951 701 989 q 966 846 894 914 q 1078 687 1038 778 q 1118 486 1118 596 q 1078 285 1118 378 q 966 126 1038 193 q 798 21 894 58 q 588 -17 701 -17 m 586 175 q 706 197 651 175 q 803 261 761 219 q 867 360 844 303 q 890 486 890 417 q 867 613 890 556 q 803 711 844 669 q 707 775 763 753 q 586 797 651 797 q 466 775 521 797 q 369 711 411 753 q 305 613 328 669 q 282 486 282 556 q 305 360 282 418 q 369 261 328 303 q 465 197 410 219 q 586 175 521 175 z "},"Ó":{"ha":1172,"x_min":54,"x_max":1118,"o":"m 588 -17 q 374 21 472 -17 q 205 126 276 58 q 94 286 133 194 q 54 486 54 378 q 94 686 54 594 q 206 846 133 778 q 375 951 278 914 q 586 989 472 989 q 798 951 701 989 q 966 846 894 914 q 1078 687 1038 778 q 1118 486 1118 596 q 1078 285 1118 378 q 966 126 1038 193 q 798 21 894 58 q 588 -17 701 -17 m 586 175 q 706 197 651 175 q 803 261 761 219 q 867 360 844 303 q 890 486 890 417 q 867 613 890 556 q 803 711 844 669 q 707 775 763 753 q 586 797 651 797 q 466 775 521 797 q 369 711 411 753 q 305 613 328 669 q 282 486 282 556 q 305 360 282 418 q 369 261 328 303 q 465 197 410 219 q 586 175 521 175 z "},"Ŏ":{"ha":1172,"x_min":54,"x_max":1118,"o":"m 588 -17 q 374 21 472 -17 q 205 126 276 58 q 94 286 133 194 q 54 486 54 378 q 94 686 54 594 q 206 846 133 778 q 375 951 278 914 q 586 989 472 989 q 798 951 701 989 q 966 846 894 914 q 1078 687 1038 778 q 1118 486 1118 596 q 1078 285 1118 378 q 966 126 1038 193 q 798 21 894 58 q 588 -17 701 -17 m 586 175 q 706 197 651 175 q 803 261 761 219 q 867 360 844 303 q 890 486 890 417 q 867 613 890 556 q 803 711 844 669 q 707 775 763 753 q 586 797 651 797 q 466 775 521 797 q 369 711 411 753 q 305 613 328 669 q 282 486 282 556 q 305 360 282 418 q 369 261 328 303 q 465 197 410 219 q 586 175 521 175 z "},"Ô":{"ha":1172,"x_min":54,"x_max":1118,"o":"m 588 -17 q 374 21 472 -17 q 205 126 276 58 q 94 286 133 194 q 54 486 54 378 q 94 686 54 594 q 206 846 133 778 q 375 951 278 914 q 586 989 472 989 q 798 951 701 989 q 966 846 894 914 q 1078 687 1038 778 q 1118 486 1118 596 q 1078 285 1118 378 q 966 126 1038 193 q 798 21 894 58 q 588 -17 701 -17 m 586 175 q 706 197 651 175 q 803 261 761 219 q 867 360 844 303 q 890 486 890 417 q 867 613 890 556 q 803 711 844 669 q 707 775 763 753 q 586 797 651 797 q 466 775 521 797 q 369 711 411 753 q 305 613 328 669 q 282 486 282 556 q 305 360 282 418 q 369 261 328 303 q 465 197 410 219 q 586 175 521 175 z "},"Ố":{"ha":1172,"x_min":54,"x_max":1128,"o":"m 588 -17 q 374 21 472 -17 q 205 126 276 58 q 94 286 133 194 q 54 486 54 378 q 94 686 54 594 q 206 846 133 778 q 375 951 278 914 q 586 989 472 989 q 798 951 701 989 q 966 846 894 914 q 1078 687 1038 778 q 1118 486 1118 596 q 1078 285 1118 378 q 966 126 1038 193 q 798 21 894 58 q 588 -17 701 -17 m 586 175 q 706 197 651 175 q 803 261 761 219 q 867 360 844 303 q 890 486 890 417 q 867 613 890 556 q 803 711 844 669 q 707 775 763 753 q 586 797 651 797 q 466 775 521 797 q 369 711 411 753 q 305 613 328 669 q 282 486 282 556 q 305 360 282 418 q 369 261 328 303 q 465 197 410 219 q 586 175 521 175 z "},"Ộ":{"ha":1172,"x_min":54,"x_max":1118,"o":"m 588 -17 q 374 21 472 -17 q 205 126 276 58 q 94 286 133 194 q 54 486 54 378 q 94 686 54 594 q 206 846 133 778 q 375 951 278 914 q 586 989 472 989 q 798 951 701 989 q 966 846 894 914 q 1078 687 1038 778 q 1118 486 1118 596 q 1078 285 1118 378 q 966 126 1038 193 q 798 21 894 58 q 588 -17 701 -17 m 586 175 q 706 197 651 175 q 803 261 761 219 q 867 360 844 303 q 890 486 890 417 q 867 613 890 556 q 803 711 844 669 q 707 775 763 753 q 586 797 651 797 q 466 775 521 797 q 369 711 411 753 q 305 613 328 669 q 282 486 282 556 q 305 360 282 418 q 369 261 328 303 q 465 197 410 219 q 586 175 521 175 m 586 -292 q 518 -267 546 -292 q 490 -199 490 -242 q 518 -128 490 -156 q 586 -101 546 -101 q 654 -128 626 -101 q 682 -199 682 -156 q 654 -267 682 -242 q 586 -292 626 -292 z "},"Ồ":{"ha":1172,"x_min":54,"x_max":1118,"o":"m 588 -17 q 374 21 472 -17 q 205 126 276 58 q 94 286 133 194 q 54 486 54 378 q 94 686 54 594 q 206 846 133 778 q 375 951 278 914 q 586 989 472 989 q 798 951 701 989 q 966 846 894 914 q 1078 687 1038 778 q 1118 486 1118 596 q 1078 285 1118 378 q 966 126 1038 193 q 798 21 894 58 q 588 -17 701 -17 m 586 175 q 706 197 651 175 q 803 261 761 219 q 867 360 844 303 q 890 486 890 417 q 867 613 890 556 q 803 711 844 669 q 707 775 763 753 q 586 797 651 797 q 466 775 521 797 q 369 711 411 753 q 305 613 328 669 q 282 486 282 556 q 305 360 282 418 q 369 261 328 303 q 465 197 410 219 q 586 175 521 175 z "},"Ổ":{"ha":1172,"x_min":54,"x_max":1118,"o":"m 588 -17 q 374 21 472 -17 q 205 126 276 58 q 94 286 133 194 q 54 486 54 378 q 94 686 54 594 q 206 846 133 778 q 375 951 278 914 q 586 989 472 989 q 798 951 701 989 q 966 846 894 914 q 1078 687 1038 778 q 1118 486 1118 596 q 1078 285 1118 378 q 966 126 1038 193 q 798 21 894 58 q 588 -17 701 -17 m 586 175 q 706 197 651 175 q 803 261 761 219 q 867 360 844 303 q 890 486 890 417 q 867 613 890 556 q 803 711 844 669 q 707 775 763 753 q 586 797 651 797 q 466 775 521 797 q 369 711 411 753 q 305 613 328 669 q 282 486 282 556 q 305 360 282 418 q 369 261 328 303 q 465 197 410 219 q 586 175 521 175 z "},"Ỗ":{"ha":1172,"x_min":54,"x_max":1118,"o":"m 588 -17 q 374 21 472 -17 q 205 126 276 58 q 94 286 133 194 q 54 486 54 378 q 94 686 54 594 q 206 846 133 778 q 375 951 278 914 q 586 989 472 989 q 798 951 701 989 q 966 846 894 914 q 1078 687 1038 778 q 1118 486 1118 596 q 1078 285 1118 378 q 966 126 1038 193 q 798 21 894 58 q 588 -17 701 -17 m 586 175 q 706 197 651 175 q 803 261 761 219 q 867 360 844 303 q 890 486 890 417 q 867 613 890 556 q 803 711 844 669 q 707 775 763 753 q 586 797 651 797 q 466 775 521 797 q 369 711 411 753 q 305 613 328 669 q 282 486 282 556 q 305 360 282 418 q 369 261 328 303 q 465 197 410 219 q 586 175 521 175 z "},"Ȍ":{"ha":1172,"x_min":54,"x_max":1118,"o":"m 588 -17 q 374 21 472 -17 q 205 126 276 58 q 94 286 133 194 q 54 486 54 378 q 94 686 54 594 q 206 846 133 778 q 375 951 278 914 q 586 989 472 989 q 798 951 701 989 q 966 846 894 914 q 1078 687 1038 778 q 1118 486 1118 596 q 1078 285 1118 378 q 966 126 1038 193 q 798 21 894 58 q 588 -17 701 -17 m 586 175 q 706 197 651 175 q 803 261 761 219 q 867 360 844 303 q 890 486 890 417 q 867 613 890 556 q 803 711 844 669 q 707 775 763 753 q 586 797 651 797 q 466 775 521 797 q 369 711 411 753 q 305 613 328 669 q 282 486 282 556 q 305 360 282 418 q 369 261 328 303 q 465 197 410 219 q 586 175 521 175 z "},"Ö":{"ha":1172,"x_min":54,"x_max":1118,"o":"m 588 -17 q 374 21 472 -17 q 205 126 276 58 q 94 286 133 194 q 54 486 54 378 q 94 686 54 594 q 206 846 133 778 q 375 951 278 914 q 586 989 472 989 q 798 951 701 989 q 966 846 894 914 q 1078 687 1038 778 q 1118 486 1118 596 q 1078 285 1118 378 q 966 126 1038 193 q 798 21 894 58 q 588 -17 701 -17 m 586 175 q 706 197 651 175 q 803 261 761 219 q 867 360 844 303 q 890 486 890 417 q 867 613 890 556 q 803 711 844 669 q 707 775 763 753 q 586 797 651 797 q 466 775 521 797 q 369 711 411 753 q 305 613 328 669 q 282 486 282 556 q 305 360 282 418 q 369 261 328 303 q 465 197 410 219 q 586 175 521 175 z "},"Ȫ":{"ha":1172,"x_min":54,"x_max":1118,"o":"m 588 -17 q 374 21 472 -17 q 205 126 276 58 q 94 286 133 194 q 54 486 54 378 q 94 686 54 594 q 206 846 133 778 q 375 951 278 914 q 586 989 472 989 q 798 951 701 989 q 966 846 894 914 q 1078 687 1038 778 q 1118 486 1118 596 q 1078 285 1118 378 q 966 126 1038 193 q 798 21 894 58 q 588 -17 701 -17 m 586 175 q 706 197 651 175 q 803 261 761 219 q 867 360 844 303 q 890 486 890 417 q 867 613 890 556 q 803 711 844 669 q 707 775 763 753 q 586 797 651 797 q 466 775 521 797 q 369 711 411 753 q 305 613 328 669 q 282 486 282 556 q 305 360 282 418 q 369 261 328 303 q 465 197 410 219 q 586 175 521 175 z "},"Ȱ":{"ha":1172,"x_min":54,"x_max":1118,"o":"m 588 -17 q 374 21 472 -17 q 205 126 276 58 q 94 286 133 194 q 54 486 54 378 q 94 686 54 594 q 206 846 133 778 q 375 951 278 914 q 586 989 472 989 q 798 951 701 989 q 966 846 894 914 q 1078 687 1038 778 q 1118 486 1118 596 q 1078 285 1118 378 q 966 126 1038 193 q 798 21 894 58 q 588 -17 701 -17 m 586 175 q 706 197 651 175 q 803 261 761 219 q 867 360 844 303 q 890 486 890 417 q 867 613 890 556 q 803 711 844 669 q 707 775 763 753 q 586 797 651 797 q 466 775 521 797 q 369 711 411 753 q 305 613 328 669 q 282 486 282 556 q 305 360 282 418 q 369 261 328 303 q 465 197 410 219 q 586 175 521 175 z "},"Ọ":{"ha":1172,"x_min":54,"x_max":1118,"o":"m 588 -17 q 374 21 472 -17 q 205 126 276 58 q 94 286 133 194 q 54 486 54 378 q 94 686 54 594 q 206 846 133 778 q 375 951 278 914 q 586 989 472 989 q 798 951 701 989 q 966 846 894 914 q 1078 687 1038 778 q 1118 486 1118 596 q 1078 285 1118 378 q 966 126 1038 193 q 798 21 894 58 q 588 -17 701 -17 m 586 175 q 706 197 651 175 q 803 261 761 219 q 867 360 844 303 q 890 486 890 417 q 867 613 890 556 q 803 711 844 669 q 707 775 763 753 q 586 797 651 797 q 466 775 521 797 q 369 711 411 753 q 305 613 328 669 q 282 486 282 556 q 305 360 282 418 q 369 261 328 303 q 465 197 410 219 q 586 175 521 175 m 586 -292 q 518 -267 546 -292 q 490 -199 490 -242 q 518 -128 490 -156 q 586 -101 546 -101 q 654 -128 626 -101 q 682 -199 682 -156 q 654 -267 682 -242 q 586 -292 626 -292 z "},"Ò":{"ha":1172,"x_min":54,"x_max":1118,"o":"m 588 -17 q 374 21 472 -17 q 205 126 276 58 q 94 286 133 194 q 54 486 54 378 q 94 686 54 594 q 206 846 133 778 q 375 951 278 914 q 586 989 472 989 q 798 951 701 989 q 966 846 894 914 q 1078 687 1038 778 q 1118 486 1118 596 q 1078 285 1118 378 q 966 126 1038 193 q 798 21 894 58 q 588 -17 701 -17 m 586 175 q 706 197 651 175 q 803 261 761 219 q 867 360 844 303 q 890 486 890 417 q 867 613 890 556 q 803 711 844 669 q 707 775 763 753 q 586 797 651 797 q 466 775 521 797 q 369 711 411 753 q 305 613 328 669 q 282 486 282 556 q 305 360 282 418 q 369 261 328 303 q 465 197 410 219 q 586 175 521 175 z "},"Ỏ":{"ha":1172,"x_min":54,"x_max":1118,"o":"m 588 -17 q 374 21 472 -17 q 205 126 276 58 q 94 286 133 194 q 54 486 54 378 q 94 686 54 594 q 206 846 133 778 q 375 951 278 914 q 586 989 472 989 q 798 951 701 989 q 966 846 894 914 q 1078 687 1038 778 q 1118 486 1118 596 q 1078 285 1118 378 q 966 126 1038 193 q 798 21 894 58 q 588 -17 701 -17 m 586 175 q 706 197 651 175 q 803 261 761 219 q 867 360 844 303 q 890 486 890 417 q 867 613 890 556 q 803 711 844 669 q 707 775 763 753 q 586 797 651 797 q 466 775 521 797 q 369 711 411 753 q 305 613 328 669 q 282 486 282 556 q 305 360 282 418 q 369 261 328 303 q 465 197 410 219 q 586 175 521 175 z "},"Ơ":{"ha":1172,"x_min":54,"x_max":1118,"o":"m 586 -17 q 374 21 472 -17 q 205 126 276 58 q 94 286 133 194 q 54 486 54 378 q 94 688 54 596 q 206 847 133 779 q 378 951 279 914 q 596 989 478 989 q 736 979 674 989 q 850 969 799 969 q 933 992 903 969 q 964 1061 964 1015 q 956 1107 964 1086 q 936 1144 947 1128 l 1064 1192 q 1097 1128 1085 1163 q 1108 1053 1108 1093 q 1037 894 1108 950 q 840 839 965 839 q 736 846 788 839 q 636 858 685 853 l 901 892 q 1014 790 965 851 q 1090 652 1063 729 q 1118 486 1118 575 q 1078 285 1118 378 q 966 126 1038 193 q 798 21 894 58 q 586 -17 701 -17 m 586 175 q 706 197 651 175 q 803 261 761 219 q 867 360 844 303 q 890 486 890 417 q 867 612 890 554 q 803 711 844 669 q 706 775 761 753 q 586 797 651 797 q 465 775 521 797 q 369 711 410 753 q 305 613 328 669 q 282 486 282 556 q 305 360 282 418 q 369 261 328 303 q 465 197 410 219 q 586 175 521 175 z "},"Ớ":{"ha":1172,"x_min":54,"x_max":1118,"o":"m 586 -17 q 374 21 472 -17 q 205 126 276 58 q 94 286 133 194 q 54 486 54 378 q 94 688 54 596 q 206 847 133 779 q 378 951 279 914 q 596 989 478 989 q 736 979 674 989 q 850 969 799 969 q 933 992 903 969 q 964 1061 964 1015 q 956 1107 964 1086 q 936 1144 947 1128 l 1064 1192 q 1097 1128 1085 1163 q 1108 1053 1108 1093 q 1037 894 1108 950 q 840 839 965 839 q 736 846 788 839 q 636 858 685 853 l 901 892 q 1014 790 965 851 q 1090 652 1063 729 q 1118 486 1118 575 q 1078 285 1118 378 q 966 126 1038 193 q 798 21 894 58 q 586 -17 701 -17 m 586 175 q 706 197 651 175 q 803 261 761 219 q 867 360 844 303 q 890 486 890 417 q 867 612 890 554 q 803 711 844 669 q 706 775 761 753 q 586 797 651 797 q 465 775 521 797 q 369 711 410 753 q 305 613 328 669 q 282 486 282 556 q 305 360 282 418 q 369 261 328 303 q 465 197 410 219 q 586 175 521 175 z "},"Ợ":{"ha":1172,"x_min":54,"x_max":1118,"o":"m 586 -17 q 374 21 472 -17 q 205 126 276 58 q 94 286 133 194 q 54 486 54 378 q 94 688 54 596 q 206 847 133 779 q 378 951 279 914 q 596 989 478 989 q 736 979 674 989 q 850 969 799 969 q 933 992 903 969 q 964 1061 964 1015 q 956 1107 964 1086 q 936 1144 947 1128 l 1064 1192 q 1097 1128 1085 1163 q 1108 1053 1108 1093 q 1037 894 1108 950 q 840 839 965 839 q 736 846 788 839 q 636 858 685 853 l 901 892 q 1014 790 965 851 q 1090 652 1063 729 q 1118 486 1118 575 q 1078 285 1118 378 q 966 126 1038 193 q 798 21 894 58 q 586 -17 701 -17 m 586 175 q 706 197 651 175 q 803 261 761 219 q 867 360 844 303 q 890 486 890 417 q 867 612 890 554 q 803 711 844 669 q 706 775 761 753 q 586 797 651 797 q 465 775 521 797 q 369 711 410 753 q 305 613 328 669 q 282 486 282 556 q 305 360 282 418 q 369 261 328 303 q 465 197 410 219 q 586 175 521 175 m 586 -292 q 518 -267 546 -292 q 490 -199 490 -242 q 518 -128 490 -156 q 586 -101 546 -101 q 654 -128 626 -101 q 682 -199 682 -156 q 654 -267 682 -242 q 586 -292 626 -292 z "},"Ờ":{"ha":1172,"x_min":54,"x_max":1118,"o":"m 586 -17 q 374 21 472 -17 q 205 126 276 58 q 94 286 133 194 q 54 486 54 378 q 94 688 54 596 q 206 847 133 779 q 378 951 279 914 q 596 989 478 989 q 736 979 674 989 q 850 969 799 969 q 933 992 903 969 q 964 1061 964 1015 q 956 1107 964 1086 q 936 1144 947 1128 l 1064 1192 q 1097 1128 1085 1163 q 1108 1053 1108 1093 q 1037 894 1108 950 q 840 839 965 839 q 736 846 788 839 q 636 858 685 853 l 901 892 q 1014 790 965 851 q 1090 652 1063 729 q 1118 486 1118 575 q 1078 285 1118 378 q 966 126 1038 193 q 798 21 894 58 q 586 -17 701 -17 m 586 175 q 706 197 651 175 q 803 261 761 219 q 867 360 844 303 q 890 486 890 417 q 867 612 890 554 q 803 711 844 669 q 706 775 761 753 q 586 797 651 797 q 465 775 521 797 q 369 711 410 753 q 305 613 328 669 q 282 486 282 556 q 305 360 282 418 q 369 261 328 303 q 465 197 410 219 q 586 175 521 175 z "},"Ở":{"ha":1172,"x_min":54,"x_max":1118,"o":"m 586 -17 q 374 21 472 -17 q 205 126 276 58 q 94 286 133 194 q 54 486 54 378 q 94 688 54 596 q 206 847 133 779 q 378 951 279 914 q 596 989 478 989 q 736 979 674 989 q 850 969 799 969 q 933 992 903 969 q 964 1061 964 1015 q 956 1107 964 1086 q 936 1144 947 1128 l 1064 1192 q 1097 1128 1085 1163 q 1108 1053 1108 1093 q 1037 894 1108 950 q 840 839 965 839 q 736 846 788 839 q 636 858 685 853 l 901 892 q 1014 790 965 851 q 1090 652 1063 729 q 1118 486 1118 575 q 1078 285 1118 378 q 966 126 1038 193 q 798 21 894 58 q 586 -17 701 -17 m 586 175 q 706 197 651 175 q 803 261 761 219 q 867 360 844 303 q 890 486 890 417 q 867 612 890 554 q 803 711 844 669 q 706 775 761 753 q 586 797 651 797 q 465 775 521 797 q 369 711 410 753 q 305 613 328 669 q 282 486 282 556 q 305 360 282 418 q 369 261 328 303 q 465 197 410 219 q 586 175 521 175 z "},"Ỡ":{"ha":1172,"x_min":54,"x_max":1118,"o":"m 586 -17 q 374 21 472 -17 q 205 126 276 58 q 94 286 133 194 q 54 486 54 378 q 94 688 54 596 q 206 847 133 779 q 378 951 279 914 q 596 989 478 989 q 736 979 674 989 q 850 969 799 969 q 933 992 903 969 q 964 1061 964 1015 q 956 1107 964 1086 q 936 1144 947 1128 l 1064 1192 q 1097 1128 1085 1163 q 1108 1053 1108 1093 q 1037 894 1108 950 q 840 839 965 839 q 736 846 788 839 q 636 858 685 853 l 901 892 q 1014 790 965 851 q 1090 652 1063 729 q 1118 486 1118 575 q 1078 285 1118 378 q 966 126 1038 193 q 798 21 894 58 q 586 -17 701 -17 m 586 175 q 706 197 651 175 q 803 261 761 219 q 867 360 844 303 q 890 486 890 417 q 867 612 890 554 q 803 711 844 669 q 706 775 761 753 q 586 797 651 797 q 465 775 521 797 q 369 711 410 753 q 305 613 328 669 q 282 486 282 556 q 305 360 282 418 q 369 261 328 303 q 465 197 410 219 q 586 175 521 175 z "},"Ő":{"ha":1172,"x_min":54,"x_max":1118,"o":"m 588 -17 q 374 21 472 -17 q 205 126 276 58 q 94 286 133 194 q 54 486 54 378 q 94 686 54 594 q 206 846 133 778 q 375 951 278 914 q 586 989 472 989 q 798 951 701 989 q 966 846 894 914 q 1078 687 1038 778 q 1118 486 1118 596 q 1078 285 1118 378 q 966 126 1038 193 q 798 21 894 58 q 588 -17 701 -17 m 586 175 q 706 197 651 175 q 803 261 761 219 q 867 360 844 303 q 890 486 890 417 q 867 613 890 556 q 803 711 844 669 q 707 775 763 753 q 586 797 651 797 q 466 775 521 797 q 369 711 411 753 q 305 613 328 669 q 282 486 282 556 q 305 360 282 418 q 369 261 328 303 q 465 197 410 219 q 586 175 521 175 z "},"Ȏ":{"ha":1172,"x_min":54,"x_max":1118,"o":"m 588 -17 q 374 21 472 -17 q 205 126 276 58 q 94 286 133 194 q 54 486 54 378 q 94 686 54 594 q 206 846 133 778 q 375 951 278 914 q 586 989 472 989 q 798 951 701 989 q 966 846 894 914 q 1078 687 1038 778 q 1118 486 1118 596 q 1078 285 1118 378 q 966 126 1038 193 q 798 21 894 58 q 588 -17 701 -17 m 586 175 q 706 197 651 175 q 803 261 761 219 q 867 360 844 303 q 890 486 890 417 q 867 613 890 556 q 803 711 844 669 q 707 775 763 753 q 586 797 651 797 q 466 775 521 797 q 369 711 411 753 q 305 613 328 669 q 282 486 282 556 q 305 360 282 418 q 369 261 328 303 q 465 197 410 219 q 586 175 521 175 z "},"Ō":{"ha":1172,"x_min":54,"x_max":1118,"o":"m 588 -17 q 374 21 472 -17 q 205 126 276 58 q 94 286 133 194 q 54 486 54 378 q 94 686 54 594 q 206 846 133 778 q 375 951 278 914 q 586 989 472 989 q 798 951 701 989 q 966 846 894 914 q 1078 687 1038 778 q 1118 486 1118 596 q 1078 285 1118 378 q 966 126 1038 193 q 798 21 894 58 q 588 -17 701 -17 m 586 175 q 706 197 651 175 q 803 261 761 219 q 867 360 844 303 q 890 486 890 417 q 867 613 890 556 q 803 711 844 669 q 707 775 763 753 q 586 797 651 797 q 466 775 521 797 q 369 711 411 753 q 305 613 328 669 q 282 486 282 556 q 305 360 282 418 q 369 261 328 303 q 465 197 410 219 q 586 175 521 175 z "},"Ṓ":{"ha":1172,"x_min":54,"x_max":1118,"o":"m 588 -17 q 374 21 472 -17 q 205 126 276 58 q 94 286 133 194 q 54 486 54 378 q 94 686 54 594 q 206 846 133 778 q 375 951 278 914 q 586 989 472 989 q 798 951 701 989 q 966 846 894 914 q 1078 687 1038 778 q 1118 486 1118 596 q 1078 285 1118 378 q 966 126 1038 193 q 798 21 894 58 q 588 -17 701 -17 m 586 175 q 706 197 651 175 q 803 261 761 219 q 867 360 844 303 q 890 486 890 417 q 867 613 890 556 q 803 711 844 669 q 707 775 763 753 q 586 797 651 797 q 466 775 521 797 q 369 711 411 753 q 305 613 328 669 q 282 486 282 556 q 305 360 282 418 q 369 261 328 303 q 465 197 410 219 q 586 175 521 175 z "},"Ṑ":{"ha":1172,"x_min":54,"x_max":1118,"o":"m 588 -17 q 374 21 472 -17 q 205 126 276 58 q 94 286 133 194 q 54 486 54 378 q 94 686 54 594 q 206 846 133 778 q 375 951 278 914 q 586 989 472 989 q 798 951 701 989 q 966 846 894 914 q 1078 687 1038 778 q 1118 486 1118 596 q 1078 285 1118 378 q 966 126 1038 193 q 798 21 894 58 q 588 -17 701 -17 m 586 175 q 706 197 651 175 q 803 261 761 219 q 867 360 844 303 q 890 486 890 417 q 867 613 890 556 q 803 711 844 669 q 707 775 763 753 q 586 797 651 797 q 466 775 521 797 q 369 711 411 753 q 305 613 328 669 q 282 486 282 556 q 305 360 282 418 q 369 261 328 303 q 465 197 410 219 q 586 175 521 175 z "},"Ǫ":{"ha":1172,"x_min":54,"x_max":1118,"o":"m 615 -322 q 474 -279 524 -322 q 424 -167 424 -236 q 445 -81 424 -122 q 515 -5 467 -40 q 636 57 563 31 l 649 -12 q 614 -15 629 -14 q 586 -17 599 -17 q 375 21 472 -17 q 206 126 278 58 q 94 285 133 193 q 54 486 54 378 q 94 688 54 596 q 206 847 133 779 q 375 951 278 914 q 586 989 472 989 q 798 951 701 989 q 966 847 894 914 q 1078 688 1038 779 q 1118 486 1118 596 q 1069 267 1118 364 q 938 104 1021 169 q 753 8 856 39 q 644 -36 688 -11 q 581 -90 601 -61 q 560 -149 560 -118 q 581 -195 560 -178 q 640 -212 603 -212 q 685 -206 663 -212 q 724 -192 707 -200 l 756 -290 q 692 -313 729 -304 q 615 -322 654 -322 m 586 175 q 706 197 651 175 q 803 261 761 219 q 867 360 844 303 q 890 486 890 418 q 867 613 890 556 q 803 711 844 669 q 706 775 761 753 q 586 797 651 797 q 465 775 521 797 q 369 711 410 753 q 305 613 328 669 q 282 486 282 556 q 305 360 282 418 q 369 261 328 303 q 465 197 410 219 q 586 175 521 175 z "},"Ø":{"ha":1172,"x_min":54,"x_max":1118,"o":"m 588 -17 q 374 21 472 -17 q 205 126 276 58 q 94 286 133 194 q 54 486 54 378 q 94 686 54 594 q 206 846 133 778 q 375 951 278 914 q 586 989 472 989 q 798 951 701 989 q 966 846 894 914 q 1078 687 1038 778 q 1118 486 1118 596 q 1078 285 1118 378 q 966 126 1038 193 q 798 21 894 58 q 588 -17 701 -17 m 586 175 q 706 197 651 175 q 803 261 761 219 q 867 360 844 303 q 890 486 890 417 q 867 613 890 556 q 803 711 844 669 q 707 775 763 753 q 586 797 651 797 q 466 775 521 797 q 369 711 411 753 q 305 613 328 669 q 282 486 282 556 q 305 360 282 418 q 369 261 328 303 q 465 197 410 219 q 586 175 521 175 m 99 -97 l 929 1069 l 1075 1069 l 244 -97 l 99 -97 z "},"Ǿ":{"ha":1172,"x_min":54,"x_max":1118,"o":"m 588 -17 q 374 21 472 -17 q 205 126 276 58 q 94 286 133 194 q 54 486 54 378 q 94 686 54 594 q 206 846 133 778 q 375 951 278 914 q 586 989 472 989 q 798 951 701 989 q 966 846 894 914 q 1078 687 1038 778 q 1118 486 1118 596 q 1078 285 1118 378 q 966 126 1038 193 q 798 21 894 58 q 588 -17 701 -17 m 586 175 q 706 197 651 175 q 803 261 761 219 q 867 360 844 303 q 890 486 890 417 q 867 613 890 556 q 803 711 844 669 q 707 775 763 753 q 586 797 651 797 q 466 775 521 797 q 369 711 411 753 q 305 613 328 669 q 282 486 282 556 q 305 360 282 418 q 369 261 328 303 q 465 197 410 219 q 586 175 521 175 m 99 -97 l 929 1069 l 1075 1069 l 244 -97 l 99 -97 z "},"Õ":{"ha":1172,"x_min":54,"x_max":1118,"o":"m 588 -17 q 374 21 472 -17 q 205 126 276 58 q 94 286 133 194 q 54 486 54 378 q 94 686 54 594 q 206 846 133 778 q 375 951 278 914 q 586 989 472 989 q 798 951 701 989 q 966 846 894 914 q 1078 687 1038 778 q 1118 486 1118 596 q 1078 285 1118 378 q 966 126 1038 193 q 798 21 894 58 q 588 -17 701 -17 m 586 175 q 706 197 651 175 q 803 261 761 219 q 867 360 844 303 q 890 486 890 417 q 867 613 890 556 q 803 711 844 669 q 707 775 763 753 q 586 797 651 797 q 466 775 521 797 q 369 711 411 753 q 305 613 328 669 q 282 486 282 556 q 305 360 282 418 q 369 261 328 303 q 465 197 410 219 q 586 175 521 175 z "},"Ṍ":{"ha":1172,"x_min":54,"x_max":1118,"o":"m 588 -17 q 374 21 472 -17 q 205 126 276 58 q 94 286 133 194 q 54 486 54 378 q 94 686 54 594 q 206 846 133 778 q 375 951 278 914 q 586 989 472 989 q 798 951 701 989 q 966 846 894 914 q 1078 687 1038 778 q 1118 486 1118 596 q 1078 285 1118 378 q 966 126 1038 193 q 798 21 894 58 q 588 -17 701 -17 m 586 175 q 706 197 651 175 q 803 261 761 219 q 867 360 844 303 q 890 486 890 417 q 867 613 890 556 q 803 711 844 669 q 707 775 763 753 q 586 797 651 797 q 466 775 521 797 q 369 711 411 753 q 305 613 328 669 q 282 486 282 556 q 305 360 282 418 q 369 261 328 303 q 465 197 410 219 q 586 175 521 175 z "},"Ṏ":{"ha":1172,"x_min":54,"x_max":1118,"o":"m 588 -17 q 374 21 472 -17 q 205 126 276 58 q 94 286 133 194 q 54 486 54 378 q 94 686 54 594 q 206 846 133 778 q 375 951 278 914 q 586 989 472 989 q 798 951 701 989 q 966 846 894 914 q 1078 687 1038 778 q 1118 486 1118 596 q 1078 285 1118 378 q 966 126 1038 193 q 798 21 894 58 q 588 -17 701 -17 m 586 175 q 706 197 651 175 q 803 261 761 219 q 867 360 844 303 q 890 486 890 417 q 867 613 890 556 q 803 711 844 669 q 707 775 763 753 q 586 797 651 797 q 466 775 521 797 q 369 711 411 753 q 305 613 328 669 q 282 486 282 556 q 305 360 282 418 q 369 261 328 303 q 465 197 410 219 q 586 175 521 175 z "},"Ȭ":{"ha":1172,"x_min":54,"x_max":1118,"o":"m 588 -17 q 374 21 472 -17 q 205 126 276 58 q 94 286 133 194 q 54 486 54 378 q 94 686 54 594 q 206 846 133 778 q 375 951 278 914 q 586 989 472 989 q 798 951 701 989 q 966 846 894 914 q 1078 687 1038 778 q 1118 486 1118 596 q 1078 285 1118 378 q 966 126 1038 193 q 798 21 894 58 q 588 -17 701 -17 m 586 175 q 706 197 651 175 q 803 261 761 219 q 867 360 844 303 q 890 486 890 417 q 867 613 890 556 q 803 711 844 669 q 707 775 763 753 q 586 797 651 797 q 466 775 521 797 q 369 711 411 753 q 305 613 328 669 q 282 486 282 556 q 305 360 282 418 q 369 261 328 303 q 465 197 410 219 q 586 175 521 175 z "},"Œ":{"ha":1578,"x_min":54,"x_max":1514,"o":"m 590 0 q 311 60 432 0 q 122 230 190 121 q 54 486 54 339 q 122 742 54 633 q 311 912 190 851 q 590 972 432 972 l 818 972 l 818 788 l 601 788 q 433 751 506 788 q 322 647 361 714 q 282 486 282 579 q 322 326 282 393 q 433 222 361 258 q 601 185 506 185 l 818 185 l 818 0 l 590 0 m 968 581 l 1436 581 l 1436 406 l 968 406 l 968 581 m 985 181 l 1514 181 l 1514 0 l 761 0 l 761 972 l 1496 972 l 1496 792 l 985 792 l 985 181 z "},"P":{"ha":1017,"x_min":115,"x_max":958,"o":"m 115 0 l 115 972 l 536 972 q 761 930 667 972 q 907 808 856 888 q 958 619 958 729 q 907 432 958 511 q 761 310 856 353 q 536 268 667 268 l 240 268 l 340 369 l 340 0 l 115 0 m 340 344 l 240 451 l 524 451 q 679 496 628 451 q 731 619 731 540 q 679 744 731 700 q 524 789 628 789 l 240 789 l 340 896 l 340 344 z "},"Þ":{"ha":1017,"x_min":115,"x_max":958,"o":"m 293 160 l 293 343 l 524 343 q 679 388 628 343 q 731 513 731 432 q 679 638 731 593 q 524 682 628 682 l 293 682 l 293 865 l 536 865 q 761 822 667 865 q 907 701 856 779 q 958 513 958 622 q 907 325 958 404 q 761 203 856 246 q 536 160 667 160 l 293 160 m 115 0 l 115 972 l 340 972 l 340 0 l 115 0 z "},"Q":{"ha":1172,"x_min":54,"x_max":1167,"o":"m 586 -17 q 374 21 472 -17 q 205 126 276 58 q 94 286 133 194 q 54 486 54 378 q 94 686 54 594 q 206 846 133 778 q 375 951 278 914 q 586 989 472 989 q 798 951 701 989 q 966 847 894 914 q 1078 688 1038 779 q 1118 486 1118 596 q 1078 285 1118 378 q 966 126 1038 193 q 798 21 894 58 q 586 -17 701 -17 m 904 -224 q 797 -211 847 -224 q 697 -171 746 -199 q 594 -96 647 -143 q 478 21 540 -49 l 714 81 q 783 -1 751 29 q 845 -44 815 -32 q 908 -57 875 -57 q 1067 15 997 -57 l 1167 -104 q 904 -224 1068 -224 m 586 175 q 706 197 651 175 q 803 261 761 219 q 867 360 844 303 q 890 486 890 418 q 867 613 890 556 q 803 711 844 669 q 706 775 761 753 q 586 797 651 797 q 465 775 521 797 q 369 711 410 753 q 305 613 328 669 q 282 486 282 556 q 305 360 282 418 q 369 261 328 303 q 465 197 410 219 q 586 175 521 175 z "},"R":{"ha":1021,"x_min":115,"x_max":976,"o":"m 115 0 l 115 972 l 536 972 q 761 930 667 972 q 907 808 856 888 q 958 619 958 729 q 907 433 958 511 q 761 313 856 354 q 536 271 667 271 l 240 271 l 340 369 l 340 0 l 115 0 m 733 0 l 490 353 l 731 353 l 976 0 l 733 0 m 340 344 l 240 450 l 524 450 q 679 495 628 450 q 731 619 731 540 q 679 744 731 700 q 524 789 628 789 l 240 789 l 340 896 l 340 344 z "},"Ŕ":{"ha":1021,"x_min":115,"x_max":976,"o":"m 115 0 l 115 972 l 536 972 q 761 930 667 972 q 907 808 856 888 q 958 619 958 729 q 907 433 958 511 q 761 313 856 354 q 536 271 667 271 l 240 271 l 340 369 l 340 0 l 115 0 m 733 0 l 490 353 l 731 353 l 976 0 l 733 0 m 340 344 l 240 450 l 524 450 q 679 495 628 450 q 731 619 731 540 q 679 744 731 700 q 524 789 628 789 l 240 789 l 340 896 l 340 344 z "},"Ř":{"ha":1021,"x_min":115,"x_max":976,"o":"m 115 0 l 115 972 l 536 972 q 761 930 667 972 q 907 808 856 888 q 958 619 958 729 q 907 433 958 511 q 761 313 856 354 q 536 271 667 271 l 240 271 l 340 369 l 340 0 l 115 0 m 733 0 l 490 353 l 731 353 l 976 0 l 733 0 m 340 344 l 240 450 l 524 450 q 679 495 628 450 q 731 619 731 540 q 679 744 731 700 q 524 789 628 789 l 240 789 l 340 896 l 340 344 z "},"Ŗ":{"ha":1021,"x_min":115,"x_max":976,"o":"m 115 0 l 115 972 l 536 972 q 761 930 667 972 q 907 808 856 888 q 958 619 958 729 q 907 433 958 511 q 761 313 856 354 q 536 271 667 271 l 240 271 l 340 369 l 340 0 l 115 0 m 733 0 l 490 353 l 731 353 l 976 0 l 733 0 m 340 344 l 240 450 l 524 450 q 679 495 628 450 q 731 619 731 540 q 679 744 731 700 q 524 789 628 789 l 240 789 l 340 896 l 340 344 m 442 -369 l 497 -192 l 521 -265 q 449 -244 474 -265 q 425 -185 425 -222 q 451 -124 425 -147 q 521 -101 476 -101 q 591 -125 565 -101 q 617 -185 617 -149 q 612 -224 617 -201 q 592 -275 607 -246 l 543 -369 l 442 -369 z "},"Ȑ":{"ha":1021,"x_min":115,"x_max":976,"o":"m 115 0 l 115 972 l 536 972 q 761 930 667 972 q 907 808 856 888 q 958 619 958 729 q 907 433 958 511 q 761 313 856 354 q 536 271 667 271 l 240 271 l 340 369 l 340 0 l 115 0 m 733 0 l 490 353 l 731 353 l 976 0 l 733 0 m 340 344 l 240 450 l 524 450 q 679 495 628 450 q 731 619 731 540 q 679 744 731 700 q 524 789 628 789 l 240 789 l 340 896 l 340 344 z "},"Ṛ":{"ha":1021,"x_min":115,"x_max":976,"o":"m 115 0 l 115 972 l 536 972 q 761 930 667 972 q 907 808 856 888 q 958 619 958 729 q 907 433 958 511 q 761 313 856 354 q 536 271 667 271 l 240 271 l 340 369 l 340 0 l 115 0 m 733 0 l 490 353 l 731 353 l 976 0 l 733 0 m 340 344 l 240 450 l 524 450 q 679 495 628 450 q 731 619 731 540 q 679 744 731 700 q 524 789 628 789 l 240 789 l 340 896 l 340 344 m 521 -292 q 453 -267 481 -292 q 425 -199 425 -242 q 453 -128 425 -156 q 521 -101 481 -101 q 589 -128 561 -101 q 617 -199 617 -156 q 589 -267 617 -242 q 521 -292 561 -292 z "},"Ȓ":{"ha":1021,"x_min":115,"x_max":976,"o":"m 115 0 l 115 972 l 536 972 q 761 930 667 972 q 907 808 856 888 q 958 619 958 729 q 907 433 958 511 q 761 313 856 354 q 536 271 667 271 l 240 271 l 340 369 l 340 0 l 115 0 m 733 0 l 490 353 l 731 353 l 976 0 l 733 0 m 340 344 l 240 450 l 524 450 q 679 495 628 450 q 731 619 731 540 q 679 744 731 700 q 524 789 628 789 l 240 789 l 340 896 l 340 344 z "},"Ṟ":{"ha":1021,"x_min":115,"x_max":976,"o":"m 115 0 l 115 972 l 536 972 q 761 930 667 972 q 907 808 856 888 q 958 619 958 729 q 907 433 958 511 q 761 313 856 354 q 536 271 667 271 l 240 271 l 340 369 l 340 0 l 115 0 m 733 0 l 490 353 l 731 353 l 976 0 l 733 0 m 340 344 l 240 450 l 524 450 q 679 495 628 450 q 731 619 731 540 q 679 744 731 700 q 524 789 628 789 l 240 789 l 340 896 l 340 344 m 264 -253 l 264 -132 l 778 -132 l 778 -253 l 264 -253 z "},"S":{"ha":886,"x_min":39,"x_max":847,"o":"m 435 -17 q 211 15 318 -17 q 39 96 104 46 l 115 265 q 263 192 178 221 q 436 164 349 164 q 544 177 503 164 q 604 214 585 190 q 624 268 624 238 q 593 330 624 307 q 513 367 563 353 q 402 395 463 382 q 281 428 342 408 q 171 478 221 447 q 90 558 121 508 q 58 686 58 608 q 103 838 58 769 q 240 948 149 907 q 468 989 331 989 q 649 967 560 989 q 806 903 738 946 l 736 732 q 600 790 668 771 q 467 808 532 808 q 360 793 401 808 q 300 753 318 778 q 282 697 282 729 q 313 637 282 660 q 393 600 343 614 q 503 572 443 586 q 624 540 564 558 q 735 492 685 522 q 816 411 785 461 q 847 285 847 361 q 801 135 847 203 q 665 25 756 67 q 435 -17 574 -17 z "},"Ś":{"ha":886,"x_min":39,"x_max":847,"o":"m 435 -17 q 211 15 318 -17 q 39 96 104 46 l 115 265 q 263 192 178 221 q 436 164 349 164 q 544 177 503 164 q 604 214 585 190 q 624 268 624 238 q 593 330 624 307 q 513 367 563 353 q 402 395 463 382 q 281 428 342 408 q 171 478 221 447 q 90 558 121 508 q 58 686 58 608 q 103 838 58 769 q 240 948 149 907 q 468 989 331 989 q 649 967 560 989 q 806 903 738 946 l 736 732 q 600 790 668 771 q 467 808 532 808 q 360 793 401 808 q 300 753 318 778 q 282 697 282 729 q 313 637 282 660 q 393 600 343 614 q 503 572 443 586 q 624 540 564 558 q 735 492 685 522 q 816 411 785 461 q 847 285 847 361 q 801 135 847 203 q 665 25 756 67 q 435 -17 574 -17 z "},"Ṥ":{"ha":886,"x_min":39,"x_max":847,"o":"m 435 -17 q 211 15 318 -17 q 39 96 104 46 l 115 265 q 263 192 178 221 q 436 164 349 164 q 544 177 503 164 q 604 214 585 190 q 624 268 624 238 q 593 330 624 307 q 513 367 563 353 q 402 395 463 382 q 281 428 342 408 q 171 478 221 447 q 90 558 121 508 q 58 686 58 608 q 103 838 58 769 q 240 948 149 907 q 468 989 331 989 q 649 967 560 989 q 806 903 738 946 l 736 732 q 600 790 668 771 q 467 808 532 808 q 360 793 401 808 q 300 753 318 778 q 282 697 282 729 q 313 637 282 660 q 393 600 343 614 q 503 572 443 586 q 624 540 564 558 q 735 492 685 522 q 816 411 785 461 q 847 285 847 361 q 801 135 847 203 q 665 25 756 67 q 435 -17 574 -17 z "},"Ꞌ":{"ha":413,"x_min":94,"x_max":317,"o":"m 94 413 l 94 972 l 317 972 l 289 413 l 94 413 z "},"Š":{"ha":886,"x_min":39,"x_max":847,"o":"m 435 -17 q 211 15 318 -17 q 39 96 104 46 l 115 265 q 263 192 178 221 q 436 164 349 164 q 544 177 503 164 q 604 214 585 190 q 624 268 624 238 q 593 330 624 307 q 513 367 563 353 q 402 395 463 382 q 281 428 342 408 q 171 478 221 447 q 90 558 121 508 q 58 686 58 608 q 103 838 58 769 q 240 948 149 907 q 468 989 331 989 q 649 967 560 989 q 806 903 738 946 l 736 732 q 600 790 668 771 q 467 808 532 808 q 360 793 401 808 q 300 753 318 778 q 282 697 282 729 q 313 637 282 660 q 393 600 343 614 q 503 572 443 586 q 624 540 564 558 q 735 492 685 522 q 816 411 785 461 q 847 285 847 361 q 801 135 847 203 q 665 25 756 67 q 435 -17 574 -17 z "},"Ṧ":{"ha":886,"x_min":39,"x_max":847,"o":"m 435 -17 q 211 15 318 -17 q 39 96 104 46 l 115 265 q 263 192 178 221 q 436 164 349 164 q 544 177 503 164 q 604 214 585 190 q 624 268 624 238 q 593 330 624 307 q 513 367 563 353 q 402 395 463 382 q 281 428 342 408 q 171 478 221 447 q 90 558 121 508 q 58 686 58 608 q 103 838 58 769 q 240 948 149 907 q 468 989 331 989 q 649 967 560 989 q 806 903 738 946 l 736 732 q 600 790 668 771 q 467 808 532 808 q 360 793 401 808 q 300 753 318 778 q 282 697 282 729 q 313 637 282 660 q 393 600 343 614 q 503 572 443 586 q 624 540 564 558 q 735 492 685 522 q 816 411 785 461 q 847 285 847 361 q 801 135 847 203 q 665 25 756 67 q 435 -17 574 -17 z "},"Ş":{"ha":886,"x_min":39,"x_max":847,"o":"m 435 -17 q 211 15 318 -17 q 39 96 104 46 l 115 265 q 263 192 178 221 q 436 164 349 164 q 544 177 503 164 q 604 214 585 190 q 624 268 624 238 q 593 330 624 307 q 513 367 563 353 q 402 395 463 382 q 281 428 342 408 q 171 478 221 447 q 90 558 121 508 q 58 686 58 608 q 103 838 58 769 q 240 948 149 907 q 468 989 331 989 q 649 967 560 989 q 806 903 738 946 l 736 732 q 600 790 668 771 q 467 808 532 808 q 360 793 401 808 q 300 753 318 778 q 282 697 282 729 q 313 637 282 660 q 393 600 343 614 q 503 572 443 586 q 624 540 564 558 q 735 492 685 522 q 816 411 785 461 q 847 285 847 361 q 801 135 847 203 q 665 25 756 67 q 435 -17 574 -17 m 406 -322 q 335 -314 369 -322 q 276 -293 301 -306 l 310 -200 q 353 -215 331 -210 q 400 -221 375 -221 q 456 -208 439 -221 q 472 -176 472 -196 q 456 -147 472 -158 q 404 -136 440 -136 l 357 -136 l 393 11 l 508 11 l 489 -69 q 581 -109 551 -76 q 610 -185 610 -142 q 554 -285 610 -247 q 406 -322 499 -322 z "},"Ŝ":{"ha":886,"x_min":39,"x_max":847,"o":"m 435 -17 q 211 15 318 -17 q 39 96 104 46 l 115 265 q 263 192 178 221 q 436 164 349 164 q 544 177 503 164 q 604 214 585 190 q 624 268 624 238 q 593 330 624 307 q 513 367 563 353 q 402 395 463 382 q 281 428 342 408 q 171 478 221 447 q 90 558 121 508 q 58 686 58 608 q 103 838 58 769 q 240 948 149 907 q 468 989 331 989 q 649 967 560 989 q 806 903 738 946 l 736 732 q 600 790 668 771 q 467 808 532 808 q 360 793 401 808 q 300 753 318 778 q 282 697 282 729 q 313 637 282 660 q 393 600 343 614 q 503 572 443 586 q 624 540 564 558 q 735 492 685 522 q 816 411 785 461 q 847 285 847 361 q 801 135 847 203 q 665 25 756 67 q 435 -17 574 -17 z "},"Ș":{"ha":886,"x_min":39,"x_max":847,"o":"m 435 -17 q 211 15 318 -17 q 39 96 104 46 l 115 265 q 263 192 178 221 q 436 164 349 164 q 544 177 503 164 q 604 214 585 190 q 624 268 624 238 q 593 330 624 307 q 513 367 563 353 q 402 395 463 382 q 281 428 342 408 q 171 478 221 447 q 90 558 121 508 q 58 686 58 608 q 103 838 58 769 q 240 948 149 907 q 468 989 331 989 q 649 967 560 989 q 806 903 738 946 l 736 732 q 600 790 668 771 q 467 808 532 808 q 360 793 401 808 q 300 753 318 778 q 282 697 282 729 q 313 637 282 660 q 393 600 343 614 q 503 572 443 586 q 624 540 564 558 q 735 492 685 522 q 816 411 785 461 q 847 285 847 361 q 801 135 847 203 q 665 25 756 67 q 435 -17 574 -17 m 372 -369 l 428 -192 l 451 -265 q 380 -244 404 -265 q 356 -185 356 -222 q 381 -124 356 -147 q 451 -101 407 -101 q 522 -125 496 -101 q 547 -185 547 -149 q 542 -224 547 -201 q 522 -275 538 -246 l 474 -369 l 372 -369 z "},"Ṡ":{"ha":886,"x_min":39,"x_max":847,"o":"m 435 -17 q 211 15 318 -17 q 39 96 104 46 l 115 265 q 263 192 178 221 q 436 164 349 164 q 544 177 503 164 q 604 214 585 190 q 624 268 624 238 q 593 330 624 307 q 513 367 563 353 q 402 395 463 382 q 281 428 342 408 q 171 478 221 447 q 90 558 121 508 q 58 686 58 608 q 103 838 58 769 q 240 948 149 907 q 468 989 331 989 q 649 967 560 989 q 806 903 738 946 l 736 732 q 600 790 668 771 q 467 808 532 808 q 360 793 401 808 q 300 753 318 778 q 282 697 282 729 q 313 637 282 660 q 393 600 343 614 q 503 572 443 586 q 624 540 564 558 q 735 492 685 522 q 816 411 785 461 q 847 285 847 361 q 801 135 847 203 q 665 25 756 67 q 435 -17 574 -17 z "},"Ṣ":{"ha":886,"x_min":39,"x_max":847,"o":"m 435 -17 q 211 15 318 -17 q 39 96 104 46 l 115 265 q 263 192 178 221 q 436 164 349 164 q 544 177 503 164 q 604 214 585 190 q 624 268 624 238 q 593 330 624 307 q 513 367 563 353 q 402 395 463 382 q 281 428 342 408 q 171 478 221 447 q 90 558 121 508 q 58 686 58 608 q 103 838 58 769 q 240 948 149 907 q 468 989 331 989 q 649 967 560 989 q 806 903 738 946 l 736 732 q 600 790 668 771 q 467 808 532 808 q 360 793 401 808 q 300 753 318 778 q 282 697 282 729 q 313 637 282 660 q 393 600 343 614 q 503 572 443 586 q 624 540 564 558 q 735 492 685 522 q 816 411 785 461 q 847 285 847 361 q 801 135 847 203 q 665 25 756 67 q 435 -17 574 -17 m 451 -292 q 383 -267 411 -292 q 356 -199 356 -242 q 383 -128 356 -156 q 451 -101 411 -101 q 519 -128 492 -101 q 547 -199 547 -156 q 519 -267 547 -242 q 451 -292 492 -292 z "},"Ṩ":{"ha":886,"x_min":39,"x_max":847,"o":"m 435 -17 q 211 15 318 -17 q 39 96 104 46 l 115 265 q 263 192 178 221 q 436 164 349 164 q 544 177 503 164 q 604 214 585 190 q 624 268 624 238 q 593 330 624 307 q 513 367 563 353 q 402 395 463 382 q 281 428 342 408 q 171 478 221 447 q 90 558 121 508 q 58 686 58 608 q 103 838 58 769 q 240 948 149 907 q 468 989 331 989 q 649 967 560 989 q 806 903 738 946 l 736 732 q 600 790 668 771 q 467 808 532 808 q 360 793 401 808 q 300 753 318 778 q 282 697 282 729 q 313 637 282 660 q 393 600 343 614 q 503 572 443 586 q 624 540 564 558 q 735 492 685 522 q 816 411 785 461 q 847 285 847 361 q 801 135 847 203 q 665 25 756 67 q 435 -17 574 -17 m 451 -292 q 383 -267 411 -292 q 356 -199 356 -242 q 383 -128 356 -156 q 451 -101 411 -101 q 519 -128 492 -101 q 547 -199 547 -156 q 519 -267 547 -242 q 451 -292 492 -292 z "},"ẞ":{"ha":1082,"x_min":107,"x_max":1028,"o":"m 663 -17 q 553 -8 604 -17 q 460 17 503 0 l 493 194 q 560 172 522 181 q 635 164 597 164 q 757 197 714 164 q 800 296 800 231 q 756 393 800 360 q 636 426 713 426 q 582 422 608 426 q 533 411 556 418 l 494 510 l 817 881 l 838 733 q 722 790 783 771 q 590 808 661 808 q 397 738 463 808 q 332 539 332 668 l 332 0 l 107 0 l 107 544 q 163 781 107 682 q 325 935 218 881 q 583 989 432 989 q 708 978 644 989 q 829 947 771 968 q 931 896 888 926 l 931 758 l 664 454 l 574 578 q 624 586 597 583 q 679 589 650 589 q 853 553 774 589 q 981 451 933 518 q 1028 286 1028 383 q 981 122 1028 189 q 851 19 933 54 q 663 -17 768 -17 z "},"Ə":{"ha":1135,"x_min":54,"x_max":1081,"o":"m 568 -17 q 363 21 457 -17 q 199 126 268 58 q 92 289 131 194 q 54 496 54 383 l 54 543 l 878 543 l 878 390 l 208 390 l 281 464 q 301 339 281 394 q 358 244 321 283 q 449 183 396 204 q 568 163 501 163 q 688 183 635 163 q 777 244 740 204 q 833 338 814 283 q 853 460 853 392 l 853 496 q 830 617 853 561 q 767 713 807 672 q 671 775 726 753 q 551 797 615 797 q 450 785 501 797 q 352 747 399 772 q 269 683 306 722 l 135 829 q 247 913 181 876 q 390 969 313 949 q 553 989 468 989 q 765 952 668 989 q 933 847 861 915 q 1042 688 1004 779 q 1081 488 1081 596 q 1042 285 1081 376 q 935 126 1004 193 q 772 21 865 58 q 568 -17 679 -17 z "},"T":{"ha":858,"x_min":6,"x_max":853,"o":"m 317 0 l 317 789 l 6 789 l 6 972 l 853 972 l 853 789 l 542 789 l 542 0 l 317 0 z "},"Ŧ":{"ha":858,"x_min":6,"x_max":853,"o":"m 317 0 l 317 789 l 6 789 l 6 972 l 853 972 l 853 789 l 542 789 l 542 0 l 317 0 m 129 381 l 129 531 l 729 531 l 729 381 l 129 381 z "},"Ť":{"ha":858,"x_min":6,"x_max":853,"o":"m 317 0 l 317 789 l 6 789 l 6 972 l 853 972 l 853 789 l 542 789 l 542 0 l 317 0 z "},"Ţ":{"ha":858,"x_min":6,"x_max":853,"o":"m 317 0 l 317 789 l 6 789 l 6 972 l 853 972 l 853 789 l 542 789 l 542 0 l 317 0 m 383 -322 q 313 -314 347 -322 q 254 -293 279 -306 l 288 -200 q 331 -215 308 -210 q 378 -221 353 -221 q 433 -208 417 -221 q 450 -176 450 -196 q 434 -147 450 -158 q 382 -136 418 -136 l 335 -136 l 371 11 l 486 11 l 467 -69 q 558 -109 529 -76 q 588 -185 588 -142 q 532 -285 588 -247 q 383 -322 476 -322 z "},"Ț":{"ha":858,"x_min":6,"x_max":853,"o":"m 317 0 l 317 789 l 6 789 l 6 972 l 853 972 l 853 789 l 542 789 l 542 0 l 317 0 m 350 -369 l 406 -192 l 429 -265 q 358 -244 382 -265 q 333 -185 333 -222 q 359 -124 333 -147 q 429 -101 385 -101 q 499 -125 474 -101 q 525 -185 525 -149 q 520 -224 525 -201 q 500 -275 515 -246 l 451 -369 l 350 -369 z "},"Ṭ":{"ha":858,"x_min":6,"x_max":853,"o":"m 317 0 l 317 789 l 6 789 l 6 972 l 853 972 l 853 789 l 542 789 l 542 0 l 317 0 m 429 -292 q 361 -267 389 -292 q 333 -199 333 -242 q 361 -128 333 -156 q 429 -101 389 -101 q 497 -128 469 -101 q 525 -199 525 -156 q 497 -267 525 -242 q 429 -292 469 -292 z "},"Ṯ":{"ha":858,"x_min":6,"x_max":853,"o":"m 317 0 l 317 789 l 6 789 l 6 972 l 853 972 l 853 789 l 542 789 l 542 0 l 317 0 m 172 -253 l 172 -132 l 686 -132 l 686 -253 l 172 -253 z "},"U":{"ha":1094,"x_min":107,"x_max":988,"o":"m 547 -17 q 224 99 340 -17 q 107 428 107 214 l 107 972 l 332 972 l 332 436 q 389 236 332 297 q 549 175 446 175 q 708 236 651 175 q 765 436 765 297 l 765 972 l 988 972 l 988 428 q 871 99 988 214 q 547 -17 754 -17 z "},"Ú":{"ha":1094,"x_min":107,"x_max":988,"o":"m 547 -17 q 224 99 340 -17 q 107 428 107 214 l 107 972 l 332 972 l 332 436 q 389 236 332 297 q 549 175 446 175 q 708 236 651 175 q 765 436 765 297 l 765 972 l 988 972 l 988 428 q 871 99 988 214 q 547 -17 754 -17 z "},"Ŭ":{"ha":1094,"x_min":107,"x_max":988,"o":"m 547 -17 q 224 99 340 -17 q 107 428 107 214 l 107 972 l 332 972 l 332 436 q 389 236 332 297 q 549 175 446 175 q 708 236 651 175 q 765 436 765 297 l 765 972 l 988 972 l 988 428 q 871 99 988 214 q 547 -17 754 -17 z "},"Ǔ":{"ha":1094,"x_min":107,"x_max":988,"o":"m 547 -17 q 224 99 340 -17 q 107 428 107 214 l 107 972 l 332 972 l 332 436 q 389 236 332 297 q 549 175 446 175 q 708 236 651 175 q 765 436 765 297 l 765 972 l 988 972 l 988 428 q 871 99 988 214 q 547 -17 754 -17 z "},"Û":{"ha":1094,"x_min":107,"x_max":988,"o":"m 547 -17 q 224 99 340 -17 q 107 428 107 214 l 107 972 l 332 972 l 332 436 q 389 236 332 297 q 549 175 446 175 q 708 236 651 175 q 765 436 765 297 l 765 972 l 988 972 l 988 428 q 871 99 988 214 q 547 -17 754 -17 z "},"Ȕ":{"ha":1094,"x_min":107,"x_max":988,"o":"m 547 -17 q 224 99 340 -17 q 107 428 107 214 l 107 972 l 332 972 l 332 436 q 389 236 332 297 q 549 175 446 175 q 708 236 651 175 q 765 436 765 297 l 765 972 l 988 972 l 988 428 q 871 99 988 214 q 547 -17 754 -17 z "},"Ü":{"ha":1094,"x_min":107,"x_max":988,"o":"m 547 -17 q 224 99 340 -17 q 107 428 107 214 l 107 972 l 332 972 l 332 436 q 389 236 332 297 q 549 175 446 175 q 708 236 651 175 q 765 436 765 297 l 765 972 l 988 972 l 988 428 q 871 99 988 214 q 547 -17 754 -17 z "},"Ụ":{"ha":1094,"x_min":107,"x_max":988,"o":"m 547 -17 q 224 99 340 -17 q 107 428 107 214 l 107 972 l 332 972 l 332 436 q 389 236 332 297 q 549 175 446 175 q 708 236 651 175 q 765 436 765 297 l 765 972 l 988 972 l 988 428 q 871 99 988 214 q 547 -17 754 -17 m 549 -292 q 481 -267 508 -292 q 453 -199 453 -242 q 481 -128 453 -156 q 549 -101 508 -101 q 617 -128 589 -101 q 644 -199 644 -156 q 617 -267 644 -242 q 549 -292 589 -292 z "},"Ù":{"ha":1094,"x_min":107,"x_max":988,"o":"m 547 -17 q 224 99 340 -17 q 107 428 107 214 l 107 972 l 332 972 l 332 436 q 389 236 332 297 q 549 175 446 175 q 708 236 651 175 q 765 436 765 297 l 765 972 l 988 972 l 988 428 q 871 99 988 214 q 547 -17 754 -17 z "},"Ủ":{"ha":1094,"x_min":107,"x_max":988,"o":"m 547 -17 q 224 99 340 -17 q 107 428 107 214 l 107 972 l 332 972 l 332 436 q 389 236 332 297 q 549 175 446 175 q 708 236 651 175 q 765 436 765 297 l 765 972 l 988 972 l 988 428 q 871 99 988 214 q 547 -17 754 -17 z "},"Ư":{"ha":1113,"x_min":107,"x_max":1138,"o":"m 547 -17 q 224 99 340 -17 q 107 428 107 214 l 107 972 l 332 972 l 332 436 q 389 236 332 297 q 549 175 446 175 q 708 236 651 175 q 765 436 765 297 l 765 972 l 988 972 l 988 428 q 871 99 988 214 q 547 -17 754 -17 m 872 828 l 872 972 l 910 972 q 971 997 949 972 q 993 1060 993 1021 q 985 1106 993 1085 q 965 1143 978 1128 l 1093 1190 q 1126 1128 1114 1163 q 1138 1051 1138 1093 q 1076 888 1138 947 q 904 828 1014 828 l 872 828 z "},"Ứ":{"ha":1113,"x_min":107,"x_max":1138,"o":"m 547 -17 q 224 99 340 -17 q 107 428 107 214 l 107 972 l 332 972 l 332 436 q 389 236 332 297 q 549 175 446 175 q 708 236 651 175 q 765 436 765 297 l 765 972 l 988 972 l 988 428 q 871 99 988 214 q 547 -17 754 -17 m 872 828 l 872 972 l 910 972 q 971 997 949 972 q 993 1060 993 1021 q 985 1106 993 1085 q 965 1143 978 1128 l 1093 1190 q 1126 1128 1114 1163 q 1138 1051 1138 1093 q 1076 888 1138 947 q 904 828 1014 828 l 872 828 z "},"Ự":{"ha":1113,"x_min":107,"x_max":1138,"o":"m 547 -17 q 224 99 340 -17 q 107 428 107 214 l 107 972 l 332 972 l 332 436 q 389 236 332 297 q 549 175 446 175 q 708 236 651 175 q 765 436 765 297 l 765 972 l 988 972 l 988 428 q 871 99 988 214 q 547 -17 754 -17 m 872 828 l 872 972 l 910 972 q 971 997 949 972 q 993 1060 993 1021 q 985 1106 993 1085 q 965 1143 978 1128 l 1093 1190 q 1126 1128 1114 1163 q 1138 1051 1138 1093 q 1076 888 1138 947 q 904 828 1014 828 l 872 828 m 549 -292 q 481 -267 508 -292 q 453 -199 453 -242 q 481 -128 453 -156 q 549 -101 508 -101 q 617 -128 589 -101 q 644 -199 644 -156 q 617 -267 644 -242 q 549 -292 589 -292 z "},"Ừ":{"ha":1113,"x_min":107,"x_max":1138,"o":"m 547 -17 q 224 99 340 -17 q 107 428 107 214 l 107 972 l 332 972 l 332 436 q 389 236 332 297 q 549 175 446 175 q 708 236 651 175 q 765 436 765 297 l 765 972 l 988 972 l 988 428 q 871 99 988 214 q 547 -17 754 -17 m 872 828 l 872 972 l 910 972 q 971 997 949 972 q 993 1060 993 1021 q 985 1106 993 1085 q 965 1143 978 1128 l 1093 1190 q 1126 1128 1114 1163 q 1138 1051 1138 1093 q 1076 888 1138 947 q 904 828 1014 828 l 872 828 z "},"Ử":{"ha":1113,"x_min":107,"x_max":1138,"o":"m 547 -17 q 224 99 340 -17 q 107 428 107 214 l 107 972 l 332 972 l 332 436 q 389 236 332 297 q 549 175 446 175 q 708 236 651 175 q 765 436 765 297 l 765 972 l 988 972 l 988 428 q 871 99 988 214 q 547 -17 754 -17 m 872 828 l 872 972 l 910 972 q 971 997 949 972 q 993 1060 993 1021 q 985 1106 993 1085 q 965 1143 978 1128 l 1093 1190 q 1126 1128 1114 1163 q 1138 1051 1138 1093 q 1076 888 1138 947 q 904 828 1014 828 l 872 828 z "},"Ữ":{"ha":1113,"x_min":107,"x_max":1138,"o":"m 547 -17 q 224 99 340 -17 q 107 428 107 214 l 107 972 l 332 972 l 332 436 q 389 236 332 297 q 549 175 446 175 q 708 236 651 175 q 765 436 765 297 l 765 972 l 988 972 l 988 428 q 871 99 988 214 q 547 -17 754 -17 m 872 828 l 872 972 l 910 972 q 971 997 949 972 q 993 1060 993 1021 q 985 1106 993 1085 q 965 1143 978 1128 l 1093 1190 q 1126 1128 1114 1163 q 1138 1051 1138 1093 q 1076 888 1138 947 q 904 828 1014 828 l 872 828 z "},"Ű":{"ha":1094,"x_min":107,"x_max":988,"o":"m 547 -17 q 224 99 340 -17 q 107 428 107 214 l 107 972 l 332 972 l 332 436 q 389 236 332 297 q 549 175 446 175 q 708 236 651 175 q 765 436 765 297 l 765 972 l 988 972 l 988 428 q 871 99 988 214 q 547 -17 754 -17 z "},"Ȗ":{"ha":1094,"x_min":107,"x_max":988,"o":"m 547 -17 q 224 99 340 -17 q 107 428 107 214 l 107 972 l 332 972 l 332 436 q 389 236 332 297 q 549 175 446 175 q 708 236 651 175 q 765 436 765 297 l 765 972 l 988 972 l 988 428 q 871 99 988 214 q 547 -17 754 -17 z "},"Ū":{"ha":1094,"x_min":107,"x_max":988,"o":"m 547 -17 q 224 99 340 -17 q 107 428 107 214 l 107 972 l 332 972 l 332 436 q 389 236 332 297 q 549 175 446 175 q 708 236 651 175 q 765 436 765 297 l 765 972 l 988 972 l 988 428 q 871 99 988 214 q 547 -17 754 -17 z "},"Ṻ":{"ha":1094,"x_min":107,"x_max":988,"o":"m 547 -17 q 224 99 340 -17 q 107 428 107 214 l 107 972 l 332 972 l 332 436 q 389 236 332 297 q 549 175 446 175 q 708 236 651 175 q 765 436 765 297 l 765 972 l 988 972 l 988 428 q 871 99 988 214 q 547 -17 754 -17 z "},"Ų":{"ha":1094,"x_min":107,"x_max":988,"o":"m 765 972 l 988 972 l 988 428 q 917 156 988 257 q 728 11 846 54 q 608 -46 650 -18 q 549 -99 565 -74 q 533 -149 533 -124 q 554 -195 533 -178 q 613 -212 575 -212 q 658 -206 636 -212 q 696 -192 681 -200 l 728 -290 q 665 -313 703 -304 q 588 -322 628 -322 q 447 -279 497 -322 q 396 -167 396 -236 q 418 -82 396 -122 q 488 -6 440 -42 q 608 57 535 31 l 611 -14 q 579 -16 594 -15 q 547 -17 564 -17 q 224 99 340 -17 q 107 428 107 214 l 107 972 l 332 972 l 332 436 q 389 236 332 297 q 549 175 446 175 q 708 236 651 175 q 765 436 765 297 l 765 972 z "},"Ů":{"ha":1094,"x_min":107,"x_max":988,"o":"m 547 -17 q 224 99 340 -17 q 107 428 107 214 l 107 972 l 332 972 l 332 436 q 389 236 332 297 q 549 175 446 175 q 708 236 651 175 q 765 436 765 297 l 765 972 l 988 972 l 988 428 q 871 99 988 214 q 547 -17 754 -17 m 547 1047 q 460 1070 500 1047 q 399 1131 421 1093 q 376 1215 376 1168 q 399 1299 376 1261 q 460 1360 421 1338 q 547 1383 500 1383 q 636 1360 597 1383 q 698 1299 675 1338 q 721 1215 721 1261 q 698 1131 721 1168 q 636 1070 675 1093 q 547 1047 597 1047 m 549 1131 q 608 1154 585 1131 q 632 1214 632 1178 q 608 1276 632 1251 q 547 1300 585 1300 q 488 1276 513 1300 q 464 1215 464 1253 q 488 1154 464 1178 q 549 1131 513 1131 z "},"Ũ":{"ha":1094,"x_min":107,"x_max":988,"o":"m 547 -17 q 224 99 340 -17 q 107 428 107 214 l 107 972 l 332 972 l 332 436 q 389 236 332 297 q 549 175 446 175 q 708 236 651 175 q 765 436 765 297 l 765 972 l 988 972 l 988 428 q 871 99 988 214 q 547 -17 754 -17 z "},"Ṹ":{"ha":1094,"x_min":107,"x_max":988,"o":"m 547 -17 q 224 99 340 -17 q 107 428 107 214 l 107 972 l 332 972 l 332 436 q 389 236 332 297 q 549 175 446 175 q 708 236 651 175 q 765 436 765 297 l 765 972 l 988 972 l 988 428 q 871 99 988 214 q 547 -17 754 -17 z "},"V":{"ha":1036,"x_min":-12,"x_max":1050,"o":"m 407 0 l -12 972 l 231 972 l 597 111 l 454 111 l 826 972 l 1050 972 l 629 0 l 407 0 z "},"W":{"ha":1615,"x_min":31,"x_max":1585,"o":"m 349 0 l 31 972 l 264 972 l 540 111 l 424 111 l 713 972 l 921 972 l 1199 111 l 1086 111 l 1369 972 l 1585 972 l 1267 0 l 1025 0 l 779 756 l 843 756 l 590 0 l 349 0 z "},"Ẃ":{"ha":1615,"x_min":31,"x_max":1585,"o":"m 349 0 l 31 972 l 264 972 l 540 111 l 424 111 l 713 972 l 921 972 l 1199 111 l 1086 111 l 1369 972 l 1585 972 l 1267 0 l 1025 0 l 779 756 l 843 756 l 590 0 l 349 0 z "},"Ŵ":{"ha":1615,"x_min":31,"x_max":1585,"o":"m 349 0 l 31 972 l 264 972 l 540 111 l 424 111 l 713 972 l 921 972 l 1199 111 l 1086 111 l 1369 972 l 1585 972 l 1267 0 l 1025 0 l 779 756 l 843 756 l 590 0 l 349 0 z "},"Ẅ":{"ha":1615,"x_min":31,"x_max":1585,"o":"m 349 0 l 31 972 l 264 972 l 540 111 l 424 111 l 713 972 l 921 972 l 1199 111 l 1086 111 l 1369 972 l 1585 972 l 1267 0 l 1025 0 l 779 756 l 843 756 l 590 0 l 349 0 z "},"Ẁ":{"ha":1615,"x_min":31,"x_max":1585,"o":"m 349 0 l 31 972 l 264 972 l 540 111 l 424 111 l 713 972 l 921 972 l 1199 111 l 1086 111 l 1369 972 l 1585 972 l 1267 0 l 1025 0 l 779 756 l 843 756 l 590 0 l 349 0 z "},"X":{"ha":992,"x_min":4,"x_max":988,"o":"m 4 0 l 422 576 l 422 413 l 22 972 l 278 972 l 554 582 l 447 581 l 719 972 l 964 972 l 567 422 l 567 583 l 988 0 l 728 0 l 442 413 l 544 413 l 263 0 l 4 0 z "},"Y":{"ha":939,"x_min":-19,"x_max":960,"o":"m 357 0 l 357 397 l 408 261 l -19 972 l 219 972 l 547 426 l 410 426 l 739 972 l 960 972 l 532 261 l 582 397 l 582 0 l 357 0 z "},"Ý":{"ha":939,"x_min":-19,"x_max":960,"o":"m 357 0 l 357 397 l 408 261 l -19 972 l 219 972 l 547 426 l 410 426 l 739 972 l 960 972 l 532 261 l 582 397 l 582 0 l 357 0 z "},"Ŷ":{"ha":939,"x_min":-19,"x_max":960,"o":"m 357 0 l 357 397 l 408 261 l -19 972 l 219 972 l 547 426 l 410 426 l 739 972 l 960 972 l 532 261 l 582 397 l 582 0 l 357 0 z "},"Ÿ":{"ha":939,"x_min":-19,"x_max":960,"o":"m 357 0 l 357 397 l 408 261 l -19 972 l 219 972 l 547 426 l 410 426 l 739 972 l 960 972 l 532 261 l 582 397 l 582 0 l 357 0 z "},"Ẏ":{"ha":939,"x_min":-19,"x_max":960,"o":"m 357 0 l 357 397 l 408 261 l -19 972 l 219 972 l 547 426 l 410 426 l 739 972 l 960 972 l 532 261 l 582 397 l 582 0 l 357 0 z "},"Ỵ":{"ha":939,"x_min":-19,"x_max":960,"o":"m 357 0 l 357 397 l 408 261 l -19 972 l 219 972 l 547 426 l 410 426 l 739 972 l 960 972 l 532 261 l 582 397 l 582 0 l 357 0 m 469 -292 q 401 -267 429 -292 q 374 -199 374 -242 q 401 -128 374 -156 q 469 -101 429 -101 q 538 -128 510 -101 q 565 -199 565 -156 q 538 -267 565 -242 q 469 -292 510 -292 z "},"Ỳ":{"ha":939,"x_min":-19,"x_max":960,"o":"m 357 0 l 357 397 l 408 261 l -19 972 l 219 972 l 547 426 l 410 426 l 739 972 l 960 972 l 532 261 l 582 397 l 582 0 l 357 0 z "},"Ỷ":{"ha":939,"x_min":-19,"x_max":960,"o":"m 357 0 l 357 397 l 408 261 l -19 972 l 219 972 l 547 426 l 410 426 l 739 972 l 960 972 l 532 261 l 582 397 l 582 0 l 357 0 z "},"Ȳ":{"ha":939,"x_min":-19,"x_max":960,"o":"m 357 0 l 357 397 l 408 261 l -19 972 l 219 972 l 547 426 l 410 426 l 739 972 l 960 972 l 532 261 l 582 397 l 582 0 l 357 0 z "},"Ỹ":{"ha":939,"x_min":-19,"x_max":960,"o":"m 357 0 l 357 397 l 408 261 l -19 972 l 219 972 l 547 426 l 410 426 l 739 972 l 960 972 l 532 261 l 582 397 l 582 0 l 357 0 z "},"Z":{"ha":932,"x_min":53,"x_max":903,"o":"m 53 0 l 53 146 l 654 871 l 682 789 l 64 789 l 64 972 l 882 972 l 882 826 l 282 101 l 254 183 l 903 183 l 903 0 l 53 0 z "},"Ź":{"ha":932,"x_min":53,"x_max":903,"o":"m 53 0 l 53 146 l 654 871 l 682 789 l 64 789 l 64 972 l 882 972 l 882 826 l 282 101 l 254 183 l 903 183 l 903 0 l 53 0 z "},"Ž":{"ha":932,"x_min":53,"x_max":903,"o":"m 53 0 l 53 146 l 654 871 l 682 789 l 64 789 l 64 972 l 882 972 l 882 826 l 282 101 l 254 183 l 903 183 l 903 0 l 53 0 z "},"Ż":{"ha":932,"x_min":53,"x_max":903,"o":"m 53 0 l 53 146 l 654 871 l 682 789 l 64 789 l 64 972 l 882 972 l 882 826 l 282 101 l 254 183 l 903 183 l 903 0 l 53 0 z "},"Ẓ":{"ha":932,"x_min":53,"x_max":903,"o":"m 53 0 l 53 146 l 654 871 l 682 789 l 64 789 l 64 972 l 882 972 l 882 826 l 282 101 l 254 183 l 903 183 l 903 0 l 53 0 m 482 -292 q 414 -267 442 -292 q 386 -199 386 -242 q 414 -128 386 -156 q 482 -101 442 -101 q 550 -128 522 -101 q 578 -199 578 -156 q 550 -267 578 -242 q 482 -292 522 -292 z "},"a":{"ha":857,"x_min":51,"x_max":761,"o":"m 558 0 l 558 146 l 544 178 l 544 439 q 502 547 544 508 q 372 586 460 586 q 255 567 313 586 q 157 517 197 549 l 79 668 q 226 735 140 711 q 401 758 313 758 q 667 678 572 758 q 761 426 761 597 l 761 0 l 558 0 m 331 -11 q 181 19 243 -11 q 85 100 118 49 q 51 215 51 151 q 84 332 51 282 q 188 410 117 382 q 372 439 258 439 l 571 439 l 571 313 l 396 313 q 291 288 319 313 q 263 225 263 263 q 295 159 263 183 q 385 135 328 135 q 482 160 439 135 q 544 236 525 186 l 578 136 q 492 26 554 64 q 331 -11 429 -11 z "},"á":{"ha":857,"x_min":51,"x_max":761,"o":"m 558 0 l 558 146 l 544 178 l 544 439 q 502 547 544 508 q 372 586 460 586 q 255 567 313 586 q 157 517 197 549 l 79 668 q 226 735 140 711 q 401 758 313 758 q 667 678 572 758 q 761 426 761 597 l 761 0 l 558 0 m 331 -11 q 181 19 243 -11 q 85 100 118 49 q 51 215 51 151 q 84 332 51 282 q 188 410 117 382 q 372 439 258 439 l 571 439 l 571 313 l 396 313 q 291 288 319 313 q 263 225 263 263 q 295 159 263 183 q 385 135 328 135 q 482 160 439 135 q 544 236 525 186 l 578 136 q 492 26 554 64 q 331 -11 429 -11 m 297 843 l 485 1043 l 718 1043 l 467 843 l 297 843 z "},"ă":{"ha":857,"x_min":51,"x_max":761,"o":"m 558 0 l 558 146 l 544 178 l 544 439 q 502 547 544 508 q 372 586 460 586 q 255 567 313 586 q 157 517 197 549 l 79 668 q 226 735 140 711 q 401 758 313 758 q 667 678 572 758 q 761 426 761 597 l 761 0 l 558 0 m 331 -11 q 181 19 243 -11 q 85 100 118 49 q 51 215 51 151 q 84 332 51 282 q 188 410 117 382 q 372 439 258 439 l 571 439 l 571 313 l 396 313 q 291 288 319 313 q 263 225 263 263 q 295 159 263 183 q 385 135 328 135 q 482 160 439 135 q 544 236 525 186 l 578 136 q 492 26 554 64 q 331 -11 429 -11 m 424 832 q 244 889 315 832 q 168 1043 172 946 l 304 1043 q 341 971 307 997 q 424 944 375 944 q 507 971 472 944 q 543 1043 542 997 l 679 1043 q 603 889 675 946 q 424 832 532 832 z "},"ắ":{"ha":857,"x_min":51,"x_max":761,"o":"m 558 0 l 558 146 l 544 178 l 544 439 q 502 547 544 508 q 372 586 460 586 q 255 567 313 586 q 157 517 197 549 l 79 668 q 226 735 140 711 q 401 758 313 758 q 667 678 572 758 q 761 426 761 597 l 761 0 l 558 0 m 331 -11 q 181 19 243 -11 q 85 100 118 49 q 51 215 51 151 q 84 332 51 282 q 188 410 117 382 q 372 439 258 439 l 571 439 l 571 313 l 396 313 q 291 288 319 313 q 263 225 263 263 q 295 159 263 183 q 385 135 328 135 q 482 160 439 135 q 544 236 525 186 l 578 136 q 492 26 554 64 q 331 -11 429 -11 z "},"ặ":{"ha":857,"x_min":51,"x_max":761,"o":"m 558 0 l 558 146 l 544 178 l 544 439 q 502 547 544 508 q 372 586 460 586 q 255 567 313 586 q 157 517 197 549 l 79 668 q 226 735 140 711 q 401 758 313 758 q 667 678 572 758 q 761 426 761 597 l 761 0 l 558 0 m 331 -11 q 181 19 243 -11 q 85 100 118 49 q 51 215 51 151 q 84 332 51 282 q 188 410 117 382 q 372 439 258 439 l 571 439 l 571 313 l 396 313 q 291 288 319 313 q 263 225 263 263 q 295 159 263 183 q 385 135 328 135 q 482 160 439 135 q 544 236 525 186 l 578 136 q 492 26 554 64 q 331 -11 429 -11 m 407 -292 q 339 -267 367 -292 q 311 -199 311 -242 q 339 -128 311 -156 q 407 -101 367 -101 q 475 -128 447 -101 q 503 -199 503 -156 q 475 -267 503 -242 q 407 -292 447 -292 m 424 832 q 244 889 315 832 q 168 1043 172 946 l 304 1043 q 341 971 307 997 q 424 944 375 944 q 507 971 472 944 q 543 1043 542 997 l 679 1043 q 603 889 675 946 q 424 832 532 832 z "},"ằ":{"ha":857,"x_min":51,"x_max":761,"o":"m 558 0 l 558 146 l 544 178 l 544 439 q 502 547 544 508 q 372 586 460 586 q 255 567 313 586 q 157 517 197 549 l 79 668 q 226 735 140 711 q 401 758 313 758 q 667 678 572 758 q 761 426 761 597 l 761 0 l 558 0 m 331 -11 q 181 19 243 -11 q 85 100 118 49 q 51 215 51 151 q 84 332 51 282 q 188 410 117 382 q 372 439 258 439 l 571 439 l 571 313 l 396 313 q 291 288 319 313 q 263 225 263 263 q 295 159 263 183 q 385 135 328 135 q 482 160 439 135 q 544 236 525 186 l 578 136 q 492 26 554 64 q 331 -11 429 -11 z "},"ẳ":{"ha":857,"x_min":51,"x_max":761,"o":"m 558 0 l 558 146 l 544 178 l 544 439 q 502 547 544 508 q 372 586 460 586 q 255 567 313 586 q 157 517 197 549 l 79 668 q 226 735 140 711 q 401 758 313 758 q 667 678 572 758 q 761 426 761 597 l 761 0 l 558 0 m 331 -11 q 181 19 243 -11 q 85 100 118 49 q 51 215 51 151 q 84 332 51 282 q 188 410 117 382 q 372 439 258 439 l 571 439 l 571 313 l 396 313 q 291 288 319 313 q 263 225 263 263 q 295 159 263 183 q 385 135 328 135 q 482 160 439 135 q 544 236 525 186 l 578 136 q 492 26 554 64 q 331 -11 429 -11 z "},"ẵ":{"ha":857,"x_min":51,"x_max":761,"o":"m 558 0 l 558 146 l 544 178 l 544 439 q 502 547 544 508 q 372 586 460 586 q 255 567 313 586 q 157 517 197 549 l 79 668 q 226 735 140 711 q 401 758 313 758 q 667 678 572 758 q 761 426 761 597 l 761 0 l 558 0 m 331 -11 q 181 19 243 -11 q 85 100 118 49 q 51 215 51 151 q 84 332 51 282 q 188 410 117 382 q 372 439 258 439 l 571 439 l 571 313 l 396 313 q 291 288 319 313 q 263 225 263 263 q 295 159 263 183 q 385 135 328 135 q 482 160 439 135 q 544 236 525 186 l 578 136 q 492 26 554 64 q 331 -11 429 -11 z "},"ǎ":{"ha":857,"x_min":51,"x_max":761,"o":"m 558 0 l 558 146 l 544 178 l 544 439 q 502 547 544 508 q 372 586 460 586 q 255 567 313 586 q 157 517 197 549 l 79 668 q 226 735 140 711 q 401 758 313 758 q 667 678 572 758 q 761 426 761 597 l 761 0 l 558 0 m 331 -11 q 181 19 243 -11 q 85 100 118 49 q 51 215 51 151 q 84 332 51 282 q 188 410 117 382 q 372 439 258 439 l 571 439 l 571 313 l 396 313 q 291 288 319 313 q 263 225 263 263 q 295 159 263 183 q 385 135 328 135 q 482 160 439 135 q 544 236 525 186 l 578 136 q 492 26 554 64 q 331 -11 429 -11 m 328 843 l 144 1043 l 303 1043 l 494 878 l 353 878 l 544 1043 l 703 1043 l 519 843 l 328 843 z "},"â":{"ha":857,"x_min":51,"x_max":761,"o":"m 558 0 l 558 146 l 544 178 l 544 439 q 502 547 544 508 q 372 586 460 586 q 255 567 313 586 q 157 517 197 549 l 79 668 q 226 735 140 711 q 401 758 313 758 q 667 678 572 758 q 761 426 761 597 l 761 0 l 558 0 m 331 -11 q 181 19 243 -11 q 85 100 118 49 q 51 215 51 151 q 84 332 51 282 q 188 410 117 382 q 372 439 258 439 l 571 439 l 571 313 l 396 313 q 291 288 319 313 q 263 225 263 263 q 295 159 263 183 q 385 135 328 135 q 482 160 439 135 q 544 236 525 186 l 578 136 q 492 26 554 64 q 331 -11 429 -11 m 144 843 l 328 1043 l 519 1043 l 703 843 l 544 843 l 353 1010 l 494 1010 l 303 843 l 144 843 z "},"ấ":{"ha":857,"x_min":51,"x_max":964,"o":"m 558 0 l 558 146 l 544 178 l 544 439 q 502 547 544 508 q 372 586 460 586 q 255 567 313 586 q 157 517 197 549 l 79 668 q 226 735 140 711 q 401 758 313 758 q 667 678 572 758 q 761 426 761 597 l 761 0 l 558 0 m 331 -11 q 181 19 243 -11 q 85 100 118 49 q 51 215 51 151 q 84 332 51 282 q 188 410 117 382 q 372 439 258 439 l 571 439 l 571 313 l 396 313 q 291 288 319 313 q 263 225 263 263 q 295 159 263 183 q 385 135 328 135 q 482 160 439 135 q 544 236 525 186 l 578 136 q 492 26 554 64 q 331 -11 429 -11 z "},"ậ":{"ha":857,"x_min":51,"x_max":761,"o":"m 558 0 l 558 146 l 544 178 l 544 439 q 502 547 544 508 q 372 586 460 586 q 255 567 313 586 q 157 517 197 549 l 79 668 q 226 735 140 711 q 401 758 313 758 q 667 678 572 758 q 761 426 761 597 l 761 0 l 558 0 m 331 -11 q 181 19 243 -11 q 85 100 118 49 q 51 215 51 151 q 84 332 51 282 q 188 410 117 382 q 372 439 258 439 l 571 439 l 571 313 l 396 313 q 291 288 319 313 q 263 225 263 263 q 295 159 263 183 q 385 135 328 135 q 482 160 439 135 q 544 236 525 186 l 578 136 q 492 26 554 64 q 331 -11 429 -11 m 407 -292 q 339 -267 367 -292 q 311 -199 311 -242 q 339 -128 311 -156 q 407 -101 367 -101 q 475 -128 447 -101 q 503 -199 503 -156 q 475 -267 503 -242 q 407 -292 447 -292 m 144 843 l 328 1043 l 519 1043 l 703 843 l 544 843 l 353 1010 l 494 1010 l 303 843 l 144 843 z "},"ầ":{"ha":857,"x_min":51,"x_max":829,"o":"m 558 0 l 558 146 l 544 178 l 544 439 q 502 547 544 508 q 372 586 460 586 q 255 567 313 586 q 157 517 197 549 l 79 668 q 226 735 140 711 q 401 758 313 758 q 667 678 572 758 q 761 426 761 597 l 761 0 l 558 0 m 331 -11 q 181 19 243 -11 q 85 100 118 49 q 51 215 51 151 q 84 332 51 282 q 188 410 117 382 q 372 439 258 439 l 571 439 l 571 313 l 396 313 q 291 288 319 313 q 263 225 263 263 q 295 159 263 183 q 385 135 328 135 q 482 160 439 135 q 544 236 525 186 l 578 136 q 492 26 554 64 q 331 -11 429 -11 z "},"ẩ":{"ha":857,"x_min":51,"x_max":767,"o":"m 558 0 l 558 146 l 544 178 l 544 439 q 502 547 544 508 q 372 586 460 586 q 255 567 313 586 q 157 517 197 549 l 79 668 q 226 735 140 711 q 401 758 313 758 q 667 678 572 758 q 761 426 761 597 l 761 0 l 558 0 m 331 -11 q 181 19 243 -11 q 85 100 118 49 q 51 215 51 151 q 84 332 51 282 q 188 410 117 382 q 372 439 258 439 l 571 439 l 571 313 l 396 313 q 291 288 319 313 q 263 225 263 263 q 295 159 263 183 q 385 135 328 135 q 482 160 439 135 q 544 236 525 186 l 578 136 q 492 26 554 64 q 331 -11 429 -11 z "},"ẫ":{"ha":857,"x_min":51,"x_max":761,"o":"m 558 0 l 558 146 l 544 178 l 544 439 q 502 547 544 508 q 372 586 460 586 q 255 567 313 586 q 157 517 197 549 l 79 668 q 226 735 140 711 q 401 758 313 758 q 667 678 572 758 q 761 426 761 597 l 761 0 l 558 0 m 331 -11 q 181 19 243 -11 q 85 100 118 49 q 51 215 51 151 q 84 332 51 282 q 188 410 117 382 q 372 439 258 439 l 571 439 l 571 313 l 396 313 q 291 288 319 313 q 263 225 263 263 q 295 159 263 183 q 385 135 328 135 q 482 160 439 135 q 544 236 525 186 l 578 136 q 492 26 554 64 q 331 -11 429 -11 z "},"ȁ":{"ha":857,"x_min":51,"x_max":761,"o":"m 558 0 l 558 146 l 544 178 l 544 439 q 502 547 544 508 q 372 586 460 586 q 255 567 313 586 q 157 517 197 549 l 79 668 q 226 735 140 711 q 401 758 313 758 q 667 678 572 758 q 761 426 761 597 l 761 0 l 558 0 m 331 -11 q 181 19 243 -11 q 85 100 118 49 q 51 215 51 151 q 84 332 51 282 q 188 410 117 382 q 372 439 258 439 l 571 439 l 571 313 l 396 313 q 291 288 319 313 q 263 225 263 263 q 295 159 263 183 q 385 135 328 135 q 482 160 439 135 q 544 236 525 186 l 578 136 q 492 26 554 64 q 331 -11 429 -11 m 485 843 l 340 1043 l 543 1043 l 643 843 l 485 843 m 204 843 l 60 1043 l 263 1043 l 363 843 l 204 843 z "},"ä":{"ha":857,"x_min":51,"x_max":761,"o":"m 558 0 l 558 146 l 544 178 l 544 439 q 502 547 544 508 q 372 586 460 586 q 255 567 313 586 q 157 517 197 549 l 79 668 q 226 735 140 711 q 401 758 313 758 q 667 678 572 758 q 761 426 761 597 l 761 0 l 558 0 m 331 -11 q 181 19 243 -11 q 85 100 118 49 q 51 215 51 151 q 84 332 51 282 q 188 410 117 382 q 372 439 258 439 l 571 439 l 571 313 l 396 313 q 291 288 319 313 q 263 225 263 263 q 295 159 263 183 q 385 135 328 135 q 482 160 439 135 q 544 236 525 186 l 578 136 q 492 26 554 64 q 331 -11 429 -11 m 564 850 q 496 876 524 850 q 468 946 468 903 q 496 1015 468 989 q 564 1042 524 1042 q 633 1015 604 1042 q 661 946 661 989 q 633 876 661 903 q 564 850 604 850 m 283 850 q 215 876 243 850 q 186 946 186 903 q 215 1015 186 989 q 283 1042 243 1042 q 351 1015 324 1042 q 379 946 379 989 q 351 876 379 903 q 283 850 324 850 z "},"ạ":{"ha":857,"x_min":51,"x_max":761,"o":"m 558 0 l 558 146 l 544 178 l 544 439 q 502 547 544 508 q 372 586 460 586 q 255 567 313 586 q 157 517 197 549 l 79 668 q 226 735 140 711 q 401 758 313 758 q 667 678 572 758 q 761 426 761 597 l 761 0 l 558 0 m 331 -11 q 181 19 243 -11 q 85 100 118 49 q 51 215 51 151 q 84 332 51 282 q 188 410 117 382 q 372 439 258 439 l 571 439 l 571 313 l 396 313 q 291 288 319 313 q 263 225 263 263 q 295 159 263 183 q 385 135 328 135 q 482 160 439 135 q 544 236 525 186 l 578 136 q 492 26 554 64 q 331 -11 429 -11 m 407 -292 q 339 -267 367 -292 q 311 -199 311 -242 q 339 -128 311 -156 q 407 -101 367 -101 q 475 -128 447 -101 q 503 -199 503 -156 q 475 -267 503 -242 q 407 -292 447 -292 z "},"à":{"ha":857,"x_min":51,"x_max":761,"o":"m 558 0 l 558 146 l 544 178 l 544 439 q 502 547 544 508 q 372 586 460 586 q 255 567 313 586 q 157 517 197 549 l 79 668 q 226 735 140 711 q 401 758 313 758 q 667 678 572 758 q 761 426 761 597 l 761 0 l 558 0 m 331 -11 q 181 19 243 -11 q 85 100 118 49 q 51 215 51 151 q 84 332 51 282 q 188 410 117 382 q 372 439 258 439 l 571 439 l 571 313 l 396 313 q 291 288 319 313 q 263 225 263 263 q 295 159 263 183 q 385 135 328 135 q 482 160 439 135 q 544 236 525 186 l 578 136 q 492 26 554 64 q 331 -11 429 -11 m 381 843 l 129 1043 l 363 1043 l 550 843 l 381 843 z "},"ả":{"ha":857,"x_min":51,"x_max":761,"o":"m 558 0 l 558 146 l 544 178 l 544 439 q 502 547 544 508 q 372 586 460 586 q 255 567 313 586 q 157 517 197 549 l 79 668 q 226 735 140 711 q 401 758 313 758 q 667 678 572 758 q 761 426 761 597 l 761 0 l 558 0 m 331 -11 q 181 19 243 -11 q 85 100 118 49 q 51 215 51 151 q 84 332 51 282 q 188 410 117 382 q 372 439 258 439 l 571 439 l 571 313 l 396 313 q 291 288 319 313 q 263 225 263 263 q 295 159 263 183 q 385 135 328 135 q 482 160 439 135 q 544 236 525 186 l 578 136 q 492 26 554 64 q 331 -11 429 -11 m 465 829 l 397 901 q 453 942 438 921 q 468 986 468 963 q 450 1028 468 1013 q 403 1044 432 1044 q 321 1018 361 1044 l 275 1106 q 347 1141 307 1129 q 426 1153 386 1153 q 547 1112 500 1153 q 593 1004 593 1071 q 561 901 593 944 q 465 829 529 858 z "},"ȃ":{"ha":857,"x_min":51,"x_max":761,"o":"m 558 0 l 558 146 l 544 178 l 544 439 q 502 547 544 508 q 372 586 460 586 q 255 567 313 586 q 157 517 197 549 l 79 668 q 226 735 140 711 q 401 758 313 758 q 667 678 572 758 q 761 426 761 597 l 761 0 l 558 0 m 331 -11 q 181 19 243 -11 q 85 100 118 49 q 51 215 51 151 q 84 332 51 282 q 188 410 117 382 q 372 439 258 439 l 571 439 l 571 313 l 396 313 q 291 288 319 313 q 263 225 263 263 q 295 159 263 183 q 385 135 328 135 q 482 160 439 135 q 544 236 525 186 l 578 136 q 492 26 554 64 q 331 -11 429 -11 m 168 843 q 244 998 172 942 q 424 1054 315 1054 q 603 998 532 1054 q 679 843 675 942 l 543 843 q 507 915 542 889 q 424 942 472 942 q 341 915 375 942 q 304 843 307 889 l 168 843 z "},"ā":{"ha":857,"x_min":51,"x_max":761,"o":"m 558 0 l 558 146 l 544 178 l 544 439 q 502 547 544 508 q 372 586 460 586 q 255 567 313 586 q 157 517 197 549 l 79 668 q 226 735 140 711 q 401 758 313 758 q 667 678 572 758 q 761 426 761 597 l 761 0 l 558 0 m 331 -11 q 181 19 243 -11 q 85 100 118 49 q 51 215 51 151 q 84 332 51 282 q 188 410 117 382 q 372 439 258 439 l 571 439 l 571 313 l 396 313 q 291 288 319 313 q 263 225 263 263 q 295 159 263 183 q 385 135 328 135 q 482 160 439 135 q 544 236 525 186 l 578 136 q 492 26 554 64 q 331 -11 429 -11 m 167 882 l 167 1004 l 681 1004 l 681 882 l 167 882 z "},"ą":{"ha":857,"x_min":51,"x_max":794,"o":"m 558 0 l 558 146 l 544 178 l 544 439 q 502 547 544 508 q 372 586 460 586 q 255 567 313 586 q 157 517 197 549 l 79 668 q 226 735 140 711 q 401 758 313 758 q 667 678 572 758 q 761 426 761 597 l 761 0 l 558 0 m 331 -11 q 181 19 243 -11 q 85 100 118 49 q 51 215 51 151 q 84 332 51 282 q 188 410 117 382 q 372 439 258 439 l 571 439 l 571 313 l 396 313 q 291 288 319 313 q 263 225 263 263 q 295 159 263 183 q 385 135 328 135 q 482 160 439 135 q 544 236 525 186 l 578 136 q 492 26 554 64 q 331 -11 429 -11 m 654 -322 q 513 -279 564 -322 q 463 -167 463 -236 q 485 -82 463 -122 q 556 -6 508 -42 q 675 57 603 31 l 763 0 q 667 -51 703 -26 q 616 -99 632 -75 q 600 -149 600 -122 q 622 -195 600 -178 q 679 -212 643 -212 q 725 -206 703 -212 q 764 -192 747 -200 l 794 -290 q 732 -313 769 -304 q 654 -322 694 -322 z "},"å":{"ha":857,"x_min":51,"x_max":761,"o":"m 558 0 l 558 146 l 544 178 l 544 439 q 502 547 544 508 q 372 586 460 586 q 255 567 313 586 q 157 517 197 549 l 79 668 q 226 735 140 711 q 401 758 313 758 q 667 678 572 758 q 761 426 761 597 l 761 0 l 558 0 m 331 -11 q 181 19 243 -11 q 85 100 118 49 q 51 215 51 151 q 84 332 51 282 q 188 410 117 382 q 372 439 258 439 l 571 439 l 571 313 l 396 313 q 291 288 319 313 q 263 225 263 263 q 295 159 263 183 q 385 135 328 135 q 482 160 439 135 q 544 236 525 186 l 578 136 q 492 26 554 64 q 331 -11 429 -11 m 422 822 q 335 845 375 822 q 274 906 296 868 q 251 990 251 943 q 274 1074 251 1036 q 335 1135 296 1113 q 422 1158 375 1158 q 511 1135 472 1158 q 573 1074 550 1113 q 596 990 596 1036 q 573 906 596 943 q 511 845 550 868 q 422 822 472 822 m 424 906 q 483 929 460 906 q 507 989 507 953 q 483 1051 507 1026 q 422 1075 460 1075 q 363 1051 388 1075 q 339 990 339 1028 q 363 929 339 953 q 424 906 388 906 z "},"ǻ":{"ha":857,"x_min":51,"x_max":761,"o":"m 558 0 l 558 146 l 544 178 l 544 439 q 502 547 544 508 q 372 586 460 586 q 255 567 313 586 q 157 517 197 549 l 79 668 q 226 735 140 711 q 401 758 313 758 q 667 678 572 758 q 761 426 761 597 l 761 0 l 558 0 m 331 -11 q 181 19 243 -11 q 85 100 118 49 q 51 215 51 151 q 84 332 51 282 q 188 410 117 382 q 372 439 258 439 l 571 439 l 571 313 l 396 313 q 291 288 319 313 q 263 225 263 263 q 295 159 263 183 q 385 135 328 135 q 482 160 439 135 q 544 236 525 186 l 578 136 q 492 26 554 64 q 331 -11 429 -11 m 422 822 q 335 845 375 822 q 274 906 296 868 q 251 990 251 943 q 274 1074 251 1036 q 335 1135 296 1113 q 422 1158 375 1158 q 511 1135 472 1158 q 573 1074 550 1113 q 596 990 596 1036 q 573 906 596 943 q 511 845 550 868 q 422 822 472 822 m 424 906 q 483 929 460 906 q 507 989 507 953 q 483 1051 507 1026 q 422 1075 460 1075 q 363 1051 388 1075 q 339 990 339 1028 q 363 929 339 953 q 424 906 388 906 m 551 1063 l 447 1096 l 615 1269 l 722 1186 l 551 1063 z "},"ã":{"ha":857,"x_min":51,"x_max":761,"o":"m 558 0 l 558 146 l 544 178 l 544 439 q 502 547 544 508 q 372 586 460 586 q 255 567 313 586 q 157 517 197 549 l 79 668 q 226 735 140 711 q 401 758 313 758 q 667 678 572 758 q 761 426 761 597 l 761 0 l 558 0 m 331 -11 q 181 19 243 -11 q 85 100 118 49 q 51 215 51 151 q 84 332 51 282 q 188 410 117 382 q 372 439 258 439 l 571 439 l 571 313 l 396 313 q 291 288 319 313 q 263 225 263 263 q 295 159 263 183 q 385 135 328 135 q 482 160 439 135 q 544 236 525 186 l 578 136 q 492 26 554 64 q 331 -11 429 -11 m 528 839 q 464 852 492 839 q 414 883 436 865 q 372 913 392 900 q 333 926 353 926 q 288 906 306 926 q 267 849 269 886 l 157 849 q 203 997 160 942 q 319 1051 246 1051 q 383 1038 356 1051 q 434 1007 411 1025 q 476 976 457 989 q 514 963 496 963 q 561 983 543 963 q 581 1038 579 1003 l 690 1038 q 645 894 689 949 q 528 839 601 839 z "},"æ":{"ha":1383,"x_min":51,"x_max":1338,"o":"m 365 -11 q 135 54 218 -11 q 51 224 51 119 q 84 333 51 285 q 188 411 117 382 q 372 440 258 440 l 567 440 l 567 314 l 396 314 q 291 289 319 314 q 263 228 263 264 q 295 160 263 185 q 388 135 328 135 q 503 174 463 135 q 544 279 544 214 l 544 439 q 502 547 544 508 q 374 586 460 586 q 255 567 313 586 q 157 517 197 549 l 79 668 q 226 735 140 711 q 400 758 311 758 q 601 714 521 758 q 715 583 682 669 l 622 588 q 757 713 671 667 q 950 758 843 758 q 1101 731 1031 758 q 1224 654 1171 704 q 1308 534 1278 604 q 1338 376 1338 464 q 1337 342 1338 358 q 1333 314 1336 326 l 735 314 l 735 440 l 1192 440 l 1131 401 q 1105 508 1131 465 q 1038 572 1079 550 q 947 594 996 594 q 856 572 899 594 q 788 507 814 550 q 761 399 761 464 l 761 365 q 788 258 761 304 q 863 187 814 211 q 979 163 913 163 q 1081 181 1036 163 q 1168 235 1126 199 l 1283 110 q 1151 19 1231 50 q 975 -11 1072 -11 q 813 14 889 -11 q 678 92 736 39 q 583 229 619 144 l 700 229 q 625 83 676 136 q 506 10 574 31 q 365 -11 438 -11 z "},"ǽ":{"ha":1383,"x_min":51,"x_max":1338,"o":"m 365 -11 q 135 54 218 -11 q 51 224 51 119 q 84 333 51 285 q 188 411 117 382 q 372 440 258 440 l 567 440 l 567 314 l 396 314 q 291 289 319 314 q 263 228 263 264 q 295 160 263 185 q 388 135 328 135 q 503 174 463 135 q 544 279 544 214 l 544 439 q 502 547 544 508 q 374 586 460 586 q 255 567 313 586 q 157 517 197 549 l 79 668 q 226 735 140 711 q 400 758 311 758 q 601 714 521 758 q 715 583 682 669 l 622 588 q 757 713 671 667 q 950 758 843 758 q 1101 731 1031 758 q 1224 654 1171 704 q 1308 534 1278 604 q 1338 376 1338 464 q 1337 342 1338 358 q 1333 314 1336 326 l 735 314 l 735 440 l 1192 440 l 1131 401 q 1105 508 1131 465 q 1038 572 1079 550 q 947 594 996 594 q 856 572 899 594 q 788 507 814 550 q 761 399 761 464 l 761 365 q 788 258 761 304 q 863 187 814 211 q 979 163 913 163 q 1081 181 1036 163 q 1168 235 1126 199 l 1283 110 q 1151 19 1231 50 q 975 -11 1072 -11 q 813 14 889 -11 q 678 92 736 39 q 583 229 619 144 l 700 229 q 625 83 676 136 q 506 10 574 31 q 365 -11 438 -11 m 526 843 l 714 1043 l 947 1043 l 696 843 l 526 843 z "},"b":{"ha":958,"x_min":100,"x_max":914,"o":"m 542 -11 q 372 31 443 -11 q 264 158 301 72 q 226 374 226 243 q 266 590 226 506 q 376 717 306 675 q 542 758 447 758 q 731 711 647 758 q 865 578 815 664 q 914 374 914 492 q 865 171 914 257 q 731 37 815 85 q 542 -11 647 -11 m 100 0 l 100 1031 l 317 1031 l 317 596 l 303 375 l 307 153 l 307 0 l 100 0 m 504 167 q 601 192 558 167 q 669 263 643 217 q 694 374 694 310 q 669 485 694 439 q 601 556 643 531 q 504 581 558 581 q 407 556 450 581 q 339 485 364 531 q 314 374 314 439 q 339 263 314 310 q 407 192 364 217 q 504 167 450 167 z "},"c":{"ha":821,"x_min":44,"x_max":796,"o":"m 461 -11 q 246 38 340 -11 q 98 175 151 88 q 44 374 44 263 q 98 573 44 486 q 246 709 151 660 q 461 758 340 758 q 667 709 579 758 q 796 568 754 660 l 628 478 q 555 556 599 531 q 460 581 511 581 q 360 556 404 581 q 290 485 315 531 q 264 374 264 439 q 290 263 264 308 q 360 192 315 217 q 460 167 404 167 q 555 191 511 167 q 628 269 599 215 l 796 178 q 667 38 754 88 q 461 -11 579 -11 z "},"ć":{"ha":821,"x_min":44,"x_max":796,"o":"m 461 -11 q 246 38 340 -11 q 98 175 151 88 q 44 374 44 263 q 98 573 44 486 q 246 709 151 660 q 461 758 340 758 q 667 709 579 758 q 796 568 754 660 l 628 478 q 555 556 599 531 q 460 581 511 581 q 360 556 404 581 q 290 485 315 531 q 264 374 264 439 q 290 263 264 308 q 360 192 315 217 q 460 167 404 167 q 555 191 511 167 q 628 269 599 215 l 796 178 q 667 38 754 88 q 461 -11 579 -11 m 308 843 l 496 1043 l 729 1043 l 478 843 l 308 843 z "},"č":{"ha":821,"x_min":44,"x_max":796,"o":"m 461 -11 q 246 38 340 -11 q 98 175 151 88 q 44 374 44 263 q 98 573 44 486 q 246 709 151 660 q 461 758 340 758 q 667 709 579 758 q 796 568 754 660 l 628 478 q 555 556 599 531 q 460 581 511 581 q 360 556 404 581 q 290 485 315 531 q 264 374 264 439 q 290 263 264 308 q 360 192 315 217 q 460 167 404 167 q 555 191 511 167 q 628 269 599 215 l 796 178 q 667 38 754 88 q 461 -11 579 -11 m 339 843 l 156 1043 l 314 1043 l 506 878 l 364 878 l 556 1043 l 714 1043 l 531 843 l 339 843 z "},"ç":{"ha":821,"x_min":44,"x_max":796,"o":"m 461 -11 q 246 38 340 -11 q 98 175 151 88 q 44 374 44 263 q 98 573 44 486 q 246 709 151 660 q 461 758 340 758 q 667 709 579 758 q 796 568 754 660 l 628 478 q 555 556 599 531 q 460 581 511 581 q 360 556 404 581 q 290 485 315 531 q 264 374 264 439 q 290 263 264 308 q 360 192 315 217 q 460 167 404 167 q 555 191 511 167 q 628 269 599 215 l 796 178 q 667 38 754 88 q 461 -11 579 -11 m 382 -322 q 312 -314 346 -322 q 253 -293 278 -306 l 286 -200 q 329 -215 307 -210 q 376 -221 351 -221 q 432 -208 415 -221 q 449 -176 449 -196 q 433 -147 449 -158 q 381 -136 417 -136 l 333 -136 l 369 11 l 485 11 l 465 -69 q 557 -109 528 -76 q 586 -185 586 -142 q 531 -285 586 -247 q 382 -322 475 -322 z "},"ḉ":{"ha":821,"x_min":44,"x_max":796,"o":"m 461 -11 q 246 38 340 -11 q 98 175 151 88 q 44 374 44 263 q 98 573 44 486 q 246 709 151 660 q 461 758 340 758 q 667 709 579 758 q 796 568 754 660 l 628 478 q 555 556 599 531 q 460 581 511 581 q 360 556 404 581 q 290 485 315 531 q 264 374 264 439 q 290 263 264 308 q 360 192 315 217 q 460 167 404 167 q 555 191 511 167 q 628 269 599 215 l 796 178 q 667 38 754 88 q 461 -11 579 -11 m 382 -322 q 312 -314 346 -322 q 253 -293 278 -306 l 286 -200 q 329 -215 307 -210 q 376 -221 351 -221 q 432 -208 415 -221 q 449 -176 449 -196 q 433 -147 449 -158 q 381 -136 417 -136 l 333 -136 l 369 11 l 485 11 l 465 -69 q 557 -109 528 -76 q 586 -185 586 -142 q 531 -285 586 -247 q 382 -322 475 -322 m 308 843 l 496 1043 l 729 1043 l 478 843 l 308 843 z "},"ĉ":{"ha":821,"x_min":44,"x_max":796,"o":"m 461 -11 q 246 38 340 -11 q 98 175 151 88 q 44 374 44 263 q 98 573 44 486 q 246 709 151 660 q 461 758 340 758 q 667 709 579 758 q 796 568 754 660 l 628 478 q 555 556 599 531 q 460 581 511 581 q 360 556 404 581 q 290 485 315 531 q 264 374 264 439 q 290 263 264 308 q 360 192 315 217 q 460 167 404 167 q 555 191 511 167 q 628 269 599 215 l 796 178 q 667 38 754 88 q 461 -11 579 -11 m 156 843 l 339 1043 l 531 1043 l 714 843 l 556 843 l 364 1010 l 506 1010 l 314 843 l 156 843 z "},"ċ":{"ha":821,"x_min":44,"x_max":796,"o":"m 461 -11 q 246 38 340 -11 q 98 175 151 88 q 44 374 44 263 q 98 573 44 486 q 246 709 151 660 q 461 758 340 758 q 667 709 579 758 q 796 568 754 660 l 628 478 q 555 556 599 531 q 460 581 511 581 q 360 556 404 581 q 290 485 315 531 q 264 374 264 439 q 290 263 264 308 q 360 192 315 217 q 460 167 404 167 q 555 191 511 167 q 628 269 599 215 l 796 178 q 667 38 754 88 q 461 -11 579 -11 m 435 850 q 351 883 383 850 q 318 968 318 917 q 351 1051 318 1018 q 435 1085 383 1085 q 518 1051 485 1085 q 551 968 551 1018 q 518 883 551 917 q 435 850 485 850 z "},"d":{"ha":961,"x_min":47,"x_max":861,"o":"m 421 -11 q 231 37 315 -11 q 97 171 146 85 q 47 374 47 257 q 97 578 47 492 q 231 711 146 664 q 421 758 315 758 q 586 717 515 758 q 696 590 657 675 q 735 374 735 506 q 697 158 735 243 q 590 31 660 72 q 421 -11 519 -11 m 458 167 q 554 192 511 167 q 623 263 597 217 q 649 374 649 310 q 623 485 649 439 q 554 556 597 531 q 458 581 511 581 q 361 556 404 581 q 292 485 318 531 q 267 374 267 439 q 292 263 267 310 q 361 192 318 217 q 458 167 404 167 m 654 0 l 654 153 l 658 375 l 644 596 l 644 1031 l 861 1031 l 861 0 l 654 0 z "},"ð":{"ha":913,"x_min":44,"x_max":867,"o":"m 419 -17 q 229 24 314 -17 q 94 136 144 64 q 44 307 44 208 q 92 472 44 403 q 219 581 139 542 q 396 619 299 619 q 532 596 472 619 q 634 528 592 572 q 699 421 676 485 l 633 386 q 640 449 639 417 q 642 522 642 482 q 606 712 642 636 q 500 825 569 788 q 329 863 431 863 q 231 855 279 863 q 142 833 182 847 l 115 1001 q 219 1022 165 1014 q 338 1029 274 1029 q 619 967 500 1029 q 802 781 738 904 q 867 475 867 657 q 813 211 867 321 q 658 42 758 101 q 419 -17 558 -17 m 436 151 q 531 172 490 151 q 592 226 571 192 q 614 301 614 260 q 591 378 614 344 q 529 432 568 413 q 440 451 490 451 q 313 410 361 451 q 265 301 265 369 q 288 222 265 256 q 348 170 310 189 q 436 151 386 151 m 210 643 l 165 753 l 785 990 l 829 881 l 210 643 z "},"ď":{"ha":961,"x_min":47,"x_max":1138,"o":"m 421 -11 q 231 37 315 -11 q 97 171 146 85 q 47 374 47 257 q 97 578 47 492 q 231 711 146 664 q 421 758 315 758 q 586 717 515 758 q 696 590 657 675 q 735 374 735 506 q 697 158 735 243 q 590 31 660 72 q 421 -11 519 -11 m 458 167 q 554 192 511 167 q 623 263 597 217 q 649 374 649 310 q 623 485 649 439 q 554 556 597 531 q 458 581 511 581 q 361 556 404 581 q 292 485 318 531 q 267 374 267 439 q 292 263 267 310 q 361 192 318 217 q 458 167 404 167 m 654 0 l 654 153 l 658 375 l 644 596 l 644 1031 l 861 1031 l 861 0 l 654 0 m 975 808 l 975 1088 l 1138 1088 l 1110 808 l 975 808 z "},"đ":{"ha":961,"x_min":47,"x_max":963,"o":"m 421 -11 q 231 37 315 -11 q 97 171 146 85 q 47 374 47 257 q 97 578 47 492 q 231 711 146 664 q 421 758 315 758 q 586 717 515 758 q 696 590 657 675 q 735 374 735 506 q 697 158 735 243 q 590 31 660 72 q 421 -11 519 -11 m 458 167 q 554 192 511 167 q 623 263 597 217 q 649 374 649 310 q 623 485 649 439 q 554 556 597 531 q 458 581 511 581 q 361 556 404 581 q 292 485 318 531 q 267 374 267 439 q 292 263 267 310 q 361 192 318 217 q 458 167 404 167 m 654 0 l 654 153 l 658 375 l 644 596 l 644 1031 l 861 1031 l 861 0 l 654 0 m 390 824 l 390 949 l 963 949 l 963 824 l 390 824 z "},"ḍ":{"ha":961,"x_min":47,"x_max":861,"o":"m 421 -11 q 231 37 315 -11 q 97 171 146 85 q 47 374 47 257 q 97 578 47 492 q 231 711 146 664 q 421 758 315 758 q 586 717 515 758 q 696 590 657 675 q 735 374 735 506 q 697 158 735 243 q 590 31 660 72 q 421 -11 519 -11 m 458 167 q 554 192 511 167 q 623 263 597 217 q 649 374 649 310 q 623 485 649 439 q 554 556 597 531 q 458 581 511 581 q 361 556 404 581 q 292 485 318 531 q 267 374 267 439 q 292 263 267 310 q 361 192 318 217 q 458 167 404 167 m 654 0 l 654 153 l 658 375 l 644 596 l 644 1031 l 861 1031 l 861 0 l 654 0 m 504 -292 q 436 -267 464 -292 q 408 -199 408 -242 q 436 -128 408 -156 q 504 -101 464 -101 q 572 -128 544 -101 q 600 -199 600 -156 q 572 -267 600 -242 q 504 -292 544 -292 z "},"ḏ":{"ha":961,"x_min":47,"x_max":861,"o":"m 421 -11 q 231 37 315 -11 q 97 171 146 85 q 47 374 47 257 q 97 578 47 492 q 231 711 146 664 q 421 758 315 758 q 586 717 515 758 q 696 590 657 675 q 735 374 735 506 q 697 158 735 243 q 590 31 660 72 q 421 -11 519 -11 m 458 167 q 554 192 511 167 q 623 263 597 217 q 649 374 649 310 q 623 485 649 439 q 554 556 597 531 q 458 581 511 581 q 361 556 404 581 q 292 485 318 531 q 267 374 267 439 q 292 263 267 310 q 361 192 318 217 q 458 167 404 167 m 654 0 l 654 153 l 658 375 l 644 596 l 644 1031 l 861 1031 l 861 0 l 654 0 m 247 -253 l 247 -132 l 761 -132 l 761 -253 l 247 -253 z "},"ǆ":{"ha":1713,"x_min":47,"x_max":1665,"o":"m 421 -11 q 231 37 315 -11 q 97 171 146 85 q 47 374 47 257 q 97 578 47 492 q 231 711 146 664 q 421 758 315 758 q 586 717 515 758 q 696 590 657 675 q 735 374 735 506 q 697 158 735 243 q 590 31 660 72 q 421 -11 519 -11 m 458 167 q 554 192 511 167 q 623 263 597 217 q 649 374 649 310 q 623 485 649 439 q 554 556 597 531 q 458 581 511 581 q 361 556 404 581 q 292 485 318 531 q 267 374 267 439 q 292 263 267 310 q 361 192 318 217 q 458 167 404 167 m 654 0 l 654 153 l 658 375 l 644 596 l 644 1031 l 861 1031 l 861 0 l 654 0 z "},"e":{"ha":876,"x_min":44,"x_max":832,"o":"m 471 -11 q 247 39 343 -11 q 97 176 150 89 q 44 374 44 263 q 97 573 44 486 q 239 709 149 660 q 443 758 329 758 q 641 712 553 758 q 781 578 729 665 q 832 371 832 492 q 831 342 832 358 q 828 313 829 326 l 221 313 l 221 439 l 714 439 l 631 401 q 607 503 631 460 q 542 570 583 546 q 444 594 500 594 q 347 570 389 594 q 281 502 304 546 q 257 399 257 458 l 257 365 q 284 258 257 304 q 360 187 311 211 q 476 163 410 163 q 581 181 536 163 q 664 235 626 199 l 779 110 q 650 20 728 51 q 471 -11 572 -11 z "},"é":{"ha":876,"x_min":44,"x_max":832,"o":"m 471 -11 q 247 39 343 -11 q 97 176 150 89 q 44 374 44 263 q 97 573 44 486 q 239 709 149 660 q 443 758 329 758 q 641 712 553 758 q 781 578 729 665 q 832 371 832 492 q 831 342 832 358 q 828 313 829 326 l 221 313 l 221 439 l 714 439 l 631 401 q 607 503 631 460 q 542 570 583 546 q 444 594 500 594 q 347 570 389 594 q 281 502 304 546 q 257 399 257 458 l 257 365 q 284 258 257 304 q 360 187 311 211 q 476 163 410 163 q 581 181 536 163 q 664 235 626 199 l 779 110 q 650 20 728 51 q 471 -11 572 -11 m 313 843 l 500 1043 l 733 1043 l 482 843 l 313 843 z "},"ĕ":{"ha":876,"x_min":44,"x_max":832,"o":"m 471 -11 q 247 39 343 -11 q 97 176 150 89 q 44 374 44 263 q 97 573 44 486 q 239 709 149 660 q 443 758 329 758 q 641 712 553 758 q 781 578 729 665 q 832 371 832 492 q 831 342 832 358 q 828 313 829 326 l 221 313 l 221 439 l 714 439 l 631 401 q 607 503 631 460 q 542 570 583 546 q 444 594 500 594 q 347 570 389 594 q 281 502 304 546 q 257 399 257 458 l 257 365 q 284 258 257 304 q 360 187 311 211 q 476 163 410 163 q 581 181 536 163 q 664 235 626 199 l 779 110 q 650 20 728 51 q 471 -11 572 -11 m 439 832 q 259 889 331 832 q 183 1043 188 946 l 319 1043 q 356 971 322 997 q 439 944 390 944 q 522 971 488 944 q 558 1043 557 997 l 694 1043 q 619 889 690 946 q 439 832 547 832 z "},"ě":{"ha":876,"x_min":44,"x_max":832,"o":"m 471 -11 q 247 39 343 -11 q 97 176 150 89 q 44 374 44 263 q 97 573 44 486 q 239 709 149 660 q 443 758 329 758 q 641 712 553 758 q 781 578 729 665 q 832 371 832 492 q 831 342 832 358 q 828 313 829 326 l 221 313 l 221 439 l 714 439 l 631 401 q 607 503 631 460 q 542 570 583 546 q 444 594 500 594 q 347 570 389 594 q 281 502 304 546 q 257 399 257 458 l 257 365 q 284 258 257 304 q 360 187 311 211 q 476 163 410 163 q 581 181 536 163 q 664 235 626 199 l 779 110 q 650 20 728 51 q 471 -11 572 -11 m 343 843 l 160 1043 l 318 1043 l 510 878 l 368 878 l 560 1043 l 718 1043 l 535 843 l 343 843 z "},"ḝ":{"ha":876,"x_min":44,"x_max":832,"o":"m 471 -11 q 247 39 343 -11 q 97 176 150 89 q 44 374 44 263 q 97 573 44 486 q 239 709 149 660 q 443 758 329 758 q 641 712 553 758 q 781 578 729 665 q 832 371 832 492 q 831 342 832 358 q 828 313 829 326 l 221 313 l 221 439 l 714 439 l 631 401 q 607 503 631 460 q 542 570 583 546 q 444 594 500 594 q 347 570 389 594 q 281 502 304 546 q 257 399 257 458 l 257 365 q 284 258 257 304 q 360 187 311 211 q 476 163 410 163 q 581 181 536 163 q 664 235 626 199 l 779 110 q 650 20 728 51 q 471 -11 572 -11 m 393 -322 q 323 -314 357 -322 q 264 -293 289 -306 l 297 -200 q 340 -215 318 -210 q 388 -221 363 -221 q 443 -208 426 -221 q 460 -176 460 -196 q 444 -147 460 -158 q 392 -136 428 -136 l 344 -136 l 381 11 l 496 11 l 476 -69 q 568 -109 539 -76 q 597 -185 597 -142 q 542 -285 597 -247 q 393 -322 486 -322 m 439 832 q 259 889 331 832 q 183 1043 188 946 l 319 1043 q 356 971 322 997 q 439 944 390 944 q 522 971 488 944 q 558 1043 557 997 l 694 1043 q 619 889 690 946 q 439 832 547 832 z "},"ê":{"ha":876,"x_min":44,"x_max":832,"o":"m 471 -11 q 247 39 343 -11 q 97 176 150 89 q 44 374 44 263 q 97 573 44 486 q 239 709 149 660 q 443 758 329 758 q 641 712 553 758 q 781 578 729 665 q 832 371 832 492 q 831 342 832 358 q 828 313 829 326 l 221 313 l 221 439 l 714 439 l 631 401 q 607 503 631 460 q 542 570 583 546 q 444 594 500 594 q 347 570 389 594 q 281 502 304 546 q 257 399 257 458 l 257 365 q 284 258 257 304 q 360 187 311 211 q 476 163 410 163 q 581 181 536 163 q 664 235 626 199 l 779 110 q 650 20 728 51 q 471 -11 572 -11 m 160 843 l 343 1043 l 535 1043 l 718 843 l 560 843 l 368 1010 l 510 1010 l 318 843 l 160 843 z "},"ế":{"ha":876,"x_min":44,"x_max":981,"o":"m 471 -11 q 247 39 343 -11 q 97 176 150 89 q 44 374 44 263 q 97 573 44 486 q 239 709 149 660 q 443 758 329 758 q 641 712 553 758 q 781 578 729 665 q 832 371 832 492 q 831 342 832 358 q 828 313 829 326 l 221 313 l 221 439 l 714 439 l 631 401 q 607 503 631 460 q 542 570 583 546 q 444 594 500 594 q 347 570 389 594 q 281 502 304 546 q 257 399 257 458 l 257 365 q 284 258 257 304 q 360 187 311 211 q 476 163 410 163 q 581 181 536 163 q 664 235 626 199 l 779 110 q 650 20 728 51 q 471 -11 572 -11 z "},"ệ":{"ha":876,"x_min":44,"x_max":832,"o":"m 471 -11 q 247 39 343 -11 q 97 176 150 89 q 44 374 44 263 q 97 573 44 486 q 239 709 149 660 q 443 758 329 758 q 641 712 553 758 q 781 578 729 665 q 832 371 832 492 q 831 342 832 358 q 828 313 829 326 l 221 313 l 221 439 l 714 439 l 631 401 q 607 503 631 460 q 542 570 583 546 q 444 594 500 594 q 347 570 389 594 q 281 502 304 546 q 257 399 257 458 l 257 365 q 284 258 257 304 q 360 187 311 211 q 476 163 410 163 q 581 181 536 163 q 664 235 626 199 l 779 110 q 650 20 728 51 q 471 -11 572 -11 m 439 -292 q 371 -267 399 -292 q 343 -199 343 -242 q 371 -128 343 -156 q 439 -101 399 -101 q 507 -128 479 -101 q 535 -199 535 -156 q 507 -267 535 -242 q 439 -292 479 -292 m 160 843 l 343 1043 l 535 1043 l 718 843 l 560 843 l 368 1010 l 510 1010 l 318 843 l 160 843 z "},"ề":{"ha":876,"x_min":44,"x_max":844,"o":"m 471 -11 q 247 39 343 -11 q 97 176 150 89 q 44 374 44 263 q 97 573 44 486 q 239 709 149 660 q 443 758 329 758 q 641 712 553 758 q 781 578 729 665 q 832 371 832 492 q 831 342 832 358 q 828 313 829 326 l 221 313 l 221 439 l 714 439 l 631 401 q 607 503 631 460 q 542 570 583 546 q 444 594 500 594 q 347 570 389 594 q 281 502 304 546 q 257 399 257 458 l 257 365 q 284 258 257 304 q 360 187 311 211 q 476 163 410 163 q 581 181 536 163 q 664 235 626 199 l 779 110 q 650 20 728 51 q 471 -11 572 -11 z "},"ể":{"ha":876,"x_min":44,"x_max":832,"o":"m 471 -11 q 247 39 343 -11 q 97 176 150 89 q 44 374 44 263 q 97 573 44 486 q 239 709 149 660 q 443 758 329 758 q 641 712 553 758 q 781 578 729 665 q 832 371 832 492 q 831 342 832 358 q 828 313 829 326 l 221 313 l 221 439 l 714 439 l 631 401 q 607 503 631 460 q 542 570 583 546 q 444 594 500 594 q 347 570 389 594 q 281 502 304 546 q 257 399 257 458 l 257 365 q 284 258 257 304 q 360 187 311 211 q 476 163 410 163 q 581 181 536 163 q 664 235 626 199 l 779 110 q 650 20 728 51 q 471 -11 572 -11 z "},"ễ":{"ha":876,"x_min":44,"x_max":832,"o":"m 471 -11 q 247 39 343 -11 q 97 176 150 89 q 44 374 44 263 q 97 573 44 486 q 239 709 149 660 q 443 758 329 758 q 641 712 553 758 q 781 578 729 665 q 832 371 832 492 q 831 342 832 358 q 828 313 829 326 l 221 313 l 221 439 l 714 439 l 631 401 q 607 503 631 460 q 542 570 583 546 q 444 594 500 594 q 347 570 389 594 q 281 502 304 546 q 257 399 257 458 l 257 365 q 284 258 257 304 q 360 187 311 211 q 476 163 410 163 q 581 181 536 163 q 664 235 626 199 l 779 110 q 650 20 728 51 q 471 -11 572 -11 z "},"ȅ":{"ha":876,"x_min":44,"x_max":832,"o":"m 471 -11 q 247 39 343 -11 q 97 176 150 89 q 44 374 44 263 q 97 573 44 486 q 239 709 149 660 q 443 758 329 758 q 641 712 553 758 q 781 578 729 665 q 832 371 832 492 q 831 342 832 358 q 828 313 829 326 l 221 313 l 221 439 l 714 439 l 631 401 q 607 503 631 460 q 542 570 583 546 q 444 594 500 594 q 347 570 389 594 q 281 502 304 546 q 257 399 257 458 l 257 365 q 284 258 257 304 q 360 187 311 211 q 476 163 410 163 q 581 181 536 163 q 664 235 626 199 l 779 110 q 650 20 728 51 q 471 -11 572 -11 m 500 843 l 356 1043 l 558 1043 l 658 843 l 500 843 m 219 843 l 75 1043 l 278 1043 l 378 843 l 219 843 z "},"ë":{"ha":876,"x_min":44,"x_max":832,"o":"m 471 -11 q 247 39 343 -11 q 97 176 150 89 q 44 374 44 263 q 97 573 44 486 q 239 709 149 660 q 443 758 329 758 q 641 712 553 758 q 781 578 729 665 q 832 371 832 492 q 831 342 832 358 q 828 313 829 326 l 221 313 l 221 439 l 714 439 l 631 401 q 607 503 631 460 q 542 570 583 546 q 444 594 500 594 q 347 570 389 594 q 281 502 304 546 q 257 399 257 458 l 257 365 q 284 258 257 304 q 360 187 311 211 q 476 163 410 163 q 581 181 536 163 q 664 235 626 199 l 779 110 q 650 20 728 51 q 471 -11 572 -11 m 579 850 q 511 876 539 850 q 483 946 483 903 q 511 1015 483 989 q 579 1042 539 1042 q 648 1015 619 1042 q 676 946 676 989 q 648 876 676 903 q 579 850 619 850 m 299 850 q 230 876 258 850 q 201 946 201 903 q 230 1015 201 989 q 299 1042 258 1042 q 367 1015 339 1042 q 394 946 394 989 q 367 876 394 903 q 299 850 339 850 z "},"ė":{"ha":876,"x_min":44,"x_max":832,"o":"m 471 -11 q 247 39 343 -11 q 97 176 150 89 q 44 374 44 263 q 97 573 44 486 q 239 709 149 660 q 443 758 329 758 q 641 712 553 758 q 781 578 729 665 q 832 371 832 492 q 831 342 832 358 q 828 313 829 326 l 221 313 l 221 439 l 714 439 l 631 401 q 607 503 631 460 q 542 570 583 546 q 444 594 500 594 q 347 570 389 594 q 281 502 304 546 q 257 399 257 458 l 257 365 q 284 258 257 304 q 360 187 311 211 q 476 163 410 163 q 581 181 536 163 q 664 235 626 199 l 779 110 q 650 20 728 51 q 471 -11 572 -11 m 439 850 q 355 883 388 850 q 322 968 322 917 q 355 1051 322 1018 q 439 1085 388 1085 q 522 1051 489 1085 q 556 968 556 1018 q 522 883 556 917 q 439 850 489 850 z "},"ẹ":{"ha":876,"x_min":44,"x_max":832,"o":"m 471 -11 q 247 39 343 -11 q 97 176 150 89 q 44 374 44 263 q 97 573 44 486 q 239 709 149 660 q 443 758 329 758 q 641 712 553 758 q 781 578 729 665 q 832 371 832 492 q 831 342 832 358 q 828 313 829 326 l 221 313 l 221 439 l 714 439 l 631 401 q 607 503 631 460 q 542 570 583 546 q 444 594 500 594 q 347 570 389 594 q 281 502 304 546 q 257 399 257 458 l 257 365 q 284 258 257 304 q 360 187 311 211 q 476 163 410 163 q 581 181 536 163 q 664 235 626 199 l 779 110 q 650 20 728 51 q 471 -11 572 -11 m 439 -292 q 371 -267 399 -292 q 343 -199 343 -242 q 371 -128 343 -156 q 439 -101 399 -101 q 507 -128 479 -101 q 535 -199 535 -156 q 507 -267 535 -242 q 439 -292 479 -292 z "},"è":{"ha":876,"x_min":44,"x_max":832,"o":"m 471 -11 q 247 39 343 -11 q 97 176 150 89 q 44 374 44 263 q 97 573 44 486 q 239 709 149 660 q 443 758 329 758 q 641 712 553 758 q 781 578 729 665 q 832 371 832 492 q 831 342 832 358 q 828 313 829 326 l 221 313 l 221 439 l 714 439 l 631 401 q 607 503 631 460 q 542 570 583 546 q 444 594 500 594 q 347 570 389 594 q 281 502 304 546 q 257 399 257 458 l 257 365 q 284 258 257 304 q 360 187 311 211 q 476 163 410 163 q 581 181 536 163 q 664 235 626 199 l 779 110 q 650 20 728 51 q 471 -11 572 -11 m 396 843 l 144 1043 l 378 1043 l 565 843 l 396 843 z "},"ẻ":{"ha":876,"x_min":44,"x_max":832,"o":"m 471 -11 q 247 39 343 -11 q 97 176 150 89 q 44 374 44 263 q 97 573 44 486 q 239 709 149 660 q 443 758 329 758 q 641 712 553 758 q 781 578 729 665 q 832 371 832 492 q 831 342 832 358 q 828 313 829 326 l 221 313 l 221 439 l 714 439 l 631 401 q 607 503 631 460 q 542 570 583 546 q 444 594 500 594 q 347 570 389 594 q 281 502 304 546 q 257 399 257 458 l 257 365 q 284 258 257 304 q 360 187 311 211 q 476 163 410 163 q 581 181 536 163 q 664 235 626 199 l 779 110 q 650 20 728 51 q 471 -11 572 -11 m 481 829 l 413 901 q 468 942 453 921 q 483 986 483 963 q 465 1028 483 1013 q 418 1044 447 1044 q 336 1018 376 1044 l 290 1106 q 362 1141 322 1129 q 442 1153 401 1153 q 562 1112 515 1153 q 608 1004 608 1071 q 576 901 608 944 q 481 829 544 858 z "},"ȇ":{"ha":876,"x_min":44,"x_max":832,"o":"m 471 -11 q 247 39 343 -11 q 97 176 150 89 q 44 374 44 263 q 97 573 44 486 q 239 709 149 660 q 443 758 329 758 q 641 712 553 758 q 781 578 729 665 q 832 371 832 492 q 831 342 832 358 q 828 313 829 326 l 221 313 l 221 439 l 714 439 l 631 401 q 607 503 631 460 q 542 570 583 546 q 444 594 500 594 q 347 570 389 594 q 281 502 304 546 q 257 399 257 458 l 257 365 q 284 258 257 304 q 360 187 311 211 q 476 163 410 163 q 581 181 536 163 q 664 235 626 199 l 779 110 q 650 20 728 51 q 471 -11 572 -11 m 183 843 q 259 998 188 942 q 439 1054 331 1054 q 619 998 547 1054 q 694 843 690 942 l 558 843 q 522 915 557 889 q 439 942 488 942 q 356 915 390 942 q 319 843 322 889 l 183 843 z "},"ē":{"ha":876,"x_min":44,"x_max":832,"o":"m 471 -11 q 247 39 343 -11 q 97 176 150 89 q 44 374 44 263 q 97 573 44 486 q 239 709 149 660 q 443 758 329 758 q 641 712 553 758 q 781 578 729 665 q 832 371 832 492 q 831 342 832 358 q 828 313 829 326 l 221 313 l 221 439 l 714 439 l 631 401 q 607 503 631 460 q 542 570 583 546 q 444 594 500 594 q 347 570 389 594 q 281 502 304 546 q 257 399 257 458 l 257 365 q 284 258 257 304 q 360 187 311 211 q 476 163 410 163 q 581 181 536 163 q 664 235 626 199 l 779 110 q 650 20 728 51 q 471 -11 572 -11 m 182 882 l 182 1004 l 696 1004 l 696 882 l 182 882 z "},"ḗ":{"ha":876,"x_min":44,"x_max":832,"o":"m 471 -11 q 247 39 343 -11 q 97 176 150 89 q 44 374 44 263 q 97 573 44 486 q 239 709 149 660 q 443 758 329 758 q 641 712 553 758 q 781 578 729 665 q 832 371 832 492 q 831 342 832 358 q 828 313 829 326 l 221 313 l 221 439 l 714 439 l 631 401 q 607 503 631 460 q 542 570 583 546 q 444 594 500 594 q 347 570 389 594 q 281 502 304 546 q 257 399 257 458 l 257 365 q 284 258 257 304 q 360 187 311 211 q 476 163 410 163 q 581 181 536 163 q 664 235 626 199 l 779 110 q 650 20 728 51 q 471 -11 572 -11 z "},"ḕ":{"ha":876,"x_min":44,"x_max":832,"o":"m 471 -11 q 247 39 343 -11 q 97 176 150 89 q 44 374 44 263 q 97 573 44 486 q 239 709 149 660 q 443 758 329 758 q 641 712 553 758 q 781 578 729 665 q 832 371 832 492 q 831 342 832 358 q 828 313 829 326 l 221 313 l 221 439 l 714 439 l 631 401 q 607 503 631 460 q 542 570 583 546 q 444 594 500 594 q 347 570 389 594 q 281 502 304 546 q 257 399 257 458 l 257 365 q 284 258 257 304 q 360 187 311 211 q 476 163 410 163 q 581 181 536 163 q 664 235 626 199 l 779 110 q 650 20 728 51 q 471 -11 572 -11 z "},"ę":{"ha":876,"x_min":44,"x_max":832,"o":"m 624 -322 q 483 -278 533 -322 q 432 -161 432 -233 q 465 -53 432 -107 q 560 35 497 0 l 604 7 q 541 -6 575 -1 q 471 -11 507 -11 q 247 39 343 -11 q 97 176 150 89 q 44 374 44 263 q 97 573 44 486 q 239 709 149 660 q 443 758 329 758 q 641 712 553 758 q 781 578 729 665 q 832 371 832 492 q 831 342 832 358 q 828 313 829 326 l 221 313 l 221 439 l 714 439 l 631 401 q 607 503 631 460 q 542 570 583 546 q 444 594 500 594 q 347 570 389 594 q 281 502 304 546 q 257 399 257 458 l 257 365 q 284 258 257 304 q 360 187 311 211 q 476 163 410 163 q 581 181 536 163 q 664 235 626 199 l 781 110 q 754 83 768 96 q 724 60 740 71 q 628 -22 663 14 q 582 -85 594 -57 q 569 -142 569 -114 q 592 -194 569 -175 q 650 -212 614 -212 q 693 -206 671 -212 q 732 -192 715 -200 l 764 -290 q 700 -313 738 -304 q 624 -322 663 -322 z "},"ẽ":{"ha":876,"x_min":44,"x_max":832,"o":"m 471 -11 q 247 39 343 -11 q 97 176 150 89 q 44 374 44 263 q 97 573 44 486 q 239 709 149 660 q 443 758 329 758 q 641 712 553 758 q 781 578 729 665 q 832 371 832 492 q 831 342 832 358 q 828 313 829 326 l 221 313 l 221 439 l 714 439 l 631 401 q 607 503 631 460 q 542 570 583 546 q 444 594 500 594 q 347 570 389 594 q 281 502 304 546 q 257 399 257 458 l 257 365 q 284 258 257 304 q 360 187 311 211 q 476 163 410 163 q 581 181 536 163 q 664 235 626 199 l 779 110 q 650 20 728 51 q 471 -11 572 -11 m 543 839 q 479 852 507 839 q 429 883 451 865 q 388 913 407 900 q 349 926 368 926 q 303 906 321 926 q 282 849 285 886 l 172 849 q 218 997 175 942 q 335 1051 261 1051 q 399 1038 371 1051 q 449 1007 426 1025 q 492 976 472 989 q 529 963 511 963 q 576 983 558 963 q 596 1038 594 1003 l 706 1038 q 660 894 704 949 q 543 839 617 839 z "},"ə":{"ha":876,"x_min":44,"x_max":832,"o":"m 407 758 q 631 708 536 758 q 779 572 726 658 q 832 374 832 486 q 780 174 832 261 q 638 38 728 88 q 433 -11 549 -11 q 235 35 324 -11 q 96 169 147 82 q 44 376 44 257 q 46 405 44 389 q 49 435 47 421 l 656 435 l 656 308 l 163 308 l 247 346 q 271 245 247 289 q 336 177 294 201 q 433 153 378 153 q 531 177 489 153 q 597 246 574 201 q 619 349 619 290 l 619 382 q 592 490 619 444 q 516 560 565 536 q 400 585 467 585 q 297 567 342 585 q 213 513 251 549 l 97 638 q 227 728 149 697 q 407 758 306 758 z "},"ʒ":{"ha":769,"x_min":-25,"x_max":736,"o":"m 338 -281 q 138 -252 235 -281 q -25 -172 40 -224 l 51 1 q 179 -68 106 -43 q 329 -93 253 -93 q 465 -58 417 -93 q 513 43 513 -22 q 469 140 513 104 q 332 176 426 176 l 229 176 l 229 321 l 501 646 l 521 568 l 14 568 l 14 747 l 689 747 l 689 601 l 417 275 l 313 340 l 376 340 q 645 258 554 340 q 736 43 736 175 q 693 -117 736 -43 q 563 -235 650 -190 q 338 -281 475 -281 z "},"ǯ":{"ha":769,"x_min":-25,"x_max":736,"o":"m 338 -281 q 138 -252 235 -281 q -25 -172 40 -224 l 51 1 q 179 -68 106 -43 q 329 -93 253 -93 q 465 -58 417 -93 q 513 43 513 -22 q 469 140 513 104 q 332 176 426 176 l 229 176 l 229 321 l 501 646 l 521 568 l 14 568 l 14 747 l 689 747 l 689 601 l 417 275 l 313 340 l 376 340 q 645 258 554 340 q 736 43 736 175 q 693 -117 736 -43 q 563 -235 650 -190 q 338 -281 475 -281 m 244 843 l 61 1043 l 219 1043 l 411 878 l 269 878 l 461 1043 l 619 1043 l 436 843 l 244 843 z "},"f":{"ha":538,"x_min":11,"x_max":581,"o":"m 126 0 l 126 764 q 201 966 126 890 q 415 1042 276 1042 q 506 1032 463 1042 q 581 1001 550 1022 l 524 844 q 483 864 506 857 q 436 871 461 871 q 363 844 389 871 q 338 763 338 817 l 338 693 l 343 600 l 343 0 l 126 0 m 11 564 l 11 731 l 529 731 l 529 564 l 11 564 z "},"g":{"ha":972,"x_min":44,"x_max":871,"o":"m 451 -281 q 248 -255 346 -281 q 85 -178 150 -229 l 171 -22 q 291 -84 218 -61 q 435 -107 364 -107 q 602 -56 550 -107 q 654 97 654 -4 l 654 210 l 668 397 l 665 586 l 665 747 l 871 747 l 871 125 q 763 -182 871 -83 q 451 -281 654 -281 m 418 36 q 230 81 314 36 q 95 208 146 126 q 44 397 44 289 q 95 588 44 507 q 230 714 146 669 q 418 758 314 758 q 585 720 513 758 q 697 602 657 682 q 738 397 738 522 q 697 194 738 274 q 585 75 657 114 q 418 36 513 36 m 461 214 q 563 237 518 214 q 632 301 607 260 q 657 397 657 343 q 632 494 657 453 q 563 558 607 535 q 461 581 518 581 q 360 558 404 581 q 290 494 315 535 q 264 397 264 453 q 290 301 264 343 q 360 237 315 260 q 461 214 404 214 z "},"ğ":{"ha":972,"x_min":44,"x_max":871,"o":"m 451 -281 q 248 -255 346 -281 q 85 -178 150 -229 l 171 -22 q 291 -84 218 -61 q 435 -107 364 -107 q 602 -56 550 -107 q 654 97 654 -4 l 654 210 l 668 397 l 665 586 l 665 747 l 871 747 l 871 125 q 763 -182 871 -83 q 451 -281 654 -281 m 418 36 q 230 81 314 36 q 95 208 146 126 q 44 397 44 289 q 95 588 44 507 q 230 714 146 669 q 418 758 314 758 q 585 720 513 758 q 697 602 657 682 q 738 397 738 522 q 697 194 738 274 q 585 75 657 114 q 418 36 513 36 m 461 214 q 563 237 518 214 q 632 301 607 260 q 657 397 657 343 q 632 494 657 453 q 563 558 607 535 q 461 581 518 581 q 360 558 404 581 q 290 494 315 535 q 264 397 264 453 q 290 301 264 343 q 360 237 315 260 q 461 214 404 214 m 474 832 q 294 889 365 832 q 218 1043 222 946 l 354 1043 q 391 971 357 997 q 474 944 425 944 q 557 971 522 944 q 593 1043 592 997 l 729 1043 q 653 889 725 946 q 474 832 582 832 z "},"ǧ":{"ha":972,"x_min":44,"x_max":871,"o":"m 451 -281 q 248 -255 346 -281 q 85 -178 150 -229 l 171 -22 q 291 -84 218 -61 q 435 -107 364 -107 q 602 -56 550 -107 q 654 97 654 -4 l 654 210 l 668 397 l 665 586 l 665 747 l 871 747 l 871 125 q 763 -182 871 -83 q 451 -281 654 -281 m 418 36 q 230 81 314 36 q 95 208 146 126 q 44 397 44 289 q 95 588 44 507 q 230 714 146 669 q 418 758 314 758 q 585 720 513 758 q 697 602 657 682 q 738 397 738 522 q 697 194 738 274 q 585 75 657 114 q 418 36 513 36 m 461 214 q 563 237 518 214 q 632 301 607 260 q 657 397 657 343 q 632 494 657 453 q 563 558 607 535 q 461 581 518 581 q 360 558 404 581 q 290 494 315 535 q 264 397 264 453 q 290 301 264 343 q 360 237 315 260 q 461 214 404 214 m 378 843 l 194 1043 l 353 1043 l 544 878 l 403 878 l 594 1043 l 753 1043 l 569 843 l 378 843 z "},"ĝ":{"ha":972,"x_min":44,"x_max":871,"o":"m 451 -281 q 248 -255 346 -281 q 85 -178 150 -229 l 171 -22 q 291 -84 218 -61 q 435 -107 364 -107 q 602 -56 550 -107 q 654 97 654 -4 l 654 210 l 668 397 l 665 586 l 665 747 l 871 747 l 871 125 q 763 -182 871 -83 q 451 -281 654 -281 m 418 36 q 230 81 314 36 q 95 208 146 126 q 44 397 44 289 q 95 588 44 507 q 230 714 146 669 q 418 758 314 758 q 585 720 513 758 q 697 602 657 682 q 738 397 738 522 q 697 194 738 274 q 585 75 657 114 q 418 36 513 36 m 461 214 q 563 237 518 214 q 632 301 607 260 q 657 397 657 343 q 632 494 657 453 q 563 558 607 535 q 461 581 518 581 q 360 558 404 581 q 290 494 315 535 q 264 397 264 453 q 290 301 264 343 q 360 237 315 260 q 461 214 404 214 m 194 843 l 378 1043 l 569 1043 l 753 843 l 594 843 l 403 1010 l 544 1010 l 353 843 l 194 843 z "},"ģ":{"ha":972,"x_min":44,"x_max":871,"o":"m 451 -281 q 248 -255 346 -281 q 85 -178 150 -229 l 171 -22 q 291 -84 218 -61 q 435 -107 364 -107 q 602 -56 550 -107 q 654 97 654 -4 l 654 210 l 668 397 l 665 586 l 665 747 l 871 747 l 871 125 q 763 -182 871 -83 q 451 -281 654 -281 m 418 36 q 230 81 314 36 q 95 208 146 126 q 44 397 44 289 q 95 588 44 507 q 230 714 146 669 q 418 758 314 758 q 585 720 513 758 q 697 602 657 682 q 738 397 738 522 q 697 194 738 274 q 585 75 657 114 q 418 36 513 36 m 461 214 q 563 237 518 214 q 632 301 607 260 q 657 397 657 343 q 632 494 657 453 q 563 558 607 535 q 461 581 518 581 q 360 558 404 581 q 290 494 315 535 q 264 397 264 453 q 290 301 264 343 q 360 237 315 260 q 461 214 404 214 m 474 832 q 391 856 418 832 q 364 915 364 879 q 370 953 364 932 q 393 1004 376 974 l 456 1129 l 572 1129 l 501 922 l 474 996 q 556 974 528 996 q 583 915 583 953 q 556 855 583 878 q 474 832 529 832 z "},"ġ":{"ha":972,"x_min":44,"x_max":871,"o":"m 451 -281 q 248 -255 346 -281 q 85 -178 150 -229 l 171 -22 q 291 -84 218 -61 q 435 -107 364 -107 q 602 -56 550 -107 q 654 97 654 -4 l 654 210 l 668 397 l 665 586 l 665 747 l 871 747 l 871 125 q 763 -182 871 -83 q 451 -281 654 -281 m 418 36 q 230 81 314 36 q 95 208 146 126 q 44 397 44 289 q 95 588 44 507 q 230 714 146 669 q 418 758 314 758 q 585 720 513 758 q 697 602 657 682 q 738 397 738 522 q 697 194 738 274 q 585 75 657 114 q 418 36 513 36 m 461 214 q 563 237 518 214 q 632 301 607 260 q 657 397 657 343 q 632 494 657 453 q 563 558 607 535 q 461 581 518 581 q 360 558 404 581 q 290 494 315 535 q 264 397 264 453 q 290 301 264 343 q 360 237 315 260 q 461 214 404 214 m 474 850 q 390 883 422 850 q 357 968 357 917 q 390 1051 357 1018 q 474 1085 422 1085 q 557 1051 524 1085 q 590 968 590 1018 q 557 883 590 917 q 474 850 524 850 z "},"ḡ":{"ha":972,"x_min":44,"x_max":871,"o":"m 451 -281 q 248 -255 346 -281 q 85 -178 150 -229 l 171 -22 q 291 -84 218 -61 q 435 -107 364 -107 q 602 -56 550 -107 q 654 97 654 -4 l 654 210 l 668 397 l 665 586 l 665 747 l 871 747 l 871 125 q 763 -182 871 -83 q 451 -281 654 -281 m 418 36 q 230 81 314 36 q 95 208 146 126 q 44 397 44 289 q 95 588 44 507 q 230 714 146 669 q 418 758 314 758 q 585 720 513 758 q 697 602 657 682 q 738 397 738 522 q 697 194 738 274 q 585 75 657 114 q 418 36 513 36 m 461 214 q 563 237 518 214 q 632 301 607 260 q 657 397 657 343 q 632 494 657 453 q 563 558 607 535 q 461 581 518 581 q 360 558 404 581 q 290 494 315 535 q 264 397 264 453 q 290 301 264 343 q 360 237 315 260 q 461 214 404 214 m 217 882 l 217 1004 l 731 1004 l 731 882 l 217 882 z "},"ǥ":{"ha":988,"x_min":44,"x_max":960,"o":"m 449 -281 q 247 -254 344 -281 q 85 -178 149 -228 l 171 -28 q 289 -89 217 -65 q 436 -112 361 -112 q 601 -62 549 -112 q 654 92 654 -11 l 654 204 l 668 397 l 665 586 l 665 747 l 871 747 l 871 125 q 764 -181 871 -81 q 449 -281 657 -281 m 379 -53 l 379 53 l 960 54 l 960 -53 l 379 -53 m 413 90 q 222 133 304 90 q 92 251 139 176 q 44 425 44 326 q 92 599 44 524 q 222 715 139 674 q 413 757 304 757 q 578 721 506 757 q 694 612 651 685 q 738 424 738 539 q 695 236 738 310 q 579 126 653 163 q 413 90 506 90 m 461 251 q 564 273 519 251 q 633 333 608 294 q 657 425 657 372 q 633 516 657 478 q 564 576 608 554 q 461 597 519 597 q 358 576 403 597 q 289 516 314 554 q 264 425 264 478 q 289 333 264 372 q 358 273 314 294 q 461 251 403 251 z "},"h":{"ha":960,"x_min":100,"x_max":864,"o":"m 554 758 q 713 723 643 758 q 824 615 783 688 q 864 428 864 542 l 864 0 l 647 0 l 647 394 q 608 528 647 485 q 496 571 568 571 q 403 549 444 571 q 340 483 363 528 q 317 369 317 439 l 317 0 l 100 0 l 100 1031 l 317 1031 l 317 540 l 268 603 q 383 718 308 678 q 554 758 458 758 z "},"ħ":{"ha":960,"x_min":0,"x_max":864,"o":"m 554 758 q 713 723 643 758 q 824 615 783 688 q 864 428 864 542 l 864 0 l 647 0 l 647 394 q 608 528 647 485 q 496 571 568 571 q 403 549 444 571 q 340 483 363 528 q 317 369 317 439 l 317 0 l 100 0 l 100 1031 l 317 1031 l 317 540 l 268 603 q 383 718 308 678 q 554 758 458 758 m 0 824 l 0 949 l 572 949 l 572 824 l 0 824 z "},"ḫ":{"ha":960,"x_min":100,"x_max":864,"o":"m 554 758 q 713 723 643 758 q 824 615 783 688 q 864 428 864 542 l 864 0 l 647 0 l 647 394 q 608 528 647 485 q 496 571 568 571 q 403 549 444 571 q 340 483 363 528 q 317 369 317 439 l 317 0 l 100 0 l 100 1031 l 317 1031 l 317 540 l 268 603 q 383 718 308 678 q 554 758 458 758 m 483 -301 q 304 -247 375 -301 q 228 -103 233 -193 l 357 -103 q 394 -171 358 -146 q 483 -196 431 -196 q 573 -171 538 -196 q 610 -103 608 -146 l 739 -103 q 663 -247 735 -193 q 483 -301 592 -301 z "},"ȟ":{"ha":960,"x_min":-71,"x_max":864,"o":"m 554 758 q 713 723 643 758 q 824 615 783 688 q 864 428 864 542 l 864 0 l 647 0 l 647 394 q 608 528 647 485 q 496 571 568 571 q 403 549 444 571 q 340 483 363 528 q 317 369 317 439 l 317 0 l 100 0 l 100 1031 l 317 1031 l 317 540 l 268 603 q 383 718 308 678 q 554 758 458 758 m 113 1126 l -71 1326 l 88 1326 l 279 1161 l 138 1161 l 329 1326 l 488 1326 l 304 1126 l 113 1126 z "},"ĥ":{"ha":960,"x_min":-71,"x_max":864,"o":"m 554 758 q 713 723 643 758 q 824 615 783 688 q 864 428 864 542 l 864 0 l 647 0 l 647 394 q 608 528 647 485 q 496 571 568 571 q 403 549 444 571 q 340 483 363 528 q 317 369 317 439 l 317 0 l 100 0 l 100 1031 l 317 1031 l 317 540 l 268 603 q 383 718 308 678 q 554 758 458 758 z "},"ḥ":{"ha":960,"x_min":100,"x_max":864,"o":"m 554 758 q 713 723 643 758 q 824 615 783 688 q 864 428 864 542 l 864 0 l 647 0 l 647 394 q 608 528 647 485 q 496 571 568 571 q 403 549 444 571 q 340 483 363 528 q 317 369 317 439 l 317 0 l 100 0 l 100 1031 l 317 1031 l 317 540 l 268 603 q 383 718 308 678 q 554 758 458 758 m 483 -292 q 415 -267 443 -292 q 388 -199 388 -242 q 415 -128 388 -156 q 483 -101 443 -101 q 551 -128 524 -101 q 579 -199 579 -156 q 551 -267 579 -242 q 483 -292 524 -292 z "},"i":{"ha":418,"x_min":74,"x_max":344,"o":"m 100 0 l 100 747 l 317 747 l 317 0 l 100 0 m 208 851 q 111 886 149 851 q 74 972 74 921 q 111 1058 74 1024 q 208 1093 149 1093 q 306 1060 268 1093 q 343 976 343 1028 q 306 887 343 922 q 208 851 269 851 z "},"ı":{"ha":418,"x_min":100,"x_max":317,"o":"m 100 0 l 100 747 l 317 747 l 317 0 l 100 0 z "},"í":{"ha":418,"x_min":83,"x_max":503,"o":"m 100 0 l 100 747 l 317 747 l 317 0 l 100 0 m 82 843 l 269 1043 l 503 1043 l 251 843 l 82 843 z "},"ĭ":{"ha":418,"x_min":-12,"x_max":431,"o":"m 100 0 l 100 747 l 317 747 l 317 0 l 100 0 m 208 832 q 51 889 114 832 q -12 1043 -11 946 l 118 1043 q 142 970 118 997 q 208 943 165 943 q 275 970 251 943 q 299 1043 299 997 l 429 1043 q 366 889 428 946 q 208 832 304 832 z "},"î":{"ha":418,"x_min":-36,"x_max":453,"o":"m 100 0 l 100 747 l 317 747 l 317 0 l 100 0 m -36 843 l 115 1043 l 301 1043 l 453 843 l 299 843 l 143 1010 l 274 1010 l 118 843 l -36 843 z "},"ȉ":{"ha":418,"x_min":-156,"x_max":429,"o":"m 100 0 l 100 747 l 317 747 l 317 0 l 100 0 m 269 843 l 125 1043 l 328 1043 l 428 843 l 269 843 m -11 843 l -156 1043 l 47 1043 l 147 843 l -11 843 z "},"ï":{"ha":418,"x_min":4,"x_max":413,"o":"m 100 0 l 100 747 l 317 747 l 317 0 l 100 0 m 322 851 q 257 878 283 851 q 231 946 231 904 q 257 1014 231 988 q 322 1040 283 1040 q 387 1014 361 1040 q 413 946 413 988 q 387 878 413 904 q 322 851 361 851 m 94 851 q 31 878 57 851 q 4 946 4 904 q 31 1014 4 988 q 94 1040 57 1040 q 160 1014 133 1040 q 186 946 186 988 q 160 878 186 904 q 94 851 133 851 z "},"ḯ":{"ha":418,"x_min":-19,"x_max":464,"o":"m 100 0 l 100 747 l 317 747 l 317 0 l 100 0 z "},"ị":{"ha":418,"x_min":74,"x_max":344,"o":"m 100 0 l 100 747 l 317 747 l 317 0 l 100 0 m 208 851 q 111 886 149 851 q 74 972 74 921 q 111 1058 74 1024 q 208 1093 149 1093 q 306 1060 268 1093 q 343 976 343 1028 q 306 887 343 922 q 208 851 269 851 m 208 -292 q 140 -267 168 -292 q 113 -199 113 -242 q 140 -128 113 -156 q 208 -101 168 -101 q 276 -128 249 -101 q 304 -199 304 -156 q 276 -267 304 -242 q 208 -292 249 -292 z "},"ì":{"ha":418,"x_min":-86,"x_max":335,"o":"m 100 0 l 100 747 l 317 747 l 317 0 l 100 0 m 165 843 l -86 1043 l 147 1043 l 335 843 l 165 843 z "},"ỉ":{"ha":418,"x_min":61,"x_max":378,"o":"m 100 0 l 100 747 l 317 747 l 317 0 l 100 0 m 250 829 l 182 901 q 238 942 222 921 q 253 986 253 963 q 235 1028 253 1013 q 188 1044 217 1044 q 106 1018 146 1044 l 60 1106 q 131 1141 92 1129 q 211 1153 171 1153 q 331 1112 285 1153 q 378 1004 378 1071 q 346 901 378 944 q 250 829 314 858 z "},"ȋ":{"ha":418,"x_min":-12,"x_max":431,"o":"m 100 0 l 100 747 l 317 747 l 317 0 l 100 0 m -12 843 q 51 998 -11 942 q 208 1054 114 1054 q 366 998 304 1054 q 429 843 428 942 l 299 843 q 275 916 299 889 q 208 943 251 943 q 142 916 165 943 q 118 843 118 889 l -12 843 z "},"ĳ":{"ha":844,"x_min":74,"x_max":771,"o":"m 100 0 l 100 747 l 317 747 l 317 0 l 100 0 m 208 851 q 111 886 149 851 q 74 972 74 921 q 111 1058 74 1024 q 208 1093 149 1093 q 306 1060 268 1093 q 343 976 343 1028 q 306 887 343 922 q 208 851 269 851 z "},"ī":{"ha":418,"x_min":0,"x_max":417,"o":"m 100 0 l 100 747 l 317 747 l 317 0 l 100 0 m 0 882 l 0 1004 l 417 1004 l 417 882 l 0 882 z "},"į":{"ha":418,"x_min":74,"x_max":360,"o":"m 100 0 l 100 747 l 317 747 l 317 0 l 100 0 m 208 851 q 111 886 149 851 q 74 972 74 921 q 111 1058 74 1024 q 208 1093 149 1093 q 306 1060 268 1093 q 343 976 343 1028 q 306 887 343 922 q 208 851 269 851 m 258 -322 q 138 -280 183 -322 q 92 -168 92 -237 q 131 -45 92 -103 q 251 57 171 13 l 318 0 q 246 -78 264 -42 q 228 -147 228 -114 q 245 -194 228 -176 q 286 -212 263 -212 q 309 -209 297 -212 q 331 -199 321 -206 l 361 -293 q 258 -322 321 -322 z "},"ĩ":{"ha":418,"x_min":-21,"x_max":438,"o":"m 100 0 l 100 747 l 317 747 l 317 0 l 100 0 m 300 839 q 242 852 267 839 q 197 884 217 865 q 162 916 178 903 q 131 929 146 929 q 99 908 110 929 q 88 849 88 888 l -21 849 q 15 1000 -21 949 q 117 1051 51 1051 q 175 1038 150 1051 q 219 1006 200 1024 q 255 974 239 988 q 286 961 271 961 q 318 981 307 961 q 329 1038 329 1001 l 438 1038 q 401 890 438 942 q 300 839 365 839 z "},"j":{"ha":426,"x_min":-129,"x_max":353,"o":"m 44 -281 q -51 -270 -6 -281 q -129 -239 -97 -260 l -71 -82 q 21 -108 -33 -108 q 85 -81 61 -108 q 110 0 110 -54 l 110 747 l 326 747 l 326 1 q 253 -204 326 -128 q 44 -281 179 -281 m 218 851 q 121 886 158 851 q 83 972 83 921 q 121 1058 83 1024 q 218 1093 158 1093 q 315 1060 278 1093 q 353 976 353 1028 q 316 887 353 922 q 218 851 279 851 z "},"ȷ":{"ha":426,"x_min":-129,"x_max":326,"o":"m 44 -281 q -51 -270 -6 -281 q -129 -239 -97 -260 l -71 -82 q 21 -108 -33 -108 q 85 -81 61 -108 q 110 0 110 -54 l 110 747 l 326 747 l 326 1 q 253 -204 326 -128 q 44 -281 179 -281 z "},"ĵ":{"ha":426,"x_min":-129,"x_max":463,"o":"m 44 -281 q -51 -270 -6 -281 q -129 -239 -97 -260 l -71 -82 q 21 -108 -33 -108 q 85 -81 61 -108 q 110 0 110 -54 l 110 747 l 326 747 l 326 1 q 253 -204 326 -128 q 44 -281 179 -281 m -26 843 l 125 1043 l 311 1043 l 463 843 l 308 843 l 153 1010 l 283 1010 l 128 843 l -26 843 z "},"k":{"ha":917,"x_min":100,"x_max":919,"o":"m 279 153 l 285 417 l 633 747 l 892 747 l 557 407 l 444 315 l 279 153 m 100 0 l 100 1031 l 317 1031 l 317 0 l 100 0 m 657 0 l 404 314 l 540 482 l 919 0 l 657 0 z "},"ǩ":{"ha":917,"x_min":-71,"x_max":919,"o":"m 279 153 l 285 417 l 633 747 l 892 747 l 557 407 l 444 315 l 279 153 m 100 0 l 100 1031 l 317 1031 l 317 0 l 100 0 m 657 0 l 404 314 l 540 482 l 919 0 l 657 0 m 113 1126 l -71 1326 l 88 1326 l 279 1161 l 138 1161 l 329 1326 l 488 1326 l 304 1126 l 113 1126 z "},"ķ":{"ha":917,"x_min":100,"x_max":919,"o":"m 279 153 l 285 417 l 633 747 l 892 747 l 557 407 l 444 315 l 279 153 m 100 0 l 100 1031 l 317 1031 l 317 0 l 100 0 m 657 0 l 404 314 l 540 482 l 919 0 l 657 0 m 363 -369 l 418 -192 l 442 -265 q 370 -244 394 -265 q 346 -185 346 -222 q 372 -124 346 -147 q 442 -101 397 -101 q 512 -125 486 -101 q 538 -185 538 -149 q 533 -224 538 -201 q 513 -275 528 -246 l 464 -369 l 363 -369 z "},"ĸ":{"ha":896,"x_min":100,"x_max":919,"o":"m 279 153 l 285 417 l 633 747 l 892 747 l 557 407 l 444 315 l 279 153 m 100 0 l 100 747 l 317 747 l 317 0 l 100 0 m 657 0 l 404 314 l 540 482 l 919 0 l 657 0 z "},"l":{"ha":418,"x_min":100,"x_max":317,"o":"m 100 0 l 100 1031 l 317 1031 l 317 0 l 100 0 z "},"ĺ":{"ha":418,"x_min":83,"x_max":503,"o":"m 100 0 l 100 1031 l 317 1031 l 317 0 l 100 0 m 82 1126 l 269 1326 l 503 1326 l 251 1126 l 82 1126 z "},"ľ":{"ha":418,"x_min":100,"x_max":590,"o":"m 100 0 l 100 1031 l 317 1031 l 317 0 l 100 0 m 428 808 l 428 1088 l 590 1088 l 563 808 l 428 808 z "},"ļ":{"ha":418,"x_min":100,"x_max":317,"o":"m 100 0 l 100 1031 l 317 1031 l 317 0 l 100 0 m 129 -369 l 185 -192 l 208 -265 q 137 -244 161 -265 q 113 -185 113 -222 q 138 -124 113 -147 q 208 -101 164 -101 q 278 -125 253 -101 q 304 -185 304 -149 q 299 -224 304 -201 q 279 -275 294 -246 l 231 -369 l 129 -369 z "},"ŀ":{"ha":583,"x_min":100,"x_max":610,"o":"m 100 0 l 100 1031 l 317 1031 l 317 0 l 100 0 m 500 394 q 422 426 453 394 q 392 504 392 457 q 422 581 392 550 q 500 613 453 613 q 579 581 549 613 q 610 504 610 550 q 579 426 610 457 q 500 394 549 394 z "},"ḷ":{"ha":418,"x_min":100,"x_max":317,"o":"m 100 0 l 100 1031 l 317 1031 l 317 0 l 100 0 m 208 -292 q 140 -267 168 -292 q 113 -199 113 -242 q 140 -128 113 -156 q 208 -101 168 -101 q 276 -128 249 -101 q 304 -199 304 -156 q 276 -267 304 -242 q 208 -292 249 -292 z "},"ǉ":{"ha":844,"x_min":100,"x_max":771,"o":"m 100 0 l 100 1031 l 317 1031 l 317 0 l 100 0 m 463 -281 q 367 -270 413 -281 q 289 -239 321 -260 l 347 -82 q 439 -108 385 -108 q 503 -81 479 -108 q 528 0 528 -54 l 528 747 l 744 747 l 744 1 q 671 -204 744 -128 q 463 -281 597 -281 m 636 851 q 539 886 576 851 q 501 972 501 921 q 539 1058 501 1024 q 636 1093 576 1093 q 733 1060 696 1093 q 771 976 771 1028 q 734 887 771 922 q 636 851 697 851 z "},"ḻ":{"ha":418,"x_min":-47,"x_max":465,"o":"m 100 0 l 100 1031 l 317 1031 l 317 0 l 100 0 m -49 -253 l -49 -132 l 465 -132 l 465 -253 l -49 -253 z "},"ł":{"ha":454,"x_min":-37,"x_max":492,"o":"m 118 0 l 118 1031 l 335 1031 l 335 0 l 118 0 m 43 282 l -37 390 l 413 729 l 492 618 l 43 282 z "},"m":{"ha":1457,"x_min":100,"x_max":1363,"o":"m 1057 758 q 1215 723 1146 758 q 1323 615 1283 688 q 1363 428 1363 542 l 1363 0 l 1146 0 l 1146 394 q 1108 528 1146 485 q 1003 571 1071 571 q 918 549 956 571 q 860 485 881 528 q 839 375 839 442 l 839 0 l 622 0 l 622 394 q 585 528 622 485 q 481 571 549 571 q 396 549 433 571 q 338 485 358 528 q 317 375 317 442 l 317 0 l 100 0 l 100 747 l 307 747 l 307 543 l 268 603 q 378 719 307 679 q 542 758 450 758 q 722 706 644 758 q 824 547 799 654 l 747 568 q 867 707 785 656 q 1057 758 950 758 z "},"ṃ":{"ha":1457,"x_min":100,"x_max":1363,"o":"m 1057 758 q 1215 723 1146 758 q 1323 615 1283 688 q 1363 428 1363 542 l 1363 0 l 1146 0 l 1146 394 q 1108 528 1146 485 q 1003 571 1071 571 q 918 549 956 571 q 860 485 881 528 q 839 375 839 442 l 839 0 l 622 0 l 622 394 q 585 528 622 485 q 481 571 549 571 q 396 549 433 571 q 338 485 358 528 q 317 375 317 442 l 317 0 l 100 0 l 100 747 l 307 747 l 307 543 l 268 603 q 378 719 307 679 q 542 758 450 758 q 722 706 644 758 q 824 547 799 654 l 747 568 q 867 707 785 656 q 1057 758 950 758 m 729 -292 q 661 -267 689 -292 q 633 -199 633 -242 q 661 -128 633 -156 q 729 -101 689 -101 q 797 -128 769 -101 q 825 -199 825 -156 q 797 -267 825 -242 q 729 -292 769 -292 z "},"n":{"ha":960,"x_min":100,"x_max":864,"o":"m 554 758 q 713 723 643 758 q 824 615 783 688 q 864 428 864 542 l 864 0 l 647 0 l 647 394 q 608 528 647 485 q 496 571 568 571 q 403 549 444 571 q 340 483 363 528 q 317 369 317 439 l 317 0 l 100 0 l 100 747 l 307 747 l 307 540 l 268 603 q 383 718 308 678 q 554 758 458 758 z "},"ń":{"ha":960,"x_min":100,"x_max":864,"o":"m 554 758 q 713 723 643 758 q 824 615 783 688 q 864 428 864 542 l 864 0 l 647 0 l 647 394 q 608 528 647 485 q 496 571 568 571 q 403 549 444 571 q 340 483 363 528 q 317 369 317 439 l 317 0 l 100 0 l 100 747 l 307 747 l 307 540 l 268 603 q 383 718 308 678 q 554 758 458 758 m 357 843 l 544 1043 l 778 1043 l 526 843 l 357 843 z "},"ŉ":{"ha":1100,"x_min":-25,"x_max":1006,"o":"m 696 758 q 855 723 785 758 q 965 615 925 688 q 1006 428 1006 542 l 1006 0 l 789 0 l 789 394 q 749 528 789 485 q 638 571 710 571 q 545 549 586 571 q 481 483 504 528 q 458 369 458 439 l 458 0 l 242 0 l 242 747 l 449 747 l 449 540 l 410 603 q 525 718 450 678 q 696 758 600 758 z "},"ň":{"ha":960,"x_min":100,"x_max":864,"o":"m 554 758 q 713 723 643 758 q 824 615 783 688 q 864 428 864 542 l 864 0 l 647 0 l 647 394 q 608 528 647 485 q 496 571 568 571 q 403 549 444 571 q 340 483 363 528 q 317 369 317 439 l 317 0 l 100 0 l 100 747 l 307 747 l 307 540 l 268 603 q 383 718 308 678 q 554 758 458 758 m 388 843 l 204 1043 l 363 1043 l 554 878 l 413 878 l 604 1043 l 763 1043 l 579 843 l 388 843 z "},"ņ":{"ha":960,"x_min":100,"x_max":864,"o":"m 554 758 q 713 723 643 758 q 824 615 783 688 q 864 428 864 542 l 864 0 l 647 0 l 647 394 q 608 528 647 485 q 496 571 568 571 q 403 549 444 571 q 340 483 363 528 q 317 369 317 439 l 317 0 l 100 0 l 100 747 l 307 747 l 307 540 l 268 603 q 383 718 308 678 q 554 758 458 758 m 404 -369 l 460 -192 l 483 -265 q 412 -244 436 -265 q 388 -185 388 -222 q 413 -124 388 -147 q 483 -101 439 -101 q 553 -125 528 -101 q 579 -185 579 -149 q 574 -224 579 -201 q 554 -275 569 -246 l 506 -369 l 404 -369 z "},"ṅ":{"ha":960,"x_min":100,"x_max":864,"o":"m 554 758 q 713 723 643 758 q 824 615 783 688 q 864 428 864 542 l 864 0 l 647 0 l 647 394 q 608 528 647 485 q 496 571 568 571 q 403 549 444 571 q 340 483 363 528 q 317 369 317 439 l 317 0 l 100 0 l 100 747 l 307 747 l 307 540 l 268 603 q 383 718 308 678 q 554 758 458 758 m 483 850 q 399 883 432 850 q 367 968 367 917 q 399 1051 367 1018 q 483 1085 432 1085 q 567 1051 533 1085 q 600 968 600 1018 q 567 883 600 917 q 483 850 533 850 z "},"ṇ":{"ha":960,"x_min":100,"x_max":864,"o":"m 554 758 q 713 723 643 758 q 824 615 783 688 q 864 428 864 542 l 864 0 l 647 0 l 647 394 q 608 528 647 485 q 496 571 568 571 q 403 549 444 571 q 340 483 363 528 q 317 369 317 439 l 317 0 l 100 0 l 100 747 l 307 747 l 307 540 l 268 603 q 383 718 308 678 q 554 758 458 758 m 483 -292 q 415 -267 443 -292 q 388 -199 388 -242 q 415 -128 388 -156 q 483 -101 443 -101 q 551 -128 524 -101 q 579 -199 579 -156 q 551 -267 579 -242 q 483 -292 524 -292 z "},"ŋ":{"ha":960,"x_min":100,"x_max":864,"o":"m 554 758 q 713 723 643 758 q 824 615 783 688 q 864 428 864 542 l 864 1 q 791 -204 864 -128 q 583 -281 718 -281 q 486 -270 532 -281 q 408 -239 440 -260 l 467 -82 q 558 -108 504 -108 q 624 -81 600 -108 q 647 0 647 -54 l 647 394 q 608 528 647 485 q 496 571 568 571 q 403 549 444 571 q 340 483 363 528 q 317 369 317 439 l 317 0 l 100 0 l 100 747 l 307 747 l 307 540 l 268 603 q 383 718 308 678 q 554 758 458 758 z "},"ǌ":{"ha":1385,"x_min":100,"x_max":1311,"o":"m 554 758 q 713 723 643 758 q 824 615 783 688 q 864 428 864 542 l 864 0 l 647 0 l 647 394 q 608 528 647 485 q 496 571 568 571 q 403 549 444 571 q 340 483 363 528 q 317 369 317 439 l 317 0 l 100 0 l 100 747 l 307 747 l 307 540 l 268 603 q 383 718 308 678 q 554 758 458 758 m 1004 -281 q 908 -270 954 -281 q 831 -239 863 -260 l 889 -82 q 981 -108 926 -108 q 1045 -81 1021 -108 q 1069 0 1069 -54 l 1069 747 l 1286 747 l 1286 1 q 1213 -204 1286 -128 q 1004 -281 1139 -281 m 1178 851 q 1081 886 1118 851 q 1043 972 1043 921 q 1081 1058 1043 1024 q 1178 1093 1118 1093 q 1275 1060 1238 1093 q 1313 976 1313 1028 q 1276 887 1313 922 q 1178 851 1239 851 z "},"ṉ":{"ha":960,"x_min":100,"x_max":864,"o":"m 554 758 q 713 723 643 758 q 824 615 783 688 q 864 428 864 542 l 864 0 l 647 0 l 647 394 q 608 528 647 485 q 496 571 568 571 q 403 549 444 571 q 340 483 363 528 q 317 369 317 439 l 317 0 l 100 0 l 100 747 l 307 747 l 307 540 l 268 603 q 383 718 308 678 q 554 758 458 758 m 226 -253 l 226 -132 l 740 -132 l 740 -253 l 226 -253 z "},"ñ":{"ha":960,"x_min":100,"x_max":864,"o":"m 554 758 q 713 723 643 758 q 824 615 783 688 q 864 428 864 542 l 864 0 l 647 0 l 647 394 q 608 528 647 485 q 496 571 568 571 q 403 549 444 571 q 340 483 363 528 q 317 369 317 439 l 317 0 l 100 0 l 100 747 l 307 747 l 307 540 l 268 603 q 383 718 308 678 q 554 758 458 758 m 588 839 q 524 852 551 839 q 474 883 496 865 q 432 913 451 900 q 393 926 413 926 q 347 906 365 926 q 326 849 329 886 l 217 849 q 263 997 219 942 q 379 1051 306 1051 q 443 1038 415 1051 q 494 1007 471 1025 q 536 976 517 989 q 574 963 556 963 q 621 983 603 963 q 640 1038 639 1003 l 750 1038 q 705 894 749 949 q 588 839 661 839 z "},"o":{"ha":910,"x_min":44,"x_max":865,"o":"m 456 -11 q 244 39 336 -11 q 98 176 151 89 q 44 374 44 263 q 98 573 44 486 q 244 709 151 660 q 456 758 336 758 q 667 709 574 758 q 813 574 760 660 q 865 374 865 488 q 813 176 865 263 q 667 39 760 89 q 456 -11 574 -11 m 456 167 q 553 192 510 167 q 621 263 596 217 q 646 374 646 310 q 621 485 646 439 q 553 556 596 531 q 456 581 510 581 q 358 556 401 581 q 290 485 315 531 q 264 374 264 439 q 290 263 264 310 q 358 192 315 217 q 456 167 401 167 z "},"ó":{"ha":910,"x_min":44,"x_max":865,"o":"m 456 -11 q 244 39 336 -11 q 98 176 151 89 q 44 374 44 263 q 98 573 44 486 q 244 709 151 660 q 456 758 336 758 q 667 709 574 758 q 813 574 760 660 q 865 374 865 488 q 813 176 865 263 q 667 39 760 89 q 456 -11 574 -11 m 456 167 q 553 192 510 167 q 621 263 596 217 q 646 374 646 310 q 621 485 646 439 q 553 556 596 531 q 456 581 510 581 q 358 556 401 581 q 290 485 315 531 q 264 374 264 439 q 290 263 264 310 q 358 192 315 217 q 456 167 401 167 m 326 843 l 514 1043 l 747 1043 l 496 843 l 326 843 z "},"ŏ":{"ha":910,"x_min":44,"x_max":865,"o":"m 456 -11 q 244 39 336 -11 q 98 176 151 89 q 44 374 44 263 q 98 573 44 486 q 244 709 151 660 q 456 758 336 758 q 667 709 574 758 q 813 574 760 660 q 865 374 865 488 q 813 176 865 263 q 667 39 760 89 q 456 -11 574 -11 m 456 167 q 553 192 510 167 q 621 263 596 217 q 646 374 646 310 q 621 485 646 439 q 553 556 596 531 q 456 581 510 581 q 358 556 401 581 q 290 485 315 531 q 264 374 264 439 q 290 263 264 310 q 358 192 315 217 q 456 167 401 167 m 453 832 q 273 889 344 832 q 197 1043 201 946 l 333 1043 q 370 971 336 997 q 453 944 404 944 q 536 971 501 944 q 572 1043 571 997 l 708 1043 q 633 889 704 946 q 453 832 561 832 z "},"ô":{"ha":910,"x_min":44,"x_max":865,"o":"m 456 -11 q 244 39 336 -11 q 98 176 151 89 q 44 374 44 263 q 98 573 44 486 q 244 709 151 660 q 456 758 336 758 q 667 709 574 758 q 813 574 760 660 q 865 374 865 488 q 813 176 865 263 q 667 39 760 89 q 456 -11 574 -11 m 456 167 q 553 192 510 167 q 621 263 596 217 q 646 374 646 310 q 621 485 646 439 q 553 556 596 531 q 456 581 510 581 q 358 556 401 581 q 290 485 315 531 q 264 374 264 439 q 290 263 264 310 q 358 192 315 217 q 456 167 401 167 m 174 843 l 357 1043 l 549 1043 l 732 843 l 574 843 l 382 1010 l 524 1010 l 332 843 l 174 843 z "},"ố":{"ha":910,"x_min":44,"x_max":993,"o":"m 456 -11 q 244 39 336 -11 q 98 176 151 89 q 44 374 44 263 q 98 573 44 486 q 244 709 151 660 q 456 758 336 758 q 667 709 574 758 q 813 574 760 660 q 865 374 865 488 q 813 176 865 263 q 667 39 760 89 q 456 -11 574 -11 m 456 167 q 553 192 510 167 q 621 263 596 217 q 646 374 646 310 q 621 485 646 439 q 553 556 596 531 q 456 581 510 581 q 358 556 401 581 q 290 485 315 531 q 264 374 264 439 q 290 263 264 310 q 358 192 315 217 q 456 167 401 167 z "},"ộ":{"ha":910,"x_min":44,"x_max":865,"o":"m 456 -11 q 244 39 336 -11 q 98 176 151 89 q 44 374 44 263 q 98 573 44 486 q 244 709 151 660 q 456 758 336 758 q 667 709 574 758 q 813 574 760 660 q 865 374 865 488 q 813 176 865 263 q 667 39 760 89 q 456 -11 574 -11 m 456 167 q 553 192 510 167 q 621 263 596 217 q 646 374 646 310 q 621 485 646 439 q 553 556 596 531 q 456 581 510 581 q 358 556 401 581 q 290 485 315 531 q 264 374 264 439 q 290 263 264 310 q 358 192 315 217 q 456 167 401 167 m 453 -292 q 385 -267 413 -292 q 357 -199 357 -242 q 385 -128 357 -156 q 453 -101 413 -101 q 521 -128 493 -101 q 549 -199 549 -156 q 521 -267 549 -242 q 453 -292 493 -292 m 174 843 l 357 1043 l 549 1043 l 732 843 l 574 843 l 382 1010 l 524 1010 l 332 843 l 174 843 z "},"ồ":{"ha":910,"x_min":44,"x_max":865,"o":"m 456 -11 q 244 39 336 -11 q 98 176 151 89 q 44 374 44 263 q 98 573 44 486 q 244 709 151 660 q 456 758 336 758 q 667 709 574 758 q 813 574 760 660 q 865 374 865 488 q 813 176 865 263 q 667 39 760 89 q 456 -11 574 -11 m 456 167 q 553 192 510 167 q 621 263 596 217 q 646 374 646 310 q 621 485 646 439 q 553 556 596 531 q 456 581 510 581 q 358 556 401 581 q 290 485 315 531 q 264 374 264 439 q 290 263 264 310 q 358 192 315 217 q 456 167 401 167 z "},"ổ":{"ha":910,"x_min":44,"x_max":865,"o":"m 456 -11 q 244 39 336 -11 q 98 176 151 89 q 44 374 44 263 q 98 573 44 486 q 244 709 151 660 q 456 758 336 758 q 667 709 574 758 q 813 574 760 660 q 865 374 865 488 q 813 176 865 263 q 667 39 760 89 q 456 -11 574 -11 m 456 167 q 553 192 510 167 q 621 263 596 217 q 646 374 646 310 q 621 485 646 439 q 553 556 596 531 q 456 581 510 581 q 358 556 401 581 q 290 485 315 531 q 264 374 264 439 q 290 263 264 310 q 358 192 315 217 q 456 167 401 167 z "},"ỗ":{"ha":910,"x_min":44,"x_max":865,"o":"m 456 -11 q 244 39 336 -11 q 98 176 151 89 q 44 374 44 263 q 98 573 44 486 q 244 709 151 660 q 456 758 336 758 q 667 709 574 758 q 813 574 760 660 q 865 374 865 488 q 813 176 865 263 q 667 39 760 89 q 456 -11 574 -11 m 456 167 q 553 192 510 167 q 621 263 596 217 q 646 374 646 310 q 621 485 646 439 q 553 556 596 531 q 456 581 510 581 q 358 556 401 581 q 290 485 315 531 q 264 374 264 439 q 290 263 264 310 q 358 192 315 217 q 456 167 401 167 z "},"ȍ":{"ha":910,"x_min":44,"x_max":865,"o":"m 456 -11 q 244 39 336 -11 q 98 176 151 89 q 44 374 44 263 q 98 573 44 486 q 244 709 151 660 q 456 758 336 758 q 667 709 574 758 q 813 574 760 660 q 865 374 865 488 q 813 176 865 263 q 667 39 760 89 q 456 -11 574 -11 m 456 167 q 553 192 510 167 q 621 263 596 217 q 646 374 646 310 q 621 485 646 439 q 553 556 596 531 q 456 581 510 581 q 358 556 401 581 q 290 485 315 531 q 264 374 264 439 q 290 263 264 310 q 358 192 315 217 q 456 167 401 167 m 514 843 l 369 1043 l 572 1043 l 672 843 l 514 843 m 233 843 l 89 1043 l 292 1043 l 392 843 l 233 843 z "},"ö":{"ha":910,"x_min":44,"x_max":865,"o":"m 456 -11 q 244 39 336 -11 q 98 176 151 89 q 44 374 44 263 q 98 573 44 486 q 244 709 151 660 q 456 758 336 758 q 667 709 574 758 q 813 574 760 660 q 865 374 865 488 q 813 176 865 263 q 667 39 760 89 q 456 -11 574 -11 m 456 167 q 553 192 510 167 q 621 263 596 217 q 646 374 646 310 q 621 485 646 439 q 553 556 596 531 q 456 581 510 581 q 358 556 401 581 q 290 485 315 531 q 264 374 264 439 q 290 263 264 310 q 358 192 315 217 q 456 167 401 167 m 593 850 q 525 876 553 850 q 497 946 497 903 q 525 1015 497 989 q 593 1042 553 1042 q 662 1015 633 1042 q 690 946 690 989 q 662 876 690 903 q 593 850 633 850 m 313 850 q 244 876 272 850 q 215 946 215 903 q 244 1015 215 989 q 313 1042 272 1042 q 381 1015 353 1042 q 408 946 408 989 q 381 876 408 903 q 313 850 353 850 z "},"ȫ":{"ha":910,"x_min":44,"x_max":865,"o":"m 456 -11 q 244 39 336 -11 q 98 176 151 89 q 44 374 44 263 q 98 573 44 486 q 244 709 151 660 q 456 758 336 758 q 667 709 574 758 q 813 574 760 660 q 865 374 865 488 q 813 176 865 263 q 667 39 760 89 q 456 -11 574 -11 m 456 167 q 553 192 510 167 q 621 263 596 217 q 646 374 646 310 q 621 485 646 439 q 553 556 596 531 q 456 581 510 581 q 358 556 401 581 q 290 485 315 531 q 264 374 264 439 q 290 263 264 310 q 358 192 315 217 q 456 167 401 167 z "},"ȱ":{"ha":910,"x_min":44,"x_max":865,"o":"m 456 -11 q 244 39 336 -11 q 98 176 151 89 q 44 374 44 263 q 98 573 44 486 q 244 709 151 660 q 456 758 336 758 q 667 709 574 758 q 813 574 760 660 q 865 374 865 488 q 813 176 865 263 q 667 39 760 89 q 456 -11 574 -11 m 456 167 q 553 192 510 167 q 621 263 596 217 q 646 374 646 310 q 621 485 646 439 q 553 556 596 531 q 456 581 510 581 q 358 556 401 581 q 290 485 315 531 q 264 374 264 439 q 290 263 264 310 q 358 192 315 217 q 456 167 401 167 z "},"ọ":{"ha":910,"x_min":44,"x_max":865,"o":"m 456 -11 q 244 39 336 -11 q 98 176 151 89 q 44 374 44 263 q 98 573 44 486 q 244 709 151 660 q 456 758 336 758 q 667 709 574 758 q 813 574 760 660 q 865 374 865 488 q 813 176 865 263 q 667 39 760 89 q 456 -11 574 -11 m 456 167 q 553 192 510 167 q 621 263 596 217 q 646 374 646 310 q 621 485 646 439 q 553 556 596 531 q 456 581 510 581 q 358 556 401 581 q 290 485 315 531 q 264 374 264 439 q 290 263 264 310 q 358 192 315 217 q 456 167 401 167 m 453 -292 q 385 -267 413 -292 q 357 -199 357 -242 q 385 -128 357 -156 q 453 -101 413 -101 q 521 -128 493 -101 q 549 -199 549 -156 q 521 -267 549 -242 q 453 -292 493 -292 z "},"ò":{"ha":910,"x_min":44,"x_max":865,"o":"m 456 -11 q 244 39 336 -11 q 98 176 151 89 q 44 374 44 263 q 98 573 44 486 q 244 709 151 660 q 456 758 336 758 q 667 709 574 758 q 813 574 760 660 q 865 374 865 488 q 813 176 865 263 q 667 39 760 89 q 456 -11 574 -11 m 456 167 q 553 192 510 167 q 621 263 596 217 q 646 374 646 310 q 621 485 646 439 q 553 556 596 531 q 456 581 510 581 q 358 556 401 581 q 290 485 315 531 q 264 374 264 439 q 290 263 264 310 q 358 192 315 217 q 456 167 401 167 m 410 843 l 158 1043 l 392 1043 l 579 843 l 410 843 z "},"ỏ":{"ha":910,"x_min":44,"x_max":865,"o":"m 456 -11 q 244 39 336 -11 q 98 176 151 89 q 44 374 44 263 q 98 573 44 486 q 244 709 151 660 q 456 758 336 758 q 667 709 574 758 q 813 574 760 660 q 865 374 865 488 q 813 176 865 263 q 667 39 760 89 q 456 -11 574 -11 m 456 167 q 553 192 510 167 q 621 263 596 217 q 646 374 646 310 q 621 485 646 439 q 553 556 596 531 q 456 581 510 581 q 358 556 401 581 q 290 485 315 531 q 264 374 264 439 q 290 263 264 310 q 358 192 315 217 q 456 167 401 167 m 494 829 l 426 901 q 482 942 467 921 q 497 986 497 963 q 479 1028 497 1013 q 432 1044 461 1044 q 350 1018 390 1044 l 304 1106 q 376 1141 336 1129 q 456 1153 415 1153 q 576 1112 529 1153 q 622 1004 622 1071 q 590 901 622 944 q 494 829 558 858 z "},"ơ":{"ha":910,"x_min":44,"x_max":865,"o":"m 456 -11 q 244 39 336 -11 q 98 176 151 89 q 44 374 44 263 q 98 573 44 486 q 244 709 151 660 q 457 758 338 758 q 522 756 494 758 q 573 749 549 753 q 622 746 597 746 q 690 772 668 746 q 711 836 711 797 q 703 882 711 861 q 682 919 694 903 l 808 967 q 842 903 829 938 q 856 828 856 868 q 824 715 856 764 q 737 641 793 667 q 606 615 681 615 q 543 619 574 615 q 483 628 513 622 l 624 726 q 800 591 735 683 q 865 374 865 499 q 813 176 865 263 q 667 39 760 89 q 456 -11 574 -11 m 456 167 q 551 192 508 167 q 620 263 594 217 q 646 374 646 310 q 621 485 646 439 q 553 556 596 531 q 456 581 510 581 q 358 556 401 581 q 290 485 315 531 q 264 374 264 439 q 290 263 264 310 q 358 192 315 217 q 456 167 401 167 z "},"ớ":{"ha":910,"x_min":44,"x_max":865,"o":"m 456 -11 q 244 39 336 -11 q 98 176 151 89 q 44 374 44 263 q 98 573 44 486 q 244 709 151 660 q 457 758 338 758 q 522 756 494 758 q 573 749 549 753 q 622 746 597 746 q 690 772 668 746 q 711 836 711 797 q 703 882 711 861 q 682 919 694 903 l 808 967 q 842 903 829 938 q 856 828 856 868 q 824 715 856 764 q 737 641 793 667 q 606 615 681 615 q 543 619 574 615 q 483 628 513 622 l 624 726 q 800 591 735 683 q 865 374 865 499 q 813 176 865 263 q 667 39 760 89 q 456 -11 574 -11 m 456 167 q 551 192 508 167 q 620 263 594 217 q 646 374 646 310 q 621 485 646 439 q 553 556 596 531 q 456 581 510 581 q 358 556 401 581 q 290 485 315 531 q 264 374 264 439 q 290 263 264 310 q 358 192 315 217 q 456 167 401 167 m 329 843 l 517 1043 l 750 1043 l 499 843 l 329 843 z "},"ợ":{"ha":910,"x_min":44,"x_max":865,"o":"m 456 -11 q 244 39 336 -11 q 98 176 151 89 q 44 374 44 263 q 98 573 44 486 q 244 709 151 660 q 457 758 338 758 q 522 756 494 758 q 573 749 549 753 q 622 746 597 746 q 690 772 668 746 q 711 836 711 797 q 703 882 711 861 q 682 919 694 903 l 808 967 q 842 903 829 938 q 856 828 856 868 q 824 715 856 764 q 737 641 793 667 q 606 615 681 615 q 543 619 574 615 q 483 628 513 622 l 624 726 q 800 591 735 683 q 865 374 865 499 q 813 176 865 263 q 667 39 760 89 q 456 -11 574 -11 m 456 167 q 551 192 508 167 q 620 263 594 217 q 646 374 646 310 q 621 485 646 439 q 553 556 596 531 q 456 581 510 581 q 358 556 401 581 q 290 485 315 531 q 264 374 264 439 q 290 263 264 310 q 358 192 315 217 q 456 167 401 167 m 456 -292 q 388 -267 415 -292 q 360 -199 360 -242 q 388 -128 360 -156 q 456 -101 415 -101 q 524 -128 496 -101 q 551 -199 551 -156 q 524 -267 551 -242 q 456 -292 496 -292 z "},"ờ":{"ha":910,"x_min":44,"x_max":865,"o":"m 456 -11 q 244 39 336 -11 q 98 176 151 89 q 44 374 44 263 q 98 573 44 486 q 244 709 151 660 q 457 758 338 758 q 522 756 494 758 q 573 749 549 753 q 622 746 597 746 q 690 772 668 746 q 711 836 711 797 q 703 882 711 861 q 682 919 694 903 l 808 967 q 842 903 829 938 q 856 828 856 868 q 824 715 856 764 q 737 641 793 667 q 606 615 681 615 q 543 619 574 615 q 483 628 513 622 l 624 726 q 800 591 735 683 q 865 374 865 499 q 813 176 865 263 q 667 39 760 89 q 456 -11 574 -11 m 456 167 q 551 192 508 167 q 620 263 594 217 q 646 374 646 310 q 621 485 646 439 q 553 556 596 531 q 456 581 510 581 q 358 556 401 581 q 290 485 315 531 q 264 374 264 439 q 290 263 264 310 q 358 192 315 217 q 456 167 401 167 m 413 843 l 161 1043 l 394 1043 l 582 843 l 413 843 z "},"ở":{"ha":910,"x_min":44,"x_max":865,"o":"m 456 -11 q 244 39 336 -11 q 98 176 151 89 q 44 374 44 263 q 98 573 44 486 q 244 709 151 660 q 457 758 338 758 q 522 756 494 758 q 573 749 549 753 q 622 746 597 746 q 690 772 668 746 q 711 836 711 797 q 703 882 711 861 q 682 919 694 903 l 808 967 q 842 903 829 938 q 856 828 856 868 q 824 715 856 764 q 737 641 793 667 q 606 615 681 615 q 543 619 574 615 q 483 628 513 622 l 624 726 q 800 591 735 683 q 865 374 865 499 q 813 176 865 263 q 667 39 760 89 q 456 -11 574 -11 m 456 167 q 551 192 508 167 q 620 263 594 217 q 646 374 646 310 q 621 485 646 439 q 553 556 596 531 q 456 581 510 581 q 358 556 401 581 q 290 485 315 531 q 264 374 264 439 q 290 263 264 310 q 358 192 315 217 q 456 167 401 167 m 497 829 l 429 901 q 485 942 469 921 q 500 986 500 963 q 482 1028 500 1013 q 435 1044 464 1044 q 353 1018 393 1044 l 307 1106 q 378 1141 339 1129 q 458 1153 418 1153 q 578 1112 532 1153 q 625 1004 625 1071 q 593 901 625 944 q 497 829 561 858 z "},"ỡ":{"ha":910,"x_min":44,"x_max":865,"o":"m 533 839 q 478 852 501 839 q 434 883 454 865 q 398 913 414 900 q 365 926 382 926 q 325 906 340 926 q 307 849 310 886 l 214 849 q 252 997 215 942 q 353 1051 289 1051 q 408 1038 383 1051 q 452 1007 432 1025 q 488 976 472 989 q 521 963 504 963 q 561 983 546 963 q 579 1038 576 1003 l 672 1038 q 633 894 671 949 q 533 839 596 839 m 456 -11 q 244 39 336 -11 q 98 176 151 89 q 44 374 44 263 q 98 573 44 486 q 244 709 151 660 q 457 758 338 758 q 522 756 494 758 q 573 749 549 753 q 622 746 597 746 q 690 772 668 746 q 711 836 711 797 q 703 882 711 861 q 682 919 694 903 l 808 967 q 842 903 829 938 q 856 828 856 868 q 824 715 856 764 q 737 641 793 667 q 606 615 681 615 q 543 619 574 615 q 483 628 513 622 l 624 726 q 800 591 735 683 q 865 374 865 499 q 813 176 865 263 q 667 39 760 89 q 456 -11 574 -11 m 456 167 q 551 192 508 167 q 620 263 594 217 q 646 374 646 310 q 621 485 646 439 q 553 556 596 531 q 456 581 510 581 q 358 556 401 581 q 290 485 315 531 q 264 374 264 439 q 290 263 264 310 q 358 192 315 217 q 456 167 401 167 z "},"ő":{"ha":910,"x_min":44,"x_max":865,"o":"m 456 -11 q 244 39 336 -11 q 98 176 151 89 q 44 374 44 263 q 98 573 44 486 q 244 709 151 660 q 456 758 336 758 q 667 709 574 758 q 813 574 760 660 q 865 374 865 488 q 813 176 865 263 q 667 39 760 89 q 456 -11 574 -11 m 456 167 q 553 192 510 167 q 621 263 596 217 q 646 374 646 310 q 621 485 646 439 q 553 556 596 531 q 456 581 510 581 q 358 556 401 581 q 290 485 315 531 q 264 374 264 439 q 290 263 264 310 q 358 192 315 217 q 456 167 401 167 m 514 843 l 614 1043 l 817 1043 l 672 843 l 514 843 m 233 843 l 333 1043 l 536 1043 l 392 843 l 233 843 z "},"ȏ":{"ha":910,"x_min":44,"x_max":865,"o":"m 456 -11 q 244 39 336 -11 q 98 176 151 89 q 44 374 44 263 q 98 573 44 486 q 244 709 151 660 q 456 758 336 758 q 667 709 574 758 q 813 574 760 660 q 865 374 865 488 q 813 176 865 263 q 667 39 760 89 q 456 -11 574 -11 m 456 167 q 553 192 510 167 q 621 263 596 217 q 646 374 646 310 q 621 485 646 439 q 553 556 596 531 q 456 581 510 581 q 358 556 401 581 q 290 485 315 531 q 264 374 264 439 q 290 263 264 310 q 358 192 315 217 q 456 167 401 167 m 197 843 q 273 998 201 942 q 453 1054 344 1054 q 633 998 561 1054 q 708 843 704 942 l 572 843 q 536 915 571 889 q 453 942 501 942 q 370 915 404 942 q 333 843 336 889 l 197 843 z "},"ō":{"ha":910,"x_min":44,"x_max":865,"o":"m 456 -11 q 244 39 336 -11 q 98 176 151 89 q 44 374 44 263 q 98 573 44 486 q 244 709 151 660 q 456 758 336 758 q 667 709 574 758 q 813 574 760 660 q 865 374 865 488 q 813 176 865 263 q 667 39 760 89 q 456 -11 574 -11 m 456 167 q 553 192 510 167 q 621 263 596 217 q 646 374 646 310 q 621 485 646 439 q 553 556 596 531 q 456 581 510 581 q 358 556 401 581 q 290 485 315 531 q 264 374 264 439 q 290 263 264 310 q 358 192 315 217 q 456 167 401 167 m 196 882 l 196 1004 l 710 1004 l 710 882 l 196 882 z "},"ṓ":{"ha":910,"x_min":44,"x_max":865,"o":"m 456 -11 q 244 39 336 -11 q 98 176 151 89 q 44 374 44 263 q 98 573 44 486 q 244 709 151 660 q 456 758 336 758 q 667 709 574 758 q 813 574 760 660 q 865 374 865 488 q 813 176 865 263 q 667 39 760 89 q 456 -11 574 -11 m 456 167 q 553 192 510 167 q 621 263 596 217 q 646 374 646 310 q 621 485 646 439 q 553 556 596 531 q 456 581 510 581 q 358 556 401 581 q 290 485 315 531 q 264 374 264 439 q 290 263 264 310 q 358 192 315 217 q 456 167 401 167 z "},"ṑ":{"ha":910,"x_min":44,"x_max":865,"o":"m 456 -11 q 244 39 336 -11 q 98 176 151 89 q 44 374 44 263 q 98 573 44 486 q 244 709 151 660 q 456 758 336 758 q 667 709 574 758 q 813 574 760 660 q 865 374 865 488 q 813 176 865 263 q 667 39 760 89 q 456 -11 574 -11 m 456 167 q 553 192 510 167 q 621 263 596 217 q 646 374 646 310 q 621 485 646 439 q 553 556 596 531 q 456 581 510 581 q 358 556 401 581 q 290 485 315 531 q 264 374 264 439 q 290 263 264 310 q 358 192 315 217 q 456 167 401 167 z "},"ǫ":{"ha":910,"x_min":44,"x_max":865,"o":"m 497 -322 q 356 -279 406 -322 q 306 -168 306 -236 q 327 -82 306 -124 q 396 -6 349 -40 q 514 51 443 28 l 525 -6 q 489 -9 506 -7 q 456 -11 472 -11 q 244 39 336 -11 q 98 176 151 89 q 44 374 44 263 q 98 573 44 486 q 244 709 151 660 q 456 758 336 758 q 667 709 574 758 q 813 573 760 660 q 865 374 865 486 q 799 157 865 250 q 622 18 733 64 q 511 -40 550 -11 q 457 -94 472 -68 q 442 -147 442 -121 q 463 -194 442 -176 q 522 -212 485 -212 q 567 -206 544 -212 q 606 -192 589 -200 l 638 -290 q 574 -313 611 -304 q 497 -322 536 -322 m 456 167 q 553 192 510 167 q 621 263 596 217 q 646 374 646 310 q 621 485 646 439 q 553 556 596 531 q 456 581 510 581 q 358 556 401 581 q 290 485 315 531 q 264 374 264 439 q 290 263 264 310 q 358 192 315 217 q 456 167 401 167 z "},"ø":{"ha":910,"x_min":44,"x_max":865,"o":"m 456 -11 q 244 39 336 -11 q 98 176 151 89 q 44 374 44 263 q 98 573 44 486 q 244 709 151 660 q 456 758 336 758 q 667 709 574 758 q 813 574 760 660 q 865 374 865 488 q 813 176 865 263 q 667 39 760 89 q 456 -11 574 -11 m 456 167 q 553 192 510 167 q 621 263 596 217 q 646 374 646 310 q 621 485 646 439 q 553 556 596 531 q 456 581 510 581 q 358 556 401 581 q 290 485 315 531 q 264 374 264 439 q 290 263 264 310 q 358 192 315 217 q 456 167 401 167 m 93 -99 l 704 839 l 813 839 l 200 -99 l 93 -99 z "},"ǿ":{"ha":910,"x_min":44,"x_max":865,"o":"m 456 -11 q 244 39 336 -11 q 98 176 151 89 q 44 374 44 263 q 98 573 44 486 q 244 709 151 660 q 456 758 336 758 q 667 709 574 758 q 813 574 760 660 q 865 374 865 488 q 813 176 865 263 q 667 39 760 89 q 456 -11 574 -11 m 456 167 q 553 192 510 167 q 621 263 596 217 q 646 374 646 310 q 621 485 646 439 q 553 556 596 531 q 456 581 510 581 q 358 556 401 581 q 290 485 315 531 q 264 374 264 439 q 290 263 264 310 q 358 192 315 217 q 456 167 401 167 m 93 -99 l 704 839 l 813 839 l 200 -99 l 93 -99 m 322 843 l 510 1043 l 743 1043 l 492 843 l 322 843 z "},"õ":{"ha":910,"x_min":44,"x_max":865,"o":"m 456 -11 q 244 39 336 -11 q 98 176 151 89 q 44 374 44 263 q 98 573 44 486 q 244 709 151 660 q 456 758 336 758 q 667 709 574 758 q 813 574 760 660 q 865 374 865 488 q 813 176 865 263 q 667 39 760 89 q 456 -11 574 -11 m 456 167 q 553 192 510 167 q 621 263 596 217 q 646 374 646 310 q 621 485 646 439 q 553 556 596 531 q 456 581 510 581 q 358 556 401 581 q 290 485 315 531 q 264 374 264 439 q 290 263 264 310 q 358 192 315 217 q 456 167 401 167 m 557 839 q 493 852 521 839 q 443 883 465 865 q 401 913 421 900 q 363 926 382 926 q 317 906 335 926 q 296 849 299 886 l 186 849 q 232 997 189 942 q 349 1051 275 1051 q 413 1038 385 1051 q 463 1007 440 1025 q 506 976 486 989 q 543 963 525 963 q 590 983 572 963 q 610 1038 608 1003 l 719 1038 q 674 894 718 949 q 557 839 631 839 z "},"ṍ":{"ha":910,"x_min":44,"x_max":865,"o":"m 456 -11 q 244 39 336 -11 q 98 176 151 89 q 44 374 44 263 q 98 573 44 486 q 244 709 151 660 q 456 758 336 758 q 667 709 574 758 q 813 574 760 660 q 865 374 865 488 q 813 176 865 263 q 667 39 760 89 q 456 -11 574 -11 m 456 167 q 553 192 510 167 q 621 263 596 217 q 646 374 646 310 q 621 485 646 439 q 553 556 596 531 q 456 581 510 581 q 358 556 401 581 q 290 485 315 531 q 264 374 264 439 q 290 263 264 310 q 358 192 315 217 q 456 167 401 167 z "},"ṏ":{"ha":910,"x_min":44,"x_max":865,"o":"m 456 -11 q 244 39 336 -11 q 98 176 151 89 q 44 374 44 263 q 98 573 44 486 q 244 709 151 660 q 456 758 336 758 q 667 709 574 758 q 813 574 760 660 q 865 374 865 488 q 813 176 865 263 q 667 39 760 89 q 456 -11 574 -11 m 456 167 q 553 192 510 167 q 621 263 596 217 q 646 374 646 310 q 621 485 646 439 q 553 556 596 531 q 456 581 510 581 q 358 556 401 581 q 290 485 315 531 q 264 374 264 439 q 290 263 264 310 q 358 192 315 217 q 456 167 401 167 z "},"ȭ":{"ha":910,"x_min":44,"x_max":865,"o":"m 456 -11 q 244 39 336 -11 q 98 176 151 89 q 44 374 44 263 q 98 573 44 486 q 244 709 151 660 q 456 758 336 758 q 667 709 574 758 q 813 574 760 660 q 865 374 865 488 q 813 176 865 263 q 667 39 760 89 q 456 -11 574 -11 m 456 167 q 553 192 510 167 q 621 263 596 217 q 646 374 646 310 q 621 485 646 439 q 553 556 596 531 q 456 581 510 581 q 358 556 401 581 q 290 485 315 531 q 264 374 264 439 q 290 263 264 310 q 358 192 315 217 q 456 167 401 167 z "},"œ":{"ha":1478,"x_min":44,"x_max":1433,"o":"m 453 -11 q 243 39 335 -11 q 98 176 151 89 q 44 374 44 263 q 98 573 44 486 q 243 709 151 660 q 453 758 335 758 q 657 709 571 758 q 790 573 743 660 q 838 374 838 486 q 790 176 838 263 q 657 39 743 89 q 453 -11 571 -11 m 456 167 q 553 192 510 167 q 621 263 596 217 q 646 374 646 310 q 621 485 646 439 q 553 556 596 531 q 456 581 510 581 q 358 556 401 581 q 290 485 315 531 q 264 374 264 439 q 290 263 264 310 q 358 192 315 217 q 456 167 401 167 m 1071 -11 q 853 39 944 -11 q 712 176 761 89 q 663 374 663 263 q 710 573 663 486 q 844 709 758 660 q 1044 758 931 758 q 1241 712 1153 758 q 1381 578 1329 665 q 1433 372 1433 492 q 1433 342 1433 357 q 1429 313 1432 326 l 833 313 l 833 439 l 1289 439 l 1229 401 q 1207 503 1231 460 q 1142 570 1183 546 q 1044 594 1100 594 q 947 570 989 594 q 881 502 904 546 q 857 399 857 458 l 857 365 q 883 258 857 304 q 960 187 910 211 q 1078 163 1010 163 q 1179 181 1133 163 q 1264 235 1225 199 l 1381 110 q 1249 20 1328 51 q 1071 -11 1169 -11 z "},"p":{"ha":958,"x_min":100,"x_max":914,"o":"m 542 -11 q 376 31 447 -11 q 266 158 306 72 q 226 374 226 243 q 264 590 226 506 q 372 717 301 675 q 542 758 443 758 q 731 710 647 758 q 865 576 815 663 q 914 374 914 490 q 865 169 914 256 q 731 36 815 83 q 542 -11 647 -11 m 100 -269 l 100 747 l 307 747 l 307 594 l 303 372 l 317 151 l 317 -269 l 100 -269 m 504 167 q 601 192 558 167 q 669 263 643 217 q 694 374 694 310 q 669 485 694 439 q 601 556 643 531 q 504 581 558 581 q 407 556 450 581 q 339 485 364 531 q 314 374 314 439 q 339 263 314 310 q 407 192 364 217 q 504 167 450 167 z "},"þ":{"ha":958,"x_min":100,"x_max":914,"o":"m 542 -11 q 376 31 447 -11 q 266 158 306 72 q 226 374 226 243 q 264 590 226 506 q 372 717 301 675 q 542 758 443 758 q 731 710 647 758 q 865 576 815 663 q 914 374 914 490 q 865 169 914 256 q 731 36 815 83 q 542 -11 647 -11 m 100 -269 l 100 1031 l 317 1031 l 317 594 l 303 372 l 317 151 l 317 -269 l 100 -269 m 504 167 q 601 192 558 167 q 669 263 643 217 q 694 374 694 310 q 669 485 694 439 q 601 556 643 531 q 504 581 558 581 q 407 556 450 581 q 339 485 364 531 q 314 374 314 439 q 339 263 314 310 q 407 192 364 217 q 504 167 450 167 z "},"q":{"ha":958,"x_min":44,"x_max":858,"o":"m 418 -11 q 228 36 313 -11 q 94 169 143 83 q 44 374 44 256 q 94 576 44 490 q 228 710 143 663 q 418 758 313 758 q 587 717 517 758 q 694 590 657 675 q 732 374 732 506 q 693 158 732 243 q 583 31 654 72 q 418 -11 513 -11 m 456 167 q 551 192 508 167 q 620 263 594 217 q 646 374 646 310 q 620 485 646 439 q 551 556 594 531 q 456 581 508 581 q 358 556 401 581 q 290 485 315 531 q 264 374 264 439 q 290 263 264 310 q 358 192 315 217 q 456 167 401 167 m 642 -269 l 642 151 l 656 372 l 651 594 l 651 747 l 858 747 l 858 -269 l 642 -269 z "},"r":{"ha":599,"x_min":100,"x_max":564,"o":"m 100 0 l 100 747 l 307 747 l 307 536 l 278 597 q 385 717 311 676 q 564 758 458 758 l 564 558 q 539 560 550 560 q 515 561 528 561 q 372 510 426 561 q 317 353 317 460 l 317 0 l 100 0 z "},"ŕ":{"ha":599,"x_min":100,"x_max":626,"o":"m 100 0 l 100 747 l 307 747 l 307 536 l 278 597 q 385 717 311 676 q 564 758 458 758 l 564 558 q 539 560 550 560 q 515 561 528 561 q 372 510 426 561 q 317 353 317 460 l 317 0 l 100 0 m 206 843 l 393 1043 l 626 1043 l 375 843 l 206 843 z "},"ř":{"ha":599,"x_min":53,"x_max":611,"o":"m 100 0 l 100 747 l 307 747 l 307 536 l 278 597 q 385 717 311 676 q 564 758 458 758 l 564 558 q 539 560 550 560 q 515 561 528 561 q 372 510 426 561 q 317 353 317 460 l 317 0 l 100 0 m 236 843 l 53 1043 l 211 1043 l 403 878 l 261 878 l 453 1043 l 611 1043 l 428 843 l 236 843 z "},"ŗ":{"ha":599,"x_min":100,"x_max":564,"o":"m 100 0 l 100 747 l 307 747 l 307 536 l 278 597 q 385 717 311 676 q 564 758 458 758 l 564 558 q 539 560 550 560 q 515 561 528 561 q 372 510 426 561 q 317 353 317 460 l 317 0 l 100 0 m 129 -369 l 185 -192 l 208 -265 q 137 -244 161 -265 q 113 -185 113 -222 q 138 -124 113 -147 q 208 -101 164 -101 q 278 -125 253 -101 q 304 -185 304 -149 q 299 -224 304 -201 q 279 -275 294 -246 l 231 -369 l 129 -369 z "},"ȑ":{"ha":599,"x_min":-32,"x_max":564,"o":"m 100 0 l 100 747 l 307 747 l 307 536 l 278 597 q 385 717 311 676 q 564 758 458 758 l 564 558 q 539 560 550 560 q 515 561 528 561 q 372 510 426 561 q 317 353 317 460 l 317 0 l 100 0 m 393 843 l 249 1043 l 451 1043 l 551 843 l 393 843 m 113 843 l -32 1043 l 171 1043 l 271 843 l 113 843 z "},"ṛ":{"ha":599,"x_min":100,"x_max":564,"o":"m 100 0 l 100 747 l 307 747 l 307 536 l 278 597 q 385 717 311 676 q 564 758 458 758 l 564 558 q 539 560 550 560 q 515 561 528 561 q 372 510 426 561 q 317 353 317 460 l 317 0 l 100 0 m 208 -292 q 140 -267 168 -292 q 113 -199 113 -242 q 140 -128 113 -156 q 208 -101 168 -101 q 276 -128 249 -101 q 304 -199 304 -156 q 276 -267 304 -242 q 208 -292 249 -292 z "},"ȓ":{"ha":599,"x_min":76,"x_max":588,"o":"m 100 0 l 100 747 l 307 747 l 307 536 l 278 597 q 385 717 311 676 q 564 758 458 758 l 564 558 q 539 560 550 560 q 515 561 528 561 q 372 510 426 561 q 317 353 317 460 l 317 0 l 100 0 m 76 843 q 152 998 81 942 q 332 1054 224 1054 q 512 998 440 1054 q 588 843 583 942 l 451 843 q 415 915 450 889 q 332 942 381 942 q 249 915 283 942 q 213 843 215 889 l 76 843 z "},"ṟ":{"ha":599,"x_min":-47,"x_max":564,"o":"m 100 0 l 100 747 l 307 747 l 307 536 l 278 597 q 385 717 311 676 q 564 758 458 758 l 564 558 q 539 560 550 560 q 515 561 528 561 q 372 510 426 561 q 317 353 317 460 l 317 0 l 100 0 m -49 -253 l -49 -132 l 465 -132 l 465 -253 l -49 -253 z "},"s":{"ha":738,"x_min":28,"x_max":704,"o":"m 351 -11 q 167 12 256 -11 q 28 69 79 35 l 100 225 q 222 173 151 193 q 360 153 292 153 q 466 171 435 153 q 497 221 497 189 q 473 260 497 247 q 408 281 449 274 q 320 294 368 288 q 224 313 272 301 q 135 349 175 325 q 70 413 94 372 q 46 517 46 453 q 87 642 46 588 q 206 727 128 696 q 392 758 283 758 q 547 742 468 758 q 679 693 626 725 l 607 539 q 498 583 553 571 q 392 594 443 594 q 286 575 319 594 q 253 525 253 556 q 277 483 253 497 q 342 461 301 469 q 430 447 382 453 q 526 428 478 440 q 615 392 575 415 q 679 330 654 369 q 704 226 704 290 q 663 103 704 157 q 542 19 621 50 q 351 -11 464 -11 z "},"ś":{"ha":738,"x_min":28,"x_max":704,"o":"m 351 -11 q 167 12 256 -11 q 28 69 79 35 l 100 225 q 222 173 151 193 q 360 153 292 153 q 466 171 435 153 q 497 221 497 189 q 473 260 497 247 q 408 281 449 274 q 320 294 368 288 q 224 313 272 301 q 135 349 175 325 q 70 413 94 372 q 46 517 46 453 q 87 642 46 588 q 206 727 128 696 q 392 758 283 758 q 547 742 468 758 q 679 693 626 725 l 607 539 q 498 583 553 571 q 392 594 443 594 q 286 575 319 594 q 253 525 253 556 q 277 483 253 497 q 342 461 301 469 q 430 447 382 453 q 526 428 478 440 q 615 392 575 415 q 679 330 654 369 q 704 226 704 290 q 663 103 704 157 q 542 19 621 50 q 351 -11 464 -11 m 236 843 l 424 1043 l 657 1043 l 406 843 l 236 843 z "},"ṥ":{"ha":738,"x_min":28,"x_max":704,"o":"m 351 -11 q 167 12 256 -11 q 28 69 79 35 l 100 225 q 222 173 151 193 q 360 153 292 153 q 466 171 435 153 q 497 221 497 189 q 473 260 497 247 q 408 281 449 274 q 320 294 368 288 q 224 313 272 301 q 135 349 175 325 q 70 413 94 372 q 46 517 46 453 q 87 642 46 588 q 206 727 128 696 q 392 758 283 758 q 547 742 468 758 q 679 693 626 725 l 607 539 q 498 583 553 571 q 392 594 443 594 q 286 575 319 594 q 253 525 253 556 q 277 483 253 497 q 342 461 301 469 q 430 447 382 453 q 526 428 478 440 q 615 392 575 415 q 679 330 654 369 q 704 226 704 290 q 663 103 704 157 q 542 19 621 50 q 351 -11 464 -11 z "},"ꞌ":{"ha":406,"x_min":94,"x_max":310,"o":"m 94 413 l 96 944 l 310 944 l 282 413 l 94 413 z "},"š":{"ha":738,"x_min":28,"x_max":704,"o":"m 351 -11 q 167 12 256 -11 q 28 69 79 35 l 100 225 q 222 173 151 193 q 360 153 292 153 q 466 171 435 153 q 497 221 497 189 q 473 260 497 247 q 408 281 449 274 q 320 294 368 288 q 224 313 272 301 q 135 349 175 325 q 70 413 94 372 q 46 517 46 453 q 87 642 46 588 q 206 727 128 696 q 392 758 283 758 q 547 742 468 758 q 679 693 626 725 l 607 539 q 498 583 553 571 q 392 594 443 594 q 286 575 319 594 q 253 525 253 556 q 277 483 253 497 q 342 461 301 469 q 430 447 382 453 q 526 428 478 440 q 615 392 575 415 q 679 330 654 369 q 704 226 704 290 q 663 103 704 157 q 542 19 621 50 q 351 -11 464 -11 m 267 843 l 83 1043 l 242 1043 l 433 878 l 292 878 l 483 1043 l 642 1043 l 458 843 l 267 843 z "},"ṧ":{"ha":738,"x_min":28,"x_max":704,"o":"m 351 -11 q 167 12 256 -11 q 28 69 79 35 l 100 225 q 222 173 151 193 q 360 153 292 153 q 466 171 435 153 q 497 221 497 189 q 473 260 497 247 q 408 281 449 274 q 320 294 368 288 q 224 313 272 301 q 135 349 175 325 q 70 413 94 372 q 46 517 46 453 q 87 642 46 588 q 206 727 128 696 q 392 758 283 758 q 547 742 468 758 q 679 693 626 725 l 607 539 q 498 583 553 571 q 392 594 443 594 q 286 575 319 594 q 253 525 253 556 q 277 483 253 497 q 342 461 301 469 q 430 447 382 453 q 526 428 478 440 q 615 392 575 415 q 679 330 654 369 q 704 226 704 290 q 663 103 704 157 q 542 19 621 50 q 351 -11 464 -11 z "},"ş":{"ha":738,"x_min":28,"x_max":704,"o":"m 351 -11 q 167 12 256 -11 q 28 69 79 35 l 100 225 q 222 173 151 193 q 360 153 292 153 q 466 171 435 153 q 497 221 497 189 q 473 260 497 247 q 408 281 449 274 q 320 294 368 288 q 224 313 272 301 q 135 349 175 325 q 70 413 94 372 q 46 517 46 453 q 87 642 46 588 q 206 727 128 696 q 392 758 283 758 q 547 742 468 758 q 679 693 626 725 l 607 539 q 498 583 553 571 q 392 594 443 594 q 286 575 319 594 q 253 525 253 556 q 277 483 253 497 q 342 461 301 469 q 430 447 382 453 q 526 428 478 440 q 615 392 575 415 q 679 330 654 369 q 704 226 704 290 q 663 103 704 157 q 542 19 621 50 q 351 -11 464 -11 m 317 -322 q 247 -314 281 -322 q 188 -293 213 -306 l 221 -200 q 264 -215 242 -210 q 311 -221 286 -221 q 367 -208 350 -221 q 383 -176 383 -196 q 367 -147 383 -158 q 315 -136 351 -136 l 268 -136 l 304 11 l 419 11 l 400 -69 q 492 -109 463 -76 q 521 -185 521 -142 q 465 -285 521 -247 q 317 -322 410 -322 z "},"ŝ":{"ha":738,"x_min":28,"x_max":704,"o":"m 351 -11 q 167 12 256 -11 q 28 69 79 35 l 100 225 q 222 173 151 193 q 360 153 292 153 q 466 171 435 153 q 497 221 497 189 q 473 260 497 247 q 408 281 449 274 q 320 294 368 288 q 224 313 272 301 q 135 349 175 325 q 70 413 94 372 q 46 517 46 453 q 87 642 46 588 q 206 727 128 696 q 392 758 283 758 q 547 742 468 758 q 679 693 626 725 l 607 539 q 498 583 553 571 q 392 594 443 594 q 286 575 319 594 q 253 525 253 556 q 277 483 253 497 q 342 461 301 469 q 430 447 382 453 q 526 428 478 440 q 615 392 575 415 q 679 330 654 369 q 704 226 704 290 q 663 103 704 157 q 542 19 621 50 q 351 -11 464 -11 m 83 843 l 267 1043 l 458 1043 l 642 843 l 483 843 l 292 1010 l 433 1010 l 242 843 l 83 843 z "},"ș":{"ha":738,"x_min":28,"x_max":704,"o":"m 351 -11 q 167 12 256 -11 q 28 69 79 35 l 100 225 q 222 173 151 193 q 360 153 292 153 q 466 171 435 153 q 497 221 497 189 q 473 260 497 247 q 408 281 449 274 q 320 294 368 288 q 224 313 272 301 q 135 349 175 325 q 70 413 94 372 q 46 517 46 453 q 87 642 46 588 q 206 727 128 696 q 392 758 283 758 q 547 742 468 758 q 679 693 626 725 l 607 539 q 498 583 553 571 q 392 594 443 594 q 286 575 319 594 q 253 525 253 556 q 277 483 253 497 q 342 461 301 469 q 430 447 382 453 q 526 428 478 440 q 615 392 575 415 q 679 330 654 369 q 704 226 704 290 q 663 103 704 157 q 542 19 621 50 q 351 -11 464 -11 m 283 -369 l 339 -192 l 363 -265 q 291 -244 315 -265 q 267 -185 267 -222 q 292 -124 267 -147 q 363 -101 318 -101 q 433 -125 407 -101 q 458 -185 458 -149 q 453 -224 458 -201 q 433 -275 449 -246 l 385 -369 l 283 -369 z "},"ṡ":{"ha":738,"x_min":28,"x_max":704,"o":"m 351 -11 q 167 12 256 -11 q 28 69 79 35 l 100 225 q 222 173 151 193 q 360 153 292 153 q 466 171 435 153 q 497 221 497 189 q 473 260 497 247 q 408 281 449 274 q 320 294 368 288 q 224 313 272 301 q 135 349 175 325 q 70 413 94 372 q 46 517 46 453 q 87 642 46 588 q 206 727 128 696 q 392 758 283 758 q 547 742 468 758 q 679 693 626 725 l 607 539 q 498 583 553 571 q 392 594 443 594 q 286 575 319 594 q 253 525 253 556 q 277 483 253 497 q 342 461 301 469 q 430 447 382 453 q 526 428 478 440 q 615 392 575 415 q 679 330 654 369 q 704 226 704 290 q 663 103 704 157 q 542 19 621 50 q 351 -11 464 -11 m 363 850 q 278 883 311 850 q 246 968 246 917 q 278 1051 246 1018 q 363 1085 311 1085 q 446 1051 413 1085 q 479 968 479 1018 q 446 883 479 917 q 363 850 413 850 z "},"ṣ":{"ha":738,"x_min":28,"x_max":704,"o":"m 351 -11 q 167 12 256 -11 q 28 69 79 35 l 100 225 q 222 173 151 193 q 360 153 292 153 q 466 171 435 153 q 497 221 497 189 q 473 260 497 247 q 408 281 449 274 q 320 294 368 288 q 224 313 272 301 q 135 349 175 325 q 70 413 94 372 q 46 517 46 453 q 87 642 46 588 q 206 727 128 696 q 392 758 283 758 q 547 742 468 758 q 679 693 626 725 l 607 539 q 498 583 553 571 q 392 594 443 594 q 286 575 319 594 q 253 525 253 556 q 277 483 253 497 q 342 461 301 469 q 430 447 382 453 q 526 428 478 440 q 615 392 575 415 q 679 330 654 369 q 704 226 704 290 q 663 103 704 157 q 542 19 621 50 q 351 -11 464 -11 m 363 -292 q 294 -267 322 -292 q 267 -199 267 -242 q 294 -128 267 -156 q 363 -101 322 -101 q 431 -128 403 -101 q 458 -199 458 -156 q 431 -267 458 -242 q 363 -292 403 -292 z "},"ṩ":{"ha":738,"x_min":28,"x_max":704,"o":"m 351 -11 q 167 12 256 -11 q 28 69 79 35 l 100 225 q 222 173 151 193 q 360 153 292 153 q 466 171 435 153 q 497 221 497 189 q 473 260 497 247 q 408 281 449 274 q 320 294 368 288 q 224 313 272 301 q 135 349 175 325 q 70 413 94 372 q 46 517 46 453 q 87 642 46 588 q 206 727 128 696 q 392 758 283 758 q 547 742 468 758 q 679 693 626 725 l 607 539 q 498 583 553 571 q 392 594 443 594 q 286 575 319 594 q 253 525 253 556 q 277 483 253 497 q 342 461 301 469 q 430 447 382 453 q 526 428 478 440 q 615 392 575 415 q 679 330 654 369 q 704 226 704 290 q 663 103 704 157 q 542 19 621 50 q 351 -11 464 -11 m 363 -292 q 294 -267 322 -292 q 267 -199 267 -242 q 294 -128 267 -156 q 363 -101 322 -101 q 431 -128 403 -101 q 458 -199 458 -156 q 431 -267 458 -242 q 363 -292 403 -292 m 363 850 q 278 883 311 850 q 246 968 246 917 q 278 1051 246 1018 q 363 1085 311 1085 q 446 1051 413 1085 q 479 968 479 1018 q 446 883 479 917 q 363 850 413 850 z "}}}
